solid OpenSCAD_Model
  facet normal 0 0 -1
    outer loop
      vertex -1.5 -5.5 -2.3
      vertex 0 -4 -2.3
      vertex 0 -5.5 -2.3
    endloop
  endfacet
  facet normal 0 0 -1
    outer loop
      vertex -1.5 -5.5 -2.3
      vertex -1.5 -4 -2.3
      vertex 0 -4 -2.3
    endloop
  endfacet
  facet normal 0 0 -1
    outer loop
      vertex -1.5 4 -2.3
      vertex -1.5 5.5 -2.3
      vertex 0 4 -2.3
    endloop
  endfacet
  facet normal 0 0 -1
    outer loop
      vertex -1.5 5.5 -2.3
      vertex 0 5.5 -2.3
      vertex 0 4 -2.3
    endloop
  endfacet
  facet normal 0 0 -1
    outer loop
      vertex 10 -5.5 -2.3
      vertex 11.5 -4 -2.3
      vertex 11.5 -5.5 -2.3
    endloop
  endfacet
  facet normal 0 0 -1
    outer loop
      vertex 10 -5.5 -2.3
      vertex 10 -4 -2.3
      vertex 11.5 -4 -2.3
    endloop
  endfacet
  facet normal 0 0 -1
    outer loop
      vertex -11.5 4 -2.3
      vertex -10 5.5 -2.3
      vertex -10 4 -2.3
    endloop
  endfacet
  facet normal 0 0 -1
    outer loop
      vertex -11.5 4 -2.3
      vertex -11.5 5.5 -2.3
      vertex -10 5.5 -2.3
    endloop
  endfacet
  facet normal 0 0 -1
    outer loop
      vertex 10 4 -2.3
      vertex 10 5.5 -2.3
      vertex 11.5 4 -2.3
    endloop
  endfacet
  facet normal 0 0 -1
    outer loop
      vertex 11.5 4 -2.3
      vertex 10 5.5 -2.3
      vertex 11.5 5.5 -2.3
    endloop
  endfacet
  facet normal 0 0 -1
    outer loop
      vertex -11.5 -5.5 -2.3
      vertex -11.5 -4 -2.3
      vertex -10 -5.5 -2.3
    endloop
  endfacet
  facet normal 0 0 -1
    outer loop
      vertex -10 -5.5 -2.3
      vertex -11.5 -4 -2.3
      vertex -10 -4 -2.3
    endloop
  endfacet
  facet normal 0 0 -1
    outer loop
      vertex 0 4 -2.3
      vertex 1.5 5.5 -2.3
      vertex 1.5 4 -2.3
    endloop
  endfacet
  facet normal 0 0 -1
    outer loop
      vertex 0 4 -2.3
      vertex 0 5.5 -2.3
      vertex 1.5 5.5 -2.3
    endloop
  endfacet
  facet normal 0 0 -1
    outer loop
      vertex 0 -5.5 -2.3
      vertex 0 -4 -2.3
      vertex 1.5 -5.5 -2.3
    endloop
  endfacet
  facet normal 0 0 -1
    outer loop
      vertex 1.5 -5.5 -2.3
      vertex 0 -4 -2.3
      vertex 1.5 -4 -2.3
    endloop
  endfacet
  facet normal 0 -1 0
    outer loop
      vertex 10 -5.5 3.8
      vertex 11.5 -5.5 3.8
      vertex 10 -5.5 5.3
    endloop
  endfacet
  facet normal 0 -1 0
    outer loop
      vertex 11.5 -5.5 3.8
      vertex 11.5 -5.5 5.3
      vertex 10 -5.5 5.3
    endloop
  endfacet
  facet normal 1 0 0
    outer loop
      vertex 11.5 -5.5 3.8
      vertex 11.5 -4 5.3
      vertex 11.5 -5.5 5.3
    endloop
  endfacet
  facet normal 0 0 1
    outer loop
      vertex 10 -5.5 5.3
      vertex 11.5 -5.5 5.3
      vertex 11.5 -4 5.3
    endloop
  endfacet
  facet normal 1 0 0
    outer loop
      vertex 11.5 -5.5 3.8
      vertex 11.5 -4 3.8
      vertex 11.5 -4 5.3
    endloop
  endfacet
  facet normal 0 0 1
    outer loop
      vertex 10 -5.5 5.3
      vertex 11.5 -4 5.3
      vertex 10 -4 5.3
    endloop
  endfacet
  facet normal -1 0 0
    outer loop
      vertex -11.5 4 3.8
      vertex -11.5 4 5.3
      vertex -11.5 5.5 3.8
    endloop
  endfacet
  facet normal 0 0 1
    outer loop
      vertex -11.5 4 5.3
      vertex -10 4 5.3
      vertex -10 5.5 5.3
    endloop
  endfacet
  facet normal 0 1 0
    outer loop
      vertex -11.5 5.5 3.8
      vertex -10 5.5 5.3
      vertex -10 5.5 3.8
    endloop
  endfacet
  facet normal -1 0 0
    outer loop
      vertex -11.5 4 5.3
      vertex -11.5 5.5 5.3
      vertex -11.5 5.5 3.8
    endloop
  endfacet
  facet normal 0 0 1
    outer loop
      vertex -11.5 4 5.3
      vertex -10 5.5 5.3
      vertex -11.5 5.5 5.3
    endloop
  endfacet
  facet normal 0 1 0
    outer loop
      vertex -11.5 5.5 3.8
      vertex -11.5 5.5 5.3
      vertex -10 5.5 5.3
    endloop
  endfacet
  facet normal 1 0 0
    outer loop
      vertex 11.5 4 3.8
      vertex 11.5 5.5 3.8
      vertex 11.5 4 5.3
    endloop
  endfacet
  facet normal 0 0 1
    outer loop
      vertex 10 4 5.3
      vertex 11.5 4 5.3
      vertex 10 5.5 5.3
    endloop
  endfacet
  facet normal 0 1 0
    outer loop
      vertex 10 5.5 3.8
      vertex 10 5.5 5.3
      vertex 11.5 5.5 3.8
    endloop
  endfacet
  facet normal 1 0 0
    outer loop
      vertex 11.5 4 5.3
      vertex 11.5 5.5 3.8
      vertex 11.5 5.5 5.3
    endloop
  endfacet
  facet normal 0 0 1
    outer loop
      vertex 11.5 4 5.3
      vertex 11.5 5.5 5.3
      vertex 10 5.5 5.3
    endloop
  endfacet
  facet normal 0 1 0
    outer loop
      vertex 11.5 5.5 3.8
      vertex 10 5.5 5.3
      vertex 11.5 5.5 5.3
    endloop
  endfacet
  facet normal 0 -1 0
    outer loop
      vertex -11.5 -5.5 3.8
      vertex -10 -5.5 3.8
      vertex -10 -5.5 5.3
    endloop
  endfacet
  facet normal 0 -1 0
    outer loop
      vertex -11.5 -5.5 3.8
      vertex -10 -5.5 5.3
      vertex -11.5 -5.5 5.3
    endloop
  endfacet
  facet normal -1 0 0
    outer loop
      vertex -11.5 -5.5 3.8
      vertex -11.5 -5.5 5.3
      vertex -11.5 -4 5.3
    endloop
  endfacet
  facet normal 0 0 1
    outer loop
      vertex -11.5 -5.5 5.3
      vertex -10 -5.5 5.3
      vertex -11.5 -4 5.3
    endloop
  endfacet
  facet normal -1 0 0
    outer loop
      vertex -11.5 -5.5 3.8
      vertex -11.5 -4 5.3
      vertex -11.5 -4 3.8
    endloop
  endfacet
  facet normal 0 0 1
    outer loop
      vertex -10 -5.5 5.3
      vertex -10 -4 5.3
      vertex -11.5 -4 5.3
    endloop
  endfacet
  facet normal 1 0 0
    outer loop
      vertex -1.5 -4 -3.8
      vertex -1.5 -3.5 -3.8
      vertex -1.5 -3.5 -2.8
    endloop
  endfacet
  facet normal 1 0 0
    outer loop
      vertex -1.5 -4 -3.8
      vertex -1.5 -3.5 -2.8
      vertex -1.5 -4 -2.3
    endloop
  endfacet
  facet normal 0 -0.7071067811865476 -0.7071067811865476
    outer loop
      vertex -1.5 -3.5 -2.8
      vertex 0 -4 -2.3
      vertex -1.5 -4 -2.3
    endloop
  endfacet
  facet normal 0 -0.7071067811865476 -0.7071067811865476
    outer loop
      vertex -1.5 -3.5 -2.8
      vertex 0 -3.5 -2.8
      vertex 0 -4 -2.3
    endloop
  endfacet
  facet normal 0 1 0
    outer loop
      vertex -3 4 -3.8
      vertex -1.5 4 -2.3
      vertex -1.5 4 -3.8
    endloop
  endfacet
  facet normal 0.7071067811865476 0 -0.7071067811865476
    outer loop
      vertex -3 4 -3.8
      vertex -3 5.5 -3.8
      vertex -1.5 4 -2.3
    endloop
  endfacet
  facet normal 0.7071067811865476 0 -0.7071067811865476
    outer loop
      vertex -3 5.5 -3.8
      vertex -1.5 5.5 -2.3
      vertex -1.5 4 -2.3
    endloop
  endfacet
  facet normal 1 0 0
    outer loop
      vertex 10 -4 -3.8
      vertex 10 -2.5 -3.8
      vertex 10 -4 -2.3
    endloop
  endfacet
  facet normal 0 -0.7071067811865476 -0.7071067811865476
    outer loop
      vertex 10 -4 -2.3
      vertex 11.5 -2.5 -3.8
      vertex 11.5 -4 -2.3
    endloop
  endfacet
  facet normal 0 -0.7071067811865476 -0.7071067811865476
    outer loop
      vertex 10 -4 -2.3
      vertex 10 -2.5 -3.8
      vertex 11.5 -2.5 -3.8
    endloop
  endfacet
  facet normal 0 0.7071067811865476 -0.7071067811865476
    outer loop
      vertex -11.5 2.5 -3.8
      vertex -10 4 -2.3
      vertex -10 2.5 -3.8
    endloop
  endfacet
  facet normal 0 0.7071067811865476 -0.7071067811865476
    outer loop
      vertex -11.5 2.5 -3.8
      vertex -11.5 4 -2.3
      vertex -10 4 -2.3
    endloop
  endfacet
  facet normal -1 0 0
    outer loop
      vertex -10 2.5 -3.8
      vertex -10 4 -2.3
      vertex -10 4 -3.8
    endloop
  endfacet
  facet normal 0 1 0
    outer loop
      vertex 8.5 4 -3.8
      vertex 10 4 -2.3
      vertex 10 4 -3.8
    endloop
  endfacet
  facet normal 0.7071067811865476 0 -0.7071067811865476
    outer loop
      vertex 8.5 4 -3.8
      vertex 8.5 5.5 -3.8
      vertex 10 4 -2.3
    endloop
  endfacet
  facet normal 0.7071067811865476 0 -0.7071067811865476
    outer loop
      vertex 8.5 5.5 -3.8
      vertex 10 5.5 -2.3
      vertex 10 4 -2.3
    endloop
  endfacet
  facet normal -0.7071067811865476 0 -0.7071067811865476
    outer loop
      vertex -10 -5.5 -2.3
      vertex -10 -4 -2.3
      vertex -8.5 -5.5 -3.8
    endloop
  endfacet
  facet normal -0.7071067811865476 0 -0.7071067811865476
    outer loop
      vertex -10 -4 -2.3
      vertex -8.5 -4 -3.8
      vertex -8.5 -5.5 -3.8
    endloop
  endfacet
  facet normal 0 -1 0
    outer loop
      vertex -10 -4 -3.8
      vertex -8.5 -4 -3.8
      vertex -10 -4 -2.3
    endloop
  endfacet
  facet normal -1 0 0
    outer loop
      vertex 1.5 3.5 -3.8
      vertex 1.5 3.5 -2.8
      vertex 1.5 4 -3.8
    endloop
  endfacet
  facet normal -1 0 0
    outer loop
      vertex 1.5 4 -3.8
      vertex 1.5 3.5 -2.8
      vertex 1.5 4 -2.3
    endloop
  endfacet
  facet normal 0 0.7071067811865476 -0.7071067811865476
    outer loop
      vertex 0 3.5 -2.8
      vertex 0 4 -2.3
      vertex 1.5 3.5 -2.8
    endloop
  endfacet
  facet normal 0 0.7071067811865476 -0.7071067811865476
    outer loop
      vertex 1.5 3.5 -2.8
      vertex 0 4 -2.3
      vertex 1.5 4 -2.3
    endloop
  endfacet
  facet normal -0.7071067811865476 0 -0.7071067811865476
    outer loop
      vertex 1.5 -5.5 -2.3
      vertex 1.5 -4 -2.3
      vertex 3 -5.5 -3.8
    endloop
  endfacet
  facet normal -0.7071067811865476 0 -0.7071067811865476
    outer loop
      vertex 1.5 -4 -2.3
      vertex 3 -4 -3.8
      vertex 3 -5.5 -3.8
    endloop
  endfacet
  facet normal 0 -1 0
    outer loop
      vertex 1.5 -4 -3.8
      vertex 3 -4 -3.8
      vertex 1.5 -4 -2.3
    endloop
  endfacet
  facet normal -1 0 0
    outer loop
      vertex 10 -4 3.8
      vertex 10 -4 5.3
      vertex 10 -2.5 3.8
    endloop
  endfacet
  facet normal 1 0 0
    outer loop
      vertex 11.5 -4 3.8
      vertex 11.5 -2.5 3.8
      vertex 11.5 -4 5.3
    endloop
  endfacet
  facet normal 0 0.7071067811865476 0.7071067811865476
    outer loop
      vertex 10 -4 5.3
      vertex 11.5 -4 5.3
      vertex 11.5 -2.5 3.8
    endloop
  endfacet
  facet normal 0 0.7071067811865476 0.7071067811865476
    outer loop
      vertex 10 -4 5.3
      vertex 11.5 -2.5 3.8
      vertex 10 -2.5 3.8
    endloop
  endfacet
  facet normal 0 -0.7071067811865476 0.7071067811865476
    outer loop
      vertex -11.5 2.5 3.8
      vertex -10 2.5 3.8
      vertex -10 4 5.3
    endloop
  endfacet
  facet normal -1 0 0
    outer loop
      vertex -11.5 2.5 3.8
      vertex -11.5 4 5.3
      vertex -11.5 4 3.8
    endloop
  endfacet
  facet normal 0 -0.7071067811865476 0.7071067811865476
    outer loop
      vertex -11.5 2.5 3.8
      vertex -10 4 5.3
      vertex -11.5 4 5.3
    endloop
  endfacet
  facet normal 1 0 0
    outer loop
      vertex -10 2.5 3.8
      vertex -10 4 3.8
      vertex -10 4 5.3
    endloop
  endfacet
  facet normal 0 -1 0
    outer loop
      vertex 8.5 4 3.8
      vertex 10 4 3.8
      vertex 10 4 5.3
    endloop
  endfacet
  facet normal -0.7071067811865476 0 0.7071067811865476
    outer loop
      vertex 8.5 4 3.8
      vertex 10 4 5.3
      vertex 8.5 5.5 3.8
    endloop
  endfacet
  facet normal 0 1 0
    outer loop
      vertex 8.5 5.5 3.8
      vertex 10 5.5 5.3
      vertex 10 5.5 3.8
    endloop
  endfacet
  facet normal -0.7071067811865476 0 0.7071067811865476
    outer loop
      vertex 8.5 5.5 3.8
      vertex 10 4 5.3
      vertex 10 5.5 5.3
    endloop
  endfacet
  facet normal 0 -1 0
    outer loop
      vertex -10 -5.5 3.8
      vertex -8.5 -5.5 3.8
      vertex -10 -5.5 5.3
    endloop
  endfacet
  facet normal 0.7071067811865476 0 0.7071067811865476
    outer loop
      vertex -10 -5.5 5.3
      vertex -8.5 -5.5 3.8
      vertex -10 -4 5.3
    endloop
  endfacet
  facet normal 0.7071067811865476 0 0.7071067811865476
    outer loop
      vertex -10 -4 5.3
      vertex -8.5 -5.5 3.8
      vertex -8.5 -4 3.8
    endloop
  endfacet
  facet normal 0 1 0
    outer loop
      vertex -10 -4 3.8
      vertex -10 -4 5.3
      vertex -8.5 -4 3.8
    endloop
  endfacet
  facet normal 0.7071067811865476 0 -0.7071067811865476
    outer loop
      vertex -3 -5.5 -3.8
      vertex -3 -4 -3.8
      vertex -1.5 -5.5 -2.3
    endloop
  endfacet
  facet normal 0.7071067811865476 0 -0.7071067811865476
    outer loop
      vertex -3 -4 -3.8
      vertex -1.5 -4 -2.3
      vertex -1.5 -5.5 -2.3
    endloop
  endfacet
  facet normal 0 -1 0
    outer loop
      vertex -3 -4 -3.8
      vertex -1.5 -4 -3.8
      vertex -1.5 -4 -2.3
    endloop
  endfacet
  facet normal 1 0 0
    outer loop
      vertex -1.5 3.5 -3.8
      vertex -1.5 4 -3.8
      vertex -1.5 3.5 -2.8
    endloop
  endfacet
  facet normal 1 0 0
    outer loop
      vertex -1.5 4 -3.8
      vertex -1.5 4 -2.3
      vertex -1.5 3.5 -2.8
    endloop
  endfacet
  facet normal 0 0.7071067811865476 -0.7071067811865476
    outer loop
      vertex -1.5 3.5 -2.8
      vertex -1.5 4 -2.3
      vertex 0 3.5 -2.8
    endloop
  endfacet
  facet normal 0 0.7071067811865476 -0.7071067811865476
    outer loop
      vertex -1.5 4 -2.3
      vertex 0 4 -2.3
      vertex 0 3.5 -2.8
    endloop
  endfacet
  facet normal 0.7071067811865476 0 -0.7071067811865476
    outer loop
      vertex 8.5 -5.5 -3.8
      vertex 8.5 -4 -3.8
      vertex 10 -5.5 -2.3
    endloop
  endfacet
  facet normal 0.7071067811865476 0 -0.7071067811865476
    outer loop
      vertex 8.5 -4 -3.8
      vertex 10 -4 -2.3
      vertex 10 -5.5 -2.3
    endloop
  endfacet
  facet normal 0 -1 0
    outer loop
      vertex 8.5 -4 -3.8
      vertex 10 -4 -3.8
      vertex 10 -4 -2.3
    endloop
  endfacet
  facet normal 0 1 0
    outer loop
      vertex -10 4 -3.8
      vertex -10 4 -2.3
      vertex -8.5 4 -3.8
    endloop
  endfacet
  facet normal -0.7071067811865476 0 -0.7071067811865476
    outer loop
      vertex -10 4 -2.3
      vertex -10 5.5 -2.3
      vertex -8.5 4 -3.8
    endloop
  endfacet
  facet normal -0.7071067811865476 0 -0.7071067811865476
    outer loop
      vertex -10 5.5 -2.3
      vertex -8.5 5.5 -3.8
      vertex -8.5 4 -3.8
    endloop
  endfacet
  facet normal 1 0 0
    outer loop
      vertex 10 2.5 -3.8
      vertex 10 4 -3.8
      vertex 10 4 -2.3
    endloop
  endfacet
  facet normal 0 0.7071067811865476 -0.7071067811865476
    outer loop
      vertex 10 2.5 -3.8
      vertex 11.5 4 -2.3
      vertex 11.5 2.5 -3.8
    endloop
  endfacet
  facet normal 0 0.7071067811865476 -0.7071067811865476
    outer loop
      vertex 10 2.5 -3.8
      vertex 10 4 -2.3
      vertex 11.5 4 -2.3
    endloop
  endfacet
  facet normal 0 -0.7071067811865476 -0.7071067811865476
    outer loop
      vertex -11.5 -4 -2.3
      vertex -10 -2.5 -3.8
      vertex -10 -4 -2.3
    endloop
  endfacet
  facet normal 0 -0.7071067811865476 -0.7071067811865476
    outer loop
      vertex -11.5 -4 -2.3
      vertex -11.5 -2.5 -3.8
      vertex -10 -2.5 -3.8
    endloop
  endfacet
  facet normal -1 0 0
    outer loop
      vertex -10 -4 -3.8
      vertex -10 -4 -2.3
      vertex -10 -2.5 -3.8
    endloop
  endfacet
  facet normal 0 1 0
    outer loop
      vertex 1.5 4 -3.8
      vertex 1.5 4 -2.3
      vertex 3 4 -3.8
    endloop
  endfacet
  facet normal -0.7071067811865476 0 -0.7071067811865476
    outer loop
      vertex 1.5 4 -2.3
      vertex 1.5 5.5 -2.3
      vertex 3 4 -3.8
    endloop
  endfacet
  facet normal -0.7071067811865476 0 -0.7071067811865476
    outer loop
      vertex 1.5 5.5 -2.3
      vertex 3 5.5 -3.8
      vertex 3 4 -3.8
    endloop
  endfacet
  facet normal -1 0 0
    outer loop
      vertex 1.5 -4 -3.8
      vertex 1.5 -3.5 -2.8
      vertex 1.5 -3.5 -3.8
    endloop
  endfacet
  facet normal -1 0 0
    outer loop
      vertex 1.5 -4 -3.8
      vertex 1.5 -4 -2.3
      vertex 1.5 -3.5 -2.8
    endloop
  endfacet
  facet normal 0 -0.7071067811865476 -0.7071067811865476
    outer loop
      vertex 0 -3.5 -2.8
      vertex 1.5 -4 -2.3
      vertex 0 -4 -2.3
    endloop
  endfacet
  facet normal 0 -0.7071067811865476 -0.7071067811865476
    outer loop
      vertex 0 -3.5 -2.8
      vertex 1.5 -3.5 -2.8
      vertex 1.5 -4 -2.3
    endloop
  endfacet
  facet normal -0.7071067811865476 0 0.7071067811865476
    outer loop
      vertex 8.5 -5.5 3.8
      vertex 10 -5.5 5.3
      vertex 8.5 -4 3.8
    endloop
  endfacet
  facet normal 0 -1 0
    outer loop
      vertex 8.5 -5.5 3.8
      vertex 10 -5.5 3.8
      vertex 10 -5.5 5.3
    endloop
  endfacet
  facet normal -0.7071067811865476 0 0.7071067811865476
    outer loop
      vertex 8.5 -4 3.8
      vertex 10 -5.5 5.3
      vertex 10 -4 5.3
    endloop
  endfacet
  facet normal 0 1 0
    outer loop
      vertex 8.5 -4 3.8
      vertex 10 -4 5.3
      vertex 10 -4 3.8
    endloop
  endfacet
  facet normal 0 -1 0
    outer loop
      vertex -10 4 3.8
      vertex -8.5 4 3.8
      vertex -10 4 5.3
    endloop
  endfacet
  facet normal 0.7071067811865476 0 0.7071067811865476
    outer loop
      vertex -10 4 5.3
      vertex -8.5 4 3.8
      vertex -10 5.5 5.3
    endloop
  endfacet
  facet normal 0 1 0
    outer loop
      vertex -10 5.5 3.8
      vertex -10 5.5 5.3
      vertex -8.5 5.5 3.8
    endloop
  endfacet
  facet normal 0.7071067811865476 0 0.7071067811865476
    outer loop
      vertex -10 5.5 5.3
      vertex -8.5 4 3.8
      vertex -8.5 5.5 3.8
    endloop
  endfacet
  facet normal -1 0 0
    outer loop
      vertex 10 2.5 3.8
      vertex 10 4 5.3
      vertex 10 4 3.8
    endloop
  endfacet
  facet normal 0 -0.7071067811865476 0.7071067811865476
    outer loop
      vertex 10 2.5 3.8
      vertex 11.5 2.5 3.8
      vertex 11.5 4 5.3
    endloop
  endfacet
  facet normal 1 0 0
    outer loop
      vertex 11.5 2.5 3.8
      vertex 11.5 4 3.8
      vertex 11.5 4 5.3
    endloop
  endfacet
  facet normal 0 -0.7071067811865476 0.7071067811865476
    outer loop
      vertex 10 2.5 3.8
      vertex 11.5 4 5.3
      vertex 10 4 5.3
    endloop
  endfacet
  facet normal -1 0 0
    outer loop
      vertex -11.5 -4 3.8
      vertex -11.5 -4 5.3
      vertex -11.5 -2.5 3.8
    endloop
  endfacet
  facet normal 0 0.7071067811865476 0.7071067811865476
    outer loop
      vertex -11.5 -4 5.3
      vertex -10 -4 5.3
      vertex -10 -2.5 3.8
    endloop
  endfacet
  facet normal 0 0.7071067811865476 0.7071067811865476
    outer loop
      vertex -11.5 -4 5.3
      vertex -10 -2.5 3.8
      vertex -11.5 -2.5 3.8
    endloop
  endfacet
  facet normal 1 0 0
    outer loop
      vertex -10 -4 3.8
      vertex -10 -2.5 3.8
      vertex -10 -4 5.3
    endloop
  endfacet
  facet normal 0 -1 0
    outer loop
      vertex -1.5 -5.5 3.8
      vertex 0 -5.5 3.8
      vertex 0 -5.5 5.3
    endloop
  endfacet
  facet normal 0 -1 0
    outer loop
      vertex -1.5 -5.5 3.8
      vertex 0 -5.5 5.3
      vertex -1.5 -5.5 5.3
    endloop
  endfacet
  facet normal 0 0 1
    outer loop
      vertex -1.5 -5.5 5.3
      vertex 0 -5.5 5.3
      vertex -1.5 -4 5.3
    endloop
  endfacet
  facet normal 0 0 1
    outer loop
      vertex -1.5 -4 5.3
      vertex 0 -5.5 5.3
      vertex 0 -4 5.3
    endloop
  endfacet
  facet normal 0 1 0
    outer loop
      vertex -1.5 -4 3.8
      vertex -1.5 -4 5.3
      vertex 0 -4 3.8
    endloop
  endfacet
  facet normal 0 1 0
    outer loop
      vertex -1.5 -4 5.3
      vertex 0 -4 5.3
      vertex 0 -4 3.8
    endloop
  endfacet
  facet normal 0 -1 0
    outer loop
      vertex -1.5 4 3.8
      vertex 0 4 3.8
      vertex 0 4 5.3
    endloop
  endfacet
  facet normal 0 -1 0
    outer loop
      vertex -1.5 4 3.8
      vertex 0 4 5.3
      vertex -1.5 4 5.3
    endloop
  endfacet
  facet normal 0 0 1
    outer loop
      vertex -1.5 4 5.3
      vertex 0 4 5.3
      vertex -1.5 5.5 5.3
    endloop
  endfacet
  facet normal 0 1 0
    outer loop
      vertex -1.5 5.5 3.8
      vertex -1.5 5.5 5.3
      vertex 0 5.5 3.8
    endloop
  endfacet
  facet normal 0 0 1
    outer loop
      vertex -1.5 5.5 5.3
      vertex 0 4 5.3
      vertex 0 5.5 5.3
    endloop
  endfacet
  facet normal 0 1 0
    outer loop
      vertex -1.5 5.5 5.3
      vertex 0 5.5 5.3
      vertex 0 5.5 3.8
    endloop
  endfacet
  facet normal 0 -1 0
    outer loop
      vertex 1.5 4 5.3
      vertex 0 4 3.8
      vertex 1.5 4 3.8
    endloop
  endfacet
  facet normal 0 -1 0
    outer loop
      vertex 1.5 4 5.3
      vertex 0 4 5.3
      vertex 0 4 3.8
    endloop
  endfacet
  facet normal 0 0 1
    outer loop
      vertex 1.5 4 5.3
      vertex 0 5.5 5.3
      vertex 0 4 5.3
    endloop
  endfacet
  facet normal 0 1 0
    outer loop
      vertex 0 5.5 3.8
      vertex 0 5.5 5.3
      vertex 1.5 5.5 3.8
    endloop
  endfacet
  facet normal 0 0 1
    outer loop
      vertex 1.5 4 5.3
      vertex 1.5 5.5 5.3
      vertex 0 5.5 5.3
    endloop
  endfacet
  facet normal 0 1 0
    outer loop
      vertex 1.5 5.5 5.3
      vertex 1.5 5.5 3.8
      vertex 0 5.5 5.3
    endloop
  endfacet
  facet normal 0 -1 0
    outer loop
      vertex 1.5 -5.5 5.3
      vertex 0 -5.5 3.8
      vertex 1.5 -5.5 3.8
    endloop
  endfacet
  facet normal 0 -1 0
    outer loop
      vertex 1.5 -5.5 5.3
      vertex 0 -5.5 5.3
      vertex 0 -5.5 3.8
    endloop
  endfacet
  facet normal 0 0 1
    outer loop
      vertex 1.5 -5.5 5.3
      vertex 0 -4 5.3
      vertex 0 -5.5 5.3
    endloop
  endfacet
  facet normal 0 0 1
    outer loop
      vertex 1.5 -5.5 5.3
      vertex 1.5 -4 5.3
      vertex 0 -4 5.3
    endloop
  endfacet
  facet normal 0 1 0
    outer loop
      vertex 0 -4 3.8
      vertex 0 -4 5.3
      vertex 1.5 -4 3.8
    endloop
  endfacet
  facet normal 0 1 0
    outer loop
      vertex 1.5 -4 5.3
      vertex 1.5 -4 3.8
      vertex 0 -4 5.3
    endloop
  endfacet
  facet normal -0.7071067811865476 0 0.7071067811865476
    outer loop
      vertex -3 -5.5 3.8
      vertex -1.5 -5.5 5.3
      vertex -3 -4 3.8
    endloop
  endfacet
  facet normal 0 -1 0
    outer loop
      vertex -3 -5.5 3.8
      vertex -1.5 -5.5 3.8
      vertex -1.5 -5.5 5.3
    endloop
  endfacet
  facet normal -0.7071067811865476 0 0.7071067811865476
    outer loop
      vertex -3 -4 3.8
      vertex -1.5 -5.5 5.3
      vertex -1.5 -4 5.3
    endloop
  endfacet
  facet normal 0 1 0
    outer loop
      vertex -3 -4 3.8
      vertex -1.5 -4 5.3
      vertex -1.5 -4 3.8
    endloop
  endfacet
  facet normal 0 -1 0
    outer loop
      vertex -3 4 3.8
      vertex -1.5 4 3.8
      vertex -1.5 4 5.3
    endloop
  endfacet
  facet normal -0.7071067811865476 0 0.7071067811865476
    outer loop
      vertex -3 4 3.8
      vertex -1.5 4 5.3
      vertex -3 5.5 3.8
    endloop
  endfacet
  facet normal 0 1 0
    outer loop
      vertex -3 5.5 3.8
      vertex -1.5 5.5 5.3
      vertex -1.5 5.5 3.8
    endloop
  endfacet
  facet normal -0.7071067811865476 0 0.7071067811865476
    outer loop
      vertex -3 5.5 3.8
      vertex -1.5 4 5.3
      vertex -1.5 5.5 5.3
    endloop
  endfacet
  facet normal 0 -1 0
    outer loop
      vertex 1.5 4 5.3
      vertex 1.5 4 3.8
      vertex 3 4 3.8
    endloop
  endfacet
  facet normal 0.7071067811865476 0 0.7071067811865476
    outer loop
      vertex 1.5 4 5.3
      vertex 3 4 3.8
      vertex 1.5 5.5 5.3
    endloop
  endfacet
  facet normal 0 1 0
    outer loop
      vertex 1.5 5.5 5.3
      vertex 3 5.5 3.8
      vertex 1.5 5.5 3.8
    endloop
  endfacet
  facet normal 0.7071067811865476 0 0.7071067811865476
    outer loop
      vertex 1.5 5.5 5.3
      vertex 3 4 3.8
      vertex 3 5.5 3.8
    endloop
  endfacet
  facet normal 0 -1 0
    outer loop
      vertex 1.5 -5.5 5.3
      vertex 1.5 -5.5 3.8
      vertex 3 -5.5 3.8
    endloop
  endfacet
  facet normal 0.7071067811865476 0 0.7071067811865476
    outer loop
      vertex 1.5 -5.5 5.3
      vertex 3 -5.5 3.8
      vertex 1.5 -4 5.3
    endloop
  endfacet
  facet normal 0.7071067811865476 0 0.7071067811865476
    outer loop
      vertex 1.5 -4 5.3
      vertex 3 -5.5 3.8
      vertex 3 -4 3.8
    endloop
  endfacet
  facet normal 0 1 0
    outer loop
      vertex 1.5 -4 5.3
      vertex 3 -4 3.8
      vertex 1.5 -4 3.8
    endloop
  endfacet
  facet normal 0 0 -1
    outer loop
      vertex -10 -4 -3.8
      vertex -8.914213560521603 -2.9142135605216026 -3.8
      vertex -8.5 -4 -3.8
    endloop
  endfacet
  facet normal 0 0 -1
    outer loop
      vertex -10 -4 -3.8
      vertex -10 -2.5 -3.8
      vertex -8.914213560521603 -2.9142135605216026 -3.8
    endloop
  endfacet
  facet normal 0 0 -1
    outer loop
      vertex -8.5 -5.5 -3.8
      vertex -8.5 -4 -3.8
      vertex -7.5 -3.5 -3.8
    endloop
  endfacet
  facet normal 0 0 -1
    outer loop
      vertex -8.5 -5.5 -3.8
      vertex -7.5 -3.5 -3.8
      vertex -3 -5.5 -3.8
    endloop
  endfacet
  facet normal 0 0 -1
    outer loop
      vertex -8.914213560521603 -2.9142135605216026 -3.8
      vertex -7.5 -3.5 -3.8
      vertex -8.5 -4 -3.8
    endloop
  endfacet
  facet normal 0 -1 0
    outer loop
      vertex -11.5 -5.5 -2.3
      vertex -10 -5.5 -2.3
      vertex -11.5 -5.5 3.8
    endloop
  endfacet
  facet normal -1 0 0
    outer loop
      vertex -11.5 -5.5 -2.3
      vertex -11.5 -5.5 3.8
      vertex -11.5 -4 -2.3
    endloop
  endfacet
  facet normal 0 0 -1
    outer loop
      vertex -8.914213560521603 -2.9142135605216026 -3.8
      vertex -10 -2.5 -3.8
      vertex -9.5 -1.5 -3.8
    endloop
  endfacet
  facet normal -1 0 0
    outer loop
      vertex -11.5 -4 -2.3
      vertex -11.5 2.5 -3.8
      vertex -11.5 -2.5 -3.8
    endloop
  endfacet
  facet normal 0 0 -1
    outer loop
      vertex -11.5 -2.5 -3.8
      vertex -11.5 2.5 -3.8
      vertex -10 -2.5 -3.8
    endloop
  endfacet
  facet normal 0 0 -1
    outer loop
      vertex -10 -2.5 -3.8
      vertex -11.5 2.5 -3.8
      vertex -9.5 -1.5 -3.8
    endloop
  endfacet
  facet normal 0 -1 0
    outer loop
      vertex -8.5 -5.5 -3.8
      vertex -3 -5.5 -3.8
      vertex -1.5 -5.5 -2.3
    endloop
  endfacet
  facet normal 0 0 -1
    outer loop
      vertex -7.5 -3.5 -3.8
      vertex -3 -4 -3.8
      vertex -3 -5.5 -3.8
    endloop
  endfacet
  facet normal 0 0 -1
    outer loop
      vertex -7.5 -3.5 -3.8
      vertex -1.5 -3.5 -3.8
      vertex -3 -4 -3.8
    endloop
  endfacet
  facet normal 0 0 -1
    outer loop
      vertex -3 -4 -3.8
      vertex -1.5 -3.5 -3.8
      vertex -1.5 -4 -3.8
    endloop
  endfacet
  facet normal 0 -1 0
    outer loop
      vertex -10 -5.5 -2.3
      vertex -8.5 -5.5 -3.8
      vertex 11.5 -5.5 3.8
    endloop
  endfacet
  facet normal 0 -1 0
    outer loop
      vertex -10 -5.5 -2.3
      vertex -10 -5.5 3.8
      vertex -11.5 -5.5 3.8
    endloop
  endfacet
  facet normal -1 0 0
    outer loop
      vertex -11.5 -4 -2.3
      vertex -11.5 -5.5 3.8
      vertex -11.5 -4 3.8
    endloop
  endfacet
  facet normal 0 -1 0
    outer loop
      vertex -10 -5.5 -2.3
      vertex -8.5 -5.5 3.8
      vertex -10 -5.5 3.8
    endloop
  endfacet
  facet normal -1 0 0
    outer loop
      vertex -11.5 -4 -2.3
      vertex -11.5 -4 3.8
      vertex -11.5 -2.5 3.8
    endloop
  endfacet
  facet normal 0 -1 0
    outer loop
      vertex -10 -5.5 -2.3
      vertex -3 -5.5 3.8
      vertex -8.5 -5.5 3.8
    endloop
  endfacet
  facet normal 0 0 1
    outer loop
      vertex -10 -4 3.8
      vertex -8.5 -4 3.8
      vertex -8.914213560521603 -2.9142135605216026 3.8
    endloop
  endfacet
  facet normal 0 0 1
    outer loop
      vertex -10 -4 3.8
      vertex -8.914213560521603 -2.9142135605216026 3.8
      vertex -10 -2.5 3.8
    endloop
  endfacet
  facet normal 0 0 1
    outer loop
      vertex -8.5 -5.5 3.8
      vertex -3 -5.5 3.8
      vertex -8.5 -4 3.8
    endloop
  endfacet
  facet normal 0 0 1
    outer loop
      vertex -8.5 -4 3.8
      vertex -3 -5.5 3.8
      vertex -7.5 -3.5 3.8
    endloop
  endfacet
  facet normal 0 0 1
    outer loop
      vertex -8.914213560521603 -2.9142135605216026 3.8
      vertex -8.5 -4 3.8
      vertex -7.5 -3.5 3.8
    endloop
  endfacet
  facet normal -1 0 0
    outer loop
      vertex -11.5 -4 -2.3
      vertex -11.5 -2.5 3.8
      vertex -11.5 2.5 3.8
    endloop
  endfacet
  facet normal 0 0 1
    outer loop
      vertex -11.5 -2.5 3.8
      vertex -10 -2.5 3.8
      vertex -9.5 -1.5 3.8
    endloop
  endfacet
  facet normal 0 0 1
    outer loop
      vertex -8.914213560521603 -2.9142135605216026 3.8
      vertex -9.5 -1.5 3.8
      vertex -10 -2.5 3.8
    endloop
  endfacet
  facet normal 0 0 1
    outer loop
      vertex -11.5 -2.5 3.8
      vertex -9.5 -1.5 3.8
      vertex -11.5 2.5 3.8
    endloop
  endfacet
  facet normal 0 -1 0
    outer loop
      vertex -10 -5.5 -2.3
      vertex -1.5 -5.5 3.8
      vertex -3 -5.5 3.8
    endloop
  endfacet
  facet normal 0 -1 0
    outer loop
      vertex -10 -5.5 -2.3
      vertex 0 -5.5 3.8
      vertex -1.5 -5.5 3.8
    endloop
  endfacet
  facet normal 0 -1 0
    outer loop
      vertex -10 -5.5 -2.3
      vertex 1.5 -5.5 3.8
      vertex 0 -5.5 3.8
    endloop
  endfacet
  facet normal 0 -1 0
    outer loop
      vertex -10 -5.5 -2.3
      vertex 3 -5.5 3.8
      vertex 1.5 -5.5 3.8
    endloop
  endfacet
  facet normal 0 0 1
    outer loop
      vertex -7.5 -3.5 3.8
      vertex -3 -5.5 3.8
      vertex -3 -4 3.8
    endloop
  endfacet
  facet normal 0 0 1
    outer loop
      vertex -7.5 -3.5 3.8
      vertex -3 -4 3.8
      vertex -1.5 -4 3.8
    endloop
  endfacet
  facet normal 0 0 1
    outer loop
      vertex -7.5 -3.5 3.8
      vertex -1.5 -4 3.8
      vertex 7.5 -3.5 3.8
    endloop
  endfacet
  facet normal 0 0 -1
    outer loop
      vertex -9.5 -1.5 -3.8
      vertex -11.5 2.5 -3.8
      vertex -9.5 1.5 -3.8
    endloop
  endfacet
  facet normal -1 0 0
    outer loop
      vertex -11.5 -4 -2.3
      vertex -11.5 4 -2.3
      vertex -11.5 2.5 -3.8
    endloop
  endfacet
  facet normal 0 0 -1
    outer loop
      vertex -11.5 2.5 -3.8
      vertex -10 2.5 -3.8
      vertex -9.5 1.5 -3.8
    endloop
  endfacet
  facet normal 0 0 -1
    outer loop
      vertex -9.5 1.5 -3.8
      vertex -10 2.5 -3.8
      vertex -8.914213560521603 2.9142135605216026 -3.8
    endloop
  endfacet
  facet normal -1 0 0
    outer loop
      vertex -11.5 -4 -2.3
      vertex -11.5 5.5 3.8
      vertex -11.5 4 -2.3
    endloop
  endfacet
  facet normal 0 0 -1
    outer loop
      vertex -10 2.5 -3.8
      vertex -10 4 -3.8
      vertex -8.914213560521603 2.9142135605216026 -3.8
    endloop
  endfacet
  facet normal 0 0 -1
    outer loop
      vertex -8.914213560521603 2.9142135605216026 -3.8
      vertex -10 4 -3.8
      vertex -8.5 4 -3.8
    endloop
  endfacet
  facet normal 0 0 -1
    outer loop
      vertex -8.914213560521603 2.9142135605216026 -3.8
      vertex -8.5 4 -3.8
      vertex -7.5 3.5 -3.8
    endloop
  endfacet
  facet normal 0 0 -1
    outer loop
      vertex -8.5 4 -3.8
      vertex -3 5.5 -3.8
      vertex -7.5 3.5 -3.8
    endloop
  endfacet
  facet normal 0 0 -1
    outer loop
      vertex -8.5 4 -3.8
      vertex -8.5 5.5 -3.8
      vertex -3 5.5 -3.8
    endloop
  endfacet
  facet normal 0 1 0
    outer loop
      vertex -10 5.5 -2.3
      vertex -1.5 5.5 -2.3
      vertex -8.5 5.5 -3.8
    endloop
  endfacet
  facet normal -1 0 0
    outer loop
      vertex -11.5 4 -2.3
      vertex -11.5 5.5 3.8
      vertex -11.5 5.5 -2.3
    endloop
  endfacet
  facet normal 0 1 0
    outer loop
      vertex -11.5 5.5 -2.3
      vertex -11.5 5.5 3.8
      vertex -10 5.5 -2.3
    endloop
  endfacet
  facet normal 0 1 0
    outer loop
      vertex -10 5.5 -2.3
      vertex -11.5 5.5 3.8
      vertex -1.5 5.5 -2.3
    endloop
  endfacet
  facet normal 0 0 -1
    outer loop
      vertex -7.5 3.5 -3.8
      vertex -3 4 -3.8
      vertex -1.5 3.5 -3.8
    endloop
  endfacet
  facet normal 0 0 -1
    outer loop
      vertex -7.5 3.5 -3.8
      vertex -3 5.5 -3.8
      vertex -3 4 -3.8
    endloop
  endfacet
  facet normal 0 1 0
    outer loop
      vertex -8.5 5.5 -3.8
      vertex -1.5 5.5 -2.3
      vertex -3 5.5 -3.8
    endloop
  endfacet
  facet normal 0 0 -1
    outer loop
      vertex -3 4 -3.8
      vertex -1.5 4 -3.8
      vertex -1.5 3.5 -3.8
    endloop
  endfacet
  facet normal 0 1 0
    outer loop
      vertex -1.5 5.5 -2.3
      vertex -11.5 5.5 3.8
      vertex 0 5.5 -2.3
    endloop
  endfacet
  facet normal 0 1 0
    outer loop
      vertex -11.5 5.5 3.8
      vertex 1.5 5.5 -2.3
      vertex 0 5.5 -2.3
    endloop
  endfacet
  facet normal 0 1 0
    outer loop
      vertex -11.5 5.5 3.8
      vertex 8.5 5.5 -3.8
      vertex 1.5 5.5 -2.3
    endloop
  endfacet
  facet normal -1 0 0
    outer loop
      vertex -11.5 -4 -2.3
      vertex -11.5 2.5 3.8
      vertex -11.5 4 3.8
    endloop
  endfacet
  facet normal -1 0 0
    outer loop
      vertex -11.5 -4 -2.3
      vertex -11.5 4 3.8
      vertex -11.5 5.5 3.8
    endloop
  endfacet
  facet normal 0 0 1
    outer loop
      vertex -9.5 -1.5 3.8
      vertex -9.5 1.5 3.8
      vertex -11.5 2.5 3.8
    endloop
  endfacet
  facet normal 0 0 1
    outer loop
      vertex -11.5 2.5 3.8
      vertex -9.5 1.5 3.8
      vertex -10 2.5 3.8
    endloop
  endfacet
  facet normal 0 0 1
    outer loop
      vertex -9.5 1.5 3.8
      vertex -8.914213560521603 2.9142135605216026 3.8
      vertex -10 2.5 3.8
    endloop
  endfacet
  facet normal 0 0 1
    outer loop
      vertex -10 2.5 3.8
      vertex -8.914213560521603 2.9142135605216026 3.8
      vertex -10 4 3.8
    endloop
  endfacet
  facet normal 0 0 1
    outer loop
      vertex -8.914213560521603 2.9142135605216026 3.8
      vertex -8.5 4 3.8
      vertex -10 4 3.8
    endloop
  endfacet
  facet normal 0 0 1
    outer loop
      vertex -8.914213560521603 2.9142135605216026 3.8
      vertex -7.5 3.5 3.8
      vertex -8.5 4 3.8
    endloop
  endfacet
  facet normal 0 0 1
    outer loop
      vertex -8.5 4 3.8
      vertex -7.5 3.5 3.8
      vertex -3 5.5 3.8
    endloop
  endfacet
  facet normal 0 0 1
    outer loop
      vertex -8.5 4 3.8
      vertex -3 5.5 3.8
      vertex -8.5 5.5 3.8
    endloop
  endfacet
  facet normal 0 1 0
    outer loop
      vertex -11.5 5.5 3.8
      vertex -10 5.5 3.8
      vertex 10 5.5 -2.3
    endloop
  endfacet
  facet normal 0 1 0
    outer loop
      vertex -10 5.5 3.8
      vertex -8.5 5.5 3.8
      vertex 10 5.5 -2.3
    endloop
  endfacet
  facet normal 0 1 0
    outer loop
      vertex -8.5 5.5 3.8
      vertex -3 5.5 3.8
      vertex 10 5.5 -2.3
    endloop
  endfacet
  facet normal 0 0 1
    outer loop
      vertex -7.5 3.5 3.8
      vertex -3 4 3.8
      vertex -3 5.5 3.8
    endloop
  endfacet
  facet normal 0 0 1
    outer loop
      vertex -7.5 3.5 3.8
      vertex 7.5 3.5 3.8
      vertex -3 4 3.8
    endloop
  endfacet
  facet normal 0 0 -1
    outer loop
      vertex 1.5 -4 -3.8
      vertex 1.5 -3.5 -3.8
      vertex 3 -4 -3.8
    endloop
  endfacet
  facet normal 0 -1 0
    outer loop
      vertex 1.5 -5.5 -2.3
      vertex 3 -5.5 -3.8
      vertex 8.5 -5.5 -3.8
    endloop
  endfacet
  facet normal 0 0 -1
    outer loop
      vertex 3 -5.5 -3.8
      vertex 3 -4 -3.8
      vertex 7.5 -3.5 -3.8
    endloop
  endfacet
  facet normal 0 0 -1
    outer loop
      vertex 1.5 -3.5 -3.8
      vertex 7.5 -3.5 -3.8
      vertex 3 -4 -3.8
    endloop
  endfacet
  facet normal 0 -1 0
    outer loop
      vertex -8.5 -5.5 -3.8
      vertex -1.5 -5.5 -2.3
      vertex 11.5 -5.5 3.8
    endloop
  endfacet
  facet normal 0 -1 0
    outer loop
      vertex -1.5 -5.5 -2.3
      vertex 0 -5.5 -2.3
      vertex 11.5 -5.5 3.8
    endloop
  endfacet
  facet normal 0 -1 0
    outer loop
      vertex 0 -5.5 -2.3
      vertex 1.5 -5.5 -2.3
      vertex 11.5 -5.5 3.8
    endloop
  endfacet
  facet normal 0 0 -1
    outer loop
      vertex 3 -5.5 -3.8
      vertex 8.5 -4 -3.8
      vertex 8.5 -5.5 -3.8
    endloop
  endfacet
  facet normal 0 -1 0
    outer loop
      vertex 1.5 -5.5 -2.3
      vertex 8.5 -5.5 -3.8
      vertex 10 -5.5 -2.3
    endloop
  endfacet
  facet normal 0 0 -1
    outer loop
      vertex 3 -5.5 -3.8
      vertex 7.5 -3.5 -3.8
      vertex 8.5 -4 -3.8
    endloop
  endfacet
  facet normal 0 0 -1
    outer loop
      vertex 7.5 -3.5 -3.8
      vertex 8.914213560521603 -2.9142135605216026 -3.8
      vertex 8.5 -4 -3.8
    endloop
  endfacet
  facet normal 0 0 -1
    outer loop
      vertex 8.5 -4 -3.8
      vertex 8.914213560521603 -2.9142135605216026 -3.8
      vertex 10 -4 -3.8
    endloop
  endfacet
  facet normal 0 0 -1
    outer loop
      vertex 10 -4 -3.8
      vertex 8.914213560521603 -2.9142135605216026 -3.8
      vertex 10 -2.5 -3.8
    endloop
  endfacet
  facet normal 0 -1 0
    outer loop
      vertex 1.5 -5.5 -2.3
      vertex 10 -5.5 -2.3
      vertex 11.5 -5.5 3.8
    endloop
  endfacet
  facet normal 0 -1 0
    outer loop
      vertex 10 -5.5 -2.3
      vertex 11.5 -5.5 -2.3
      vertex 11.5 -5.5 3.8
    endloop
  endfacet
  facet normal 1 0 0
    outer loop
      vertex 11.5 -5.5 -2.3
      vertex 11.5 -4 -2.3
      vertex 11.5 -5.5 3.8
    endloop
  endfacet
  facet normal 0 0 -1
    outer loop
      vertex 8.914213560521603 -2.9142135605216026 -3.8
      vertex 9.5 -1.5 -3.8
      vertex 10 -2.5 -3.8
    endloop
  endfacet
  facet normal 0 0 -1
    outer loop
      vertex 10 -2.5 -3.8
      vertex 9.5 -1.5 -3.8
      vertex 11.5 -2.5 -3.8
    endloop
  endfacet
  facet normal 0 0 -1
    outer loop
      vertex 9.5 -1.5 -3.8
      vertex 9.5 1.5 -3.8
      vertex 11.5 -2.5 -3.8
    endloop
  endfacet
  facet normal 1 0 0
    outer loop
      vertex 11.5 -4 -2.3
      vertex 11.5 -2.5 -3.8
      vertex 11.5 4 -2.3
    endloop
  endfacet
  facet normal 1 0 0
    outer loop
      vertex 11.5 -4 -2.3
      vertex 11.5 4 -2.3
      vertex 11.5 -5.5 3.8
    endloop
  endfacet
  facet normal 0 -1 0
    outer loop
      vertex 8.5 -5.5 3.8
      vertex 3 -5.5 3.8
      vertex -10 -5.5 -2.3
    endloop
  endfacet
  facet normal 0 -1 0
    outer loop
      vertex -10 -5.5 -2.3
      vertex 10 -5.5 3.8
      vertex 8.5 -5.5 3.8
    endloop
  endfacet
  facet normal 0 -1 0
    outer loop
      vertex -10 -5.5 -2.3
      vertex 11.5 -5.5 3.8
      vertex 10 -5.5 3.8
    endloop
  endfacet
  facet normal 0 0 1
    outer loop
      vertex -1.5 -4 3.8
      vertex 0 -4 3.8
      vertex 7.5 -3.5 3.8
    endloop
  endfacet
  facet normal 0 0 1
    outer loop
      vertex 8.5 -4 3.8
      vertex 3 -4 3.8
      vertex 3 -5.5 3.8
    endloop
  endfacet
  facet normal 0 0 1
    outer loop
      vertex 7.5 -3.5 3.8
      vertex 0 -4 3.8
      vertex 1.5 -4 3.8
    endloop
  endfacet
  facet normal 0 0 1
    outer loop
      vertex 7.5 -3.5 3.8
      vertex 1.5 -4 3.8
      vertex 3 -4 3.8
    endloop
  endfacet
  facet normal 0 0 1
    outer loop
      vertex 8.5 -5.5 3.8
      vertex 8.5 -4 3.8
      vertex 3 -5.5 3.8
    endloop
  endfacet
  facet normal 0 0 1
    outer loop
      vertex 7.5 -3.5 3.8
      vertex 3 -4 3.8
      vertex 8.5 -4 3.8
    endloop
  endfacet
  facet normal 0 0 1
    outer loop
      vertex 7.5 -3.5 3.8
      vertex 8.5 -4 3.8
      vertex 8.914213560521603 -2.9142135605216026 3.8
    endloop
  endfacet
  facet normal 0 0 1
    outer loop
      vertex 8.5 -4 3.8
      vertex 10 -4 3.8
      vertex 8.914213560521603 -2.9142135605216026 3.8
    endloop
  endfacet
  facet normal 0 0 1
    outer loop
      vertex 10 -4 3.8
      vertex 10 -2.5 3.8
      vertex 8.914213560521603 -2.9142135605216026 3.8
    endloop
  endfacet
  facet normal 1 0 0
    outer loop
      vertex 11.5 -5.5 3.8
      vertex 11.5 4 -2.3
      vertex 11.5 -4 3.8
    endloop
  endfacet
  facet normal 1 0 0
    outer loop
      vertex 11.5 -4 3.8
      vertex 11.5 4 -2.3
      vertex 11.5 -2.5 3.8
    endloop
  endfacet
  facet normal 0 0 1
    outer loop
      vertex 8.914213560521603 -2.9142135605216026 3.8
      vertex 10 -2.5 3.8
      vertex 9.5 -1.5 3.8
    endloop
  endfacet
  facet normal 0 0 1
    outer loop
      vertex 10 -2.5 3.8
      vertex 11.5 -2.5 3.8
      vertex 9.5 -1.5 3.8
    endloop
  endfacet
  facet normal 0 0 1
    outer loop
      vertex 9.5 -1.5 3.8
      vertex 11.5 -2.5 3.8
      vertex 9.5 1.5 3.8
    endloop
  endfacet
  facet normal 0 0 -1
    outer loop
      vertex 1.5 3.5 -3.8
      vertex 1.5 4 -3.8
      vertex 3 4 -3.8
    endloop
  endfacet
  facet normal 0 0 -1
    outer loop
      vertex 1.5 3.5 -3.8
      vertex 3 4 -3.8
      vertex 7.5 3.5 -3.8
    endloop
  endfacet
  facet normal 0 0 -1
    outer loop
      vertex 3 4 -3.8
      vertex 3 5.5 -3.8
      vertex 7.5 3.5 -3.8
    endloop
  endfacet
  facet normal 0 1 0
    outer loop
      vertex 1.5 5.5 -2.3
      vertex 8.5 5.5 -3.8
      vertex 3 5.5 -3.8
    endloop
  endfacet
  facet normal 0 1 0
    outer loop
      vertex -11.5 5.5 3.8
      vertex 10 5.5 -2.3
      vertex 8.5 5.5 -3.8
    endloop
  endfacet
  facet normal 0 0 -1
    outer loop
      vertex 11.5 -2.5 -3.8
      vertex 9.5 1.5 -3.8
      vertex 10 2.5 -3.8
    endloop
  endfacet
  facet normal 0 0 -1
    outer loop
      vertex 11.5 -2.5 -3.8
      vertex 10 2.5 -3.8
      vertex 11.5 2.5 -3.8
    endloop
  endfacet
  facet normal 1 0 0
    outer loop
      vertex 11.5 -2.5 -3.8
      vertex 11.5 2.5 -3.8
      vertex 11.5 4 -2.3
    endloop
  endfacet
  facet normal 0 0 -1
    outer loop
      vertex 9.5 1.5 -3.8
      vertex 8.914213560521603 2.9142135605216026 -3.8
      vertex 10 2.5 -3.8
    endloop
  endfacet
  facet normal 0 0 -1
    outer loop
      vertex 7.5 3.5 -3.8
      vertex 8.5 4 -3.8
      vertex 8.914213560521603 2.9142135605216026 -3.8
    endloop
  endfacet
  facet normal 0 0 -1
    outer loop
      vertex 3 5.5 -3.8
      vertex 8.5 5.5 -3.8
      vertex 7.5 3.5 -3.8
    endloop
  endfacet
  facet normal 0 0 -1
    outer loop
      vertex 7.5 3.5 -3.8
      vertex 8.5 5.5 -3.8
      vertex 8.5 4 -3.8
    endloop
  endfacet
  facet normal 0 0 -1
    outer loop
      vertex 10 2.5 -3.8
      vertex 8.914213560521603 2.9142135605216026 -3.8
      vertex 10 4 -3.8
    endloop
  endfacet
  facet normal 0 0 -1
    outer loop
      vertex 8.5 4 -3.8
      vertex 10 4 -3.8
      vertex 8.914213560521603 2.9142135605216026 -3.8
    endloop
  endfacet
  facet normal 1 0 0
    outer loop
      vertex 11.5 4 -2.3
      vertex 11.5 5.5 -2.3
      vertex 11.5 5.5 3.8
    endloop
  endfacet
  facet normal 0 1 0
    outer loop
      vertex 10 5.5 -2.3
      vertex 11.5 5.5 3.8
      vertex 11.5 5.5 -2.3
    endloop
  endfacet
  facet normal 0 1 0
    outer loop
      vertex -3 5.5 3.8
      vertex -1.5 5.5 3.8
      vertex 10 5.5 -2.3
    endloop
  endfacet
  facet normal 0 1 0
    outer loop
      vertex -1.5 5.5 3.8
      vertex 0 5.5 3.8
      vertex 10 5.5 -2.3
    endloop
  endfacet
  facet normal 0 1 0
    outer loop
      vertex 10 5.5 -2.3
      vertex 0 5.5 3.8
      vertex 1.5 5.5 3.8
    endloop
  endfacet
  facet normal 0 1 0
    outer loop
      vertex 10 5.5 -2.3
      vertex 1.5 5.5 3.8
      vertex 3 5.5 3.8
    endloop
  endfacet
  facet normal 0 0 1
    outer loop
      vertex -3 4 3.8
      vertex 7.5 3.5 3.8
      vertex -1.5 4 3.8
    endloop
  endfacet
  facet normal 0 0 1
    outer loop
      vertex -1.5 4 3.8
      vertex 7.5 3.5 3.8
      vertex 0 4 3.8
    endloop
  endfacet
  facet normal 0 0 1
    outer loop
      vertex 7.5 3.5 3.8
      vertex 1.5 4 3.8
      vertex 0 4 3.8
    endloop
  endfacet
  facet normal 0 0 1
    outer loop
      vertex 7.5 3.5 3.8
      vertex 3 4 3.8
      vertex 1.5 4 3.8
    endloop
  endfacet
  facet normal 0 0 1
    outer loop
      vertex 8.5 5.5 3.8
      vertex 3 5.5 3.8
      vertex 3 4 3.8
    endloop
  endfacet
  facet normal 1 0 0
    outer loop
      vertex 11.5 -2.5 3.8
      vertex 11.5 4 -2.3
      vertex 11.5 2.5 3.8
    endloop
  endfacet
  facet normal 0 0 1
    outer loop
      vertex 11.5 -2.5 3.8
      vertex 11.5 2.5 3.8
      vertex 9.5 1.5 3.8
    endloop
  endfacet
  facet normal 0 0 1
    outer loop
      vertex 9.5 1.5 3.8
      vertex 10 2.5 3.8
      vertex 8.914213560521603 2.9142135605216026 3.8
    endloop
  endfacet
  facet normal 0 0 1
    outer loop
      vertex 9.5 1.5 3.8
      vertex 11.5 2.5 3.8
      vertex 10 2.5 3.8
    endloop
  endfacet
  facet normal 0 1 0
    outer loop
      vertex 10 5.5 -2.3
      vertex 3 5.5 3.8
      vertex 8.5 5.5 3.8
    endloop
  endfacet
  facet normal 1 0 0
    outer loop
      vertex 11.5 4 -2.3
      vertex 11.5 4 3.8
      vertex 11.5 2.5 3.8
    endloop
  endfacet
  facet normal 0 1 0
    outer loop
      vertex 10 5.5 -2.3
      vertex 8.5 5.5 3.8
      vertex 10 5.5 3.8
    endloop
  endfacet
  facet normal 1 0 0
    outer loop
      vertex 11.5 4 -2.3
      vertex 11.5 5.5 3.8
      vertex 11.5 4 3.8
    endloop
  endfacet
  facet normal 0 1 0
    outer loop
      vertex 10 5.5 -2.3
      vertex 10 5.5 3.8
      vertex 11.5 5.5 3.8
    endloop
  endfacet
  facet normal 0 0 1
    outer loop
      vertex 7.5 3.5 3.8
      vertex 8.5 4 3.8
      vertex 3 4 3.8
    endloop
  endfacet
  facet normal 0 0 1
    outer loop
      vertex 7.5 3.5 3.8
      vertex 8.914213560521603 2.9142135605216026 3.8
      vertex 8.5 4 3.8
    endloop
  endfacet
  facet normal 0 0 1
    outer loop
      vertex 8.5 4 3.8
      vertex 8.5 5.5 3.8
      vertex 3 4 3.8
    endloop
  endfacet
  facet normal 0 0 1
    outer loop
      vertex 10 2.5 3.8
      vertex 10 4 3.8
      vertex 8.914213560521603 2.9142135605216026 3.8
    endloop
  endfacet
  facet normal 0 0 1
    outer loop
      vertex 8.5 4 3.8
      vertex 8.914213560521603 2.9142135605216026 3.8
      vertex 10 4 3.8
    endloop
  endfacet
  facet normal 0.38268343382514064 0.923879531906514 0
    outer loop
      vertex -8.914213560521603 -2.9142135605216026 -3.8
      vertex -8.914213560521603 -2.9142135605216026 3.8
      vertex -7.5 -3.5 -3.8
    endloop
  endfacet
  facet normal 0.923879531906514 0.38268343382514064 0
    outer loop
      vertex -8.914213560521603 -2.9142135605216026 -3.8
      vertex -9.5 -1.5 -3.8
      vertex -9.5 -1.5 3.8
    endloop
  endfacet
  facet normal 0 1 0
    outer loop
      vertex -7.5 -3.5 -3.8
      vertex -1.5 -3.5 -2.8
      vertex -1.5 -3.5 -3.8
    endloop
  endfacet
  facet normal 0 1 0
    outer loop
      vertex -7.5 -3.5 -3.8
      vertex -7.5 -3.5 3.8
      vertex -1.5 -3.5 -2.8
    endloop
  endfacet
  facet normal 0 1 0
    outer loop
      vertex -1.5 -3.5 -2.8
      vertex -7.5 -3.5 3.8
      vertex 0 -3.5 -2.8
    endloop
  endfacet
  facet normal 0 1 0
    outer loop
      vertex -7.5 -3.5 3.8
      vertex 1.5 -3.5 -2.8
      vertex 0 -3.5 -2.8
    endloop
  endfacet
  facet normal 0.38268343382514064 0.923879531906514 0
    outer loop
      vertex -7.5 -3.5 -3.8
      vertex -8.914213560521603 -2.9142135605216026 3.8
      vertex -7.5 -3.5 3.8
    endloop
  endfacet
  facet normal 0.923879531906514 0.38268343382514064 0
    outer loop
      vertex -8.914213560521603 -2.9142135605216026 -3.8
      vertex -9.5 -1.5 3.8
      vertex -8.914213560521603 -2.9142135605216026 3.8
    endloop
  endfacet
  facet normal 1 0 0
    outer loop
      vertex -9.5 -1.5 -3.8
      vertex -9.5 1.5 3.8
      vertex -9.5 -1.5 3.8
    endloop
  endfacet
  facet normal 1 0 0
    outer loop
      vertex -9.5 -1.5 -3.8
      vertex -9.5 1.5 -3.8
      vertex -9.5 1.5 3.8
    endloop
  endfacet
  facet normal 0.923879531906514 -0.38268343382514064 0
    outer loop
      vertex -9.5 1.5 -3.8
      vertex -8.914213560521603 2.9142135605216026 -3.8
      vertex -8.914213560521603 2.9142135605216026 3.8
    endloop
  endfacet
  facet normal 0.38268343382514064 -0.923879531906514 0
    outer loop
      vertex -8.914213560521603 2.9142135605216026 -3.8
      vertex -7.5 3.5 -3.8
      vertex -7.5 3.5 3.8
    endloop
  endfacet
  facet normal 0 -1 0
    outer loop
      vertex -7.5 3.5 -3.8
      vertex -1.5 3.5 -3.8
      vertex -1.5 3.5 -2.8
    endloop
  endfacet
  facet normal 0 -1 0
    outer loop
      vertex -7.5 3.5 -3.8
      vertex -1.5 3.5 -2.8
      vertex 7.5 3.5 3.8
    endloop
  endfacet
  facet normal 0.923879531906514 -0.38268343382514064 0
    outer loop
      vertex -9.5 1.5 -3.8
      vertex -8.914213560521603 2.9142135605216026 3.8
      vertex -9.5 1.5 3.8
    endloop
  endfacet
  facet normal 0.38268343382514064 -0.923879531906514 0
    outer loop
      vertex -8.914213560521603 2.9142135605216026 -3.8
      vertex -7.5 3.5 3.8
      vertex -8.914213560521603 2.9142135605216026 3.8
    endloop
  endfacet
  facet normal 0 -1 0
    outer loop
      vertex -7.5 3.5 -3.8
      vertex 7.5 3.5 3.8
      vertex -7.5 3.5 3.8
    endloop
  endfacet
  facet normal 0 1 0
    outer loop
      vertex 1.5 -3.5 -3.8
      vertex 1.5 -3.5 -2.8
      vertex 7.5 -3.5 -3.8
    endloop
  endfacet
  facet normal 0 1 0
    outer loop
      vertex -7.5 -3.5 3.8
      vertex 7.5 -3.5 -3.8
      vertex 1.5 -3.5 -2.8
    endloop
  endfacet
  facet normal -0.38268343382514064 0.923879531906514 0
    outer loop
      vertex 7.5 -3.5 -3.8
      vertex 7.5 -3.5 3.8
      vertex 8.914213560521603 -2.9142135605216026 -3.8
    endloop
  endfacet
  facet normal -0.923879531906514 0.38268343382514064 0
    outer loop
      vertex 8.914213560521603 -2.9142135605216026 -3.8
      vertex 8.914213560521603 -2.9142135605216026 3.8
      vertex 9.5 -1.5 -3.8
    endloop
  endfacet
  facet normal -1 0 0
    outer loop
      vertex 9.5 -1.5 -3.8
      vertex 9.5 -1.5 3.8
      vertex 9.5 1.5 -3.8
    endloop
  endfacet
  facet normal 0 1 0
    outer loop
      vertex -7.5 -3.5 3.8
      vertex 7.5 -3.5 3.8
      vertex 7.5 -3.5 -3.8
    endloop
  endfacet
  facet normal -0.38268343382514064 0.923879531906514 0
    outer loop
      vertex 8.914213560521603 -2.9142135605216026 -3.8
      vertex 7.5 -3.5 3.8
      vertex 8.914213560521603 -2.9142135605216026 3.8
    endloop
  endfacet
  facet normal -0.923879531906514 0.38268343382514064 0
    outer loop
      vertex 9.5 -1.5 -3.8
      vertex 8.914213560521603 -2.9142135605216026 3.8
      vertex 9.5 -1.5 3.8
    endloop
  endfacet
  facet normal 0 -1 0
    outer loop
      vertex 1.5 3.5 -3.8
      vertex 7.5 3.5 -3.8
      vertex 1.5 3.5 -2.8
    endloop
  endfacet
  facet normal 0 -1 0
    outer loop
      vertex -1.5 3.5 -2.8
      vertex 0 3.5 -2.8
      vertex 7.5 3.5 3.8
    endloop
  endfacet
  facet normal 0 -1 0
    outer loop
      vertex 0 3.5 -2.8
      vertex 1.5 3.5 -2.8
      vertex 7.5 3.5 3.8
    endloop
  endfacet
  facet normal 0 -1 0
    outer loop
      vertex 1.5 3.5 -2.8
      vertex 7.5 3.5 -3.8
      vertex 7.5 3.5 3.8
    endloop
  endfacet
  facet normal -0.923879531906514 -0.38268343382514064 0
    outer loop
      vertex 9.5 1.5 -3.8
      vertex 9.5 1.5 3.8
      vertex 8.914213560521603 2.9142135605216026 -3.8
    endloop
  endfacet
  facet normal -0.38268343382514064 -0.923879531906514 0
    outer loop
      vertex 7.5 3.5 -3.8
      vertex 8.914213560521603 2.9142135605216026 -3.8
      vertex 8.914213560521603 2.9142135605216026 3.8
    endloop
  endfacet
  facet normal -1 0 0
    outer loop
      vertex 9.5 -1.5 3.8
      vertex 9.5 1.5 3.8
      vertex 9.5 1.5 -3.8
    endloop
  endfacet
  facet normal -0.923879531906514 -0.38268343382514064 0
    outer loop
      vertex 8.914213560521603 2.9142135605216026 -3.8
      vertex 9.5 1.5 3.8
      vertex 8.914213560521603 2.9142135605216026 3.8
    endloop
  endfacet
  facet normal -0.38268343382514064 -0.923879531906514 0
    outer loop
      vertex 7.5 3.5 -3.8
      vertex 8.914213560521603 2.9142135605216026 3.8
      vertex 7.5 3.5 3.8
    endloop
  endfacet
endsolid OpenSCAD_Model
