solid OpenSCAD_Model
  facet normal 0 0 -1
    outer loop
      vertex -11.5 -5.5 -3.8
      vertex -7.8901806473731995 -3.4615705609321594 -3.8
      vertex -7.5 -3.5 -3.8
    endloop
  endfacet
  facet normal 0 0 -1
    outer loop
      vertex -11.5 -5.5 -3.8
      vertex -9.46157056093216 -1.8901806473731995 -3.8
      vertex -9.347759068012238 -2.265366867184639 -3.8
    endloop
  endfacet
  facet normal 0 0 -1
    outer loop
      vertex -11.5 -5.5 -3.8
      vertex -9.5 -1.5 -3.8
      vertex -9.46157056093216 -1.8901806473731995 -3.8
    endloop
  endfacet
  facet normal 0 0 -1
    outer loop
      vertex -11.5 -5.5 -3.8
      vertex -8.611140467226505 -3.162939228117466 -3.8
      vertex -8.265366867184639 -3.3477590680122375 -3.8
    endloop
  endfacet
  facet normal 0 0 -1
    outer loop
      vertex -11.5 -5.5 -3.8
      vertex -8.914213560521603 -2.9142135605216026 -3.8
      vertex -8.611140467226505 -3.162939228117466 -3.8
    endloop
  endfacet
  facet normal 0 0 -1
    outer loop
      vertex -11.5 -5.5 -3.8
      vertex -9.162939228117466 -2.6111404672265053 -3.8
      vertex -8.914213560521603 -2.9142135605216026 -3.8
    endloop
  endfacet
  facet normal 0 0 -1
    outer loop
      vertex -11.5 -5.5 -3.8
      vertex -9.347759068012238 -2.265366867184639 -3.8
      vertex -9.162939228117466 -2.6111404672265053 -3.8
    endloop
  endfacet
  facet normal 0 0 -1
    outer loop
      vertex -11.5 -5.5 -3.8
      vertex -8.265366867184639 -3.3477590680122375 -3.8
      vertex -7.8901806473731995 -3.4615705609321594 -3.8
    endloop
  endfacet
  facet normal 0 0 -1
    outer loop
      vertex -11.5 -5.5 -3.8
      vertex -9.5 1.5 -3.8
      vertex -9.5 -1.5 -3.8
    endloop
  endfacet
  facet normal 0 0 -1
    outer loop
      vertex -11.5 -5.5 -3.8
      vertex -7.5 -3.5 -3.8
      vertex 7.5 -3.5 -3.8
    endloop
  endfacet
  facet normal 0 0 1
    outer loop
      vertex -11.5 -5.5 3.8
      vertex -7.5 -3.5 3.8
      vertex -7.8901806473731995 -3.4615705609321594 3.8
    endloop
  endfacet
  facet normal 0 0 1
    outer loop
      vertex -11.5 -5.5 3.8
      vertex -9.347759068012238 -2.265366867184639 3.8
      vertex -9.46157056093216 -1.8901806473731995 3.8
    endloop
  endfacet
  facet normal 0 0 1
    outer loop
      vertex -11.5 -5.5 3.8
      vertex -9.46157056093216 -1.8901806473731995 3.8
      vertex -9.5 -1.5 3.8
    endloop
  endfacet
  facet normal 0 0 1
    outer loop
      vertex -11.5 -5.5 3.8
      vertex -8.265366867184639 -3.3477590680122375 3.8
      vertex -8.611140467226505 -3.162939228117466 3.8
    endloop
  endfacet
  facet normal 0 0 1
    outer loop
      vertex -11.5 -5.5 3.8
      vertex -8.611140467226505 -3.162939228117466 3.8
      vertex -8.914213560521603 -2.9142135605216026 3.8
    endloop
  endfacet
  facet normal 0 0 1
    outer loop
      vertex -11.5 -5.5 3.8
      vertex -8.914213560521603 -2.9142135605216026 3.8
      vertex -9.162939228117466 -2.6111404672265053 3.8
    endloop
  endfacet
  facet normal 0 0 1
    outer loop
      vertex -11.5 -5.5 3.8
      vertex -9.162939228117466 -2.6111404672265053 3.8
      vertex -9.347759068012238 -2.265366867184639 3.8
    endloop
  endfacet
  facet normal 0 0 1
    outer loop
      vertex -11.5 -5.5 3.8
      vertex -7.8901806473731995 -3.4615705609321594 3.8
      vertex -8.265366867184639 -3.3477590680122375 3.8
    endloop
  endfacet
  facet normal -1 0 0
    outer loop
      vertex -11.5 -5.5 -3.8
      vertex -11.5 -5.5 3.8
      vertex -11.5 5.5 3.8
    endloop
  endfacet
  facet normal 0 0 1
    outer loop
      vertex -11.5 -5.5 3.8
      vertex -9.5 -1.5 3.8
      vertex -11.5 5.5 3.8
    endloop
  endfacet
  facet normal 0 -1 0
    outer loop
      vertex -11.5 -5.5 -3.8
      vertex 11.5 -5.5 3.8
      vertex -11.5 -5.5 3.8
    endloop
  endfacet
  facet normal 0 0 1
    outer loop
      vertex -11.5 -5.5 3.8
      vertex 11.5 -5.5 3.8
      vertex -7.5 -3.5 3.8
    endloop
  endfacet
  facet normal 0 0 -1
    outer loop
      vertex -11.5 -5.5 -3.8
      vertex -11.5 5.5 -3.8
      vertex -9.5 1.5 -3.8
    endloop
  endfacet
  facet normal -1 0 0
    outer loop
      vertex -11.5 -5.5 -3.8
      vertex -11.5 5.5 3.8
      vertex -11.5 5.5 -3.8
    endloop
  endfacet
  facet normal 0 0 -1
    outer loop
      vertex -11.5 5.5 -3.8
      vertex -9.46157056093216 1.8901806473731995 -3.8
      vertex -9.5 1.5 -3.8
    endloop
  endfacet
  facet normal 0 0 -1
    outer loop
      vertex -11.5 5.5 -3.8
      vertex -9.347759068012238 2.265366867184639 -3.8
      vertex -9.46157056093216 1.8901806473731995 -3.8
    endloop
  endfacet
  facet normal 0 0 -1
    outer loop
      vertex -11.5 5.5 -3.8
      vertex -9.162939228117466 2.6111404672265053 -3.8
      vertex -9.347759068012238 2.265366867184639 -3.8
    endloop
  endfacet
  facet normal 0 0 -1
    outer loop
      vertex -11.5 5.5 -3.8
      vertex -8.914213560521603 2.9142135605216026 -3.8
      vertex -9.162939228117466 2.6111404672265053 -3.8
    endloop
  endfacet
  facet normal 0 0 -1
    outer loop
      vertex -11.5 5.5 -3.8
      vertex -8.611140467226505 3.162939228117466 -3.8
      vertex -8.914213560521603 2.9142135605216026 -3.8
    endloop
  endfacet
  facet normal 0 0 -1
    outer loop
      vertex -11.5 5.5 -3.8
      vertex -8.265366867184639 3.3477590680122375 -3.8
      vertex -8.611140467226505 3.162939228117466 -3.8
    endloop
  endfacet
  facet normal 0 0 -1
    outer loop
      vertex -11.5 5.5 -3.8
      vertex -7.8901806473731995 3.4615705609321594 -3.8
      vertex -8.265366867184639 3.3477590680122375 -3.8
    endloop
  endfacet
  facet normal 0 0 -1
    outer loop
      vertex -11.5 5.5 -3.8
      vertex -7.5 3.5 -3.8
      vertex -7.8901806473731995 3.4615705609321594 -3.8
    endloop
  endfacet
  facet normal 0 0 -1
    outer loop
      vertex -11.5 5.5 -3.8
      vertex 11.5 5.5 -3.8
      vertex -7.5 3.5 -3.8
    endloop
  endfacet
  facet normal 0 1 0
    outer loop
      vertex -11.5 5.5 -3.8
      vertex -11.5 5.5 3.8
      vertex 11.5 5.5 -3.8
    endloop
  endfacet
  facet normal 0 0 1
    outer loop
      vertex -11.5 5.5 3.8
      vertex -9.5 -1.5 3.8
      vertex -9.5 1.5 3.8
    endloop
  endfacet
  facet normal 0 0 1
    outer loop
      vertex -11.5 5.5 3.8
      vertex -9.5 1.5 3.8
      vertex -9.46157056093216 1.8901806473731995 3.8
    endloop
  endfacet
  facet normal 0 0 1
    outer loop
      vertex -11.5 5.5 3.8
      vertex -9.46157056093216 1.8901806473731995 3.8
      vertex -9.347759068012238 2.265366867184639 3.8
    endloop
  endfacet
  facet normal 0 0 1
    outer loop
      vertex -11.5 5.5 3.8
      vertex -9.347759068012238 2.265366867184639 3.8
      vertex -9.162939228117466 2.6111404672265053 3.8
    endloop
  endfacet
  facet normal 0 0 1
    outer loop
      vertex -11.5 5.5 3.8
      vertex -9.162939228117466 2.6111404672265053 3.8
      vertex -8.914213560521603 2.9142135605216026 3.8
    endloop
  endfacet
  facet normal 0 0 1
    outer loop
      vertex -11.5 5.5 3.8
      vertex -8.914213560521603 2.9142135605216026 3.8
      vertex -8.611140467226505 3.162939228117466 3.8
    endloop
  endfacet
  facet normal 0 0 1
    outer loop
      vertex -11.5 5.5 3.8
      vertex -8.611140467226505 3.162939228117466 3.8
      vertex -8.265366867184639 3.3477590680122375 3.8
    endloop
  endfacet
  facet normal 0 0 1
    outer loop
      vertex -11.5 5.5 3.8
      vertex -8.265366867184639 3.3477590680122375 3.8
      vertex -7.8901806473731995 3.4615705609321594 3.8
    endloop
  endfacet
  facet normal 0 0 1
    outer loop
      vertex -11.5 5.5 3.8
      vertex -7.8901806473731995 3.4615705609321594 3.8
      vertex -7.5 3.5 3.8
    endloop
  endfacet
  facet normal 0 0 1
    outer loop
      vertex -11.5 5.5 3.8
      vertex -7.5 3.5 3.8
      vertex 7.5 3.5 3.8
    endloop
  endfacet
  facet normal 0 0 -1
    outer loop
      vertex -11.5 -5.5 -3.8
      vertex 7.5 -3.5 -3.8
      vertex 11.5 -5.5 -3.8
    endloop
  endfacet
  facet normal 0 -1 0
    outer loop
      vertex -11.5 -5.5 -3.8
      vertex 11.5 -5.5 -3.8
      vertex 11.5 -5.5 3.8
    endloop
  endfacet
  facet normal 0 0 -1
    outer loop
      vertex 11.5 -5.5 -3.8
      vertex 7.5 -3.5 -3.8
      vertex 7.8901806473731995 -3.4615705609321594 -3.8
    endloop
  endfacet
  facet normal 0 0 -1
    outer loop
      vertex 11.5 -5.5 -3.8
      vertex 7.8901806473731995 -3.4615705609321594 -3.8
      vertex 8.265366867184639 -3.3477590680122375 -3.8
    endloop
  endfacet
  facet normal 0 0 -1
    outer loop
      vertex 11.5 -5.5 -3.8
      vertex 8.265366867184639 -3.3477590680122375 -3.8
      vertex 8.611140467226505 -3.162939228117466 -3.8
    endloop
  endfacet
  facet normal 0 0 -1
    outer loop
      vertex 11.5 -5.5 -3.8
      vertex 8.611140467226505 -3.162939228117466 -3.8
      vertex 8.914213560521603 -2.9142135605216026 -3.8
    endloop
  endfacet
  facet normal 0 0 -1
    outer loop
      vertex 11.5 -5.5 -3.8
      vertex 8.914213560521603 -2.9142135605216026 -3.8
      vertex 9.162939228117466 -2.6111404672265053 -3.8
    endloop
  endfacet
  facet normal 0 0 -1
    outer loop
      vertex 11.5 -5.5 -3.8
      vertex 9.162939228117466 -2.6111404672265053 -3.8
      vertex 9.347759068012238 -2.265366867184639 -3.8
    endloop
  endfacet
  facet normal 0 0 -1
    outer loop
      vertex 11.5 -5.5 -3.8
      vertex 9.347759068012238 -2.265366867184639 -3.8
      vertex 9.46157056093216 -1.8901806473731995 -3.8
    endloop
  endfacet
  facet normal 0 0 -1
    outer loop
      vertex 11.5 -5.5 -3.8
      vertex 9.46157056093216 -1.8901806473731995 -3.8
      vertex 9.5 -1.5 -3.8
    endloop
  endfacet
  facet normal 0 0 -1
    outer loop
      vertex 11.5 -5.5 -3.8
      vertex 9.5 -1.5 -3.8
      vertex 11.5 5.5 -3.8
    endloop
  endfacet
  facet normal 1 0 0
    outer loop
      vertex 11.5 -5.5 -3.8
      vertex 11.5 5.5 -3.8
      vertex 11.5 -5.5 3.8
    endloop
  endfacet
  facet normal 0 0 1
    outer loop
      vertex 11.5 -5.5 3.8
      vertex 7.5 -3.5 3.8
      vertex -7.5 -3.5 3.8
    endloop
  endfacet
  facet normal 0 0 1
    outer loop
      vertex 11.5 -5.5 3.8
      vertex 7.8901806473731995 -3.4615705609321594 3.8
      vertex 7.5 -3.5 3.8
    endloop
  endfacet
  facet normal 0 0 1
    outer loop
      vertex 11.5 -5.5 3.8
      vertex 8.265366867184639 -3.3477590680122375 3.8
      vertex 7.8901806473731995 -3.4615705609321594 3.8
    endloop
  endfacet
  facet normal 0 0 1
    outer loop
      vertex 11.5 -5.5 3.8
      vertex 8.611140467226505 -3.162939228117466 3.8
      vertex 8.265366867184639 -3.3477590680122375 3.8
    endloop
  endfacet
  facet normal 0 0 1
    outer loop
      vertex 11.5 -5.5 3.8
      vertex 8.914213560521603 -2.9142135605216026 3.8
      vertex 8.611140467226505 -3.162939228117466 3.8
    endloop
  endfacet
  facet normal 0 0 1
    outer loop
      vertex 11.5 -5.5 3.8
      vertex 9.162939228117466 -2.6111404672265053 3.8
      vertex 8.914213560521603 -2.9142135605216026 3.8
    endloop
  endfacet
  facet normal 0 0 1
    outer loop
      vertex 11.5 -5.5 3.8
      vertex 9.347759068012238 -2.265366867184639 3.8
      vertex 9.162939228117466 -2.6111404672265053 3.8
    endloop
  endfacet
  facet normal 0 0 1
    outer loop
      vertex 11.5 -5.5 3.8
      vertex 9.46157056093216 -1.8901806473731995 3.8
      vertex 9.347759068012238 -2.265366867184639 3.8
    endloop
  endfacet
  facet normal 0 0 1
    outer loop
      vertex 11.5 -5.5 3.8
      vertex 9.5 -1.5 3.8
      vertex 9.46157056093216 -1.8901806473731995 3.8
    endloop
  endfacet
  facet normal 0 0 1
    outer loop
      vertex 11.5 -5.5 3.8
      vertex 9.5 1.5 3.8
      vertex 9.5 -1.5 3.8
    endloop
  endfacet
  facet normal 0 0 -1
    outer loop
      vertex 11.5 5.5 -3.8
      vertex 7.5 3.5 -3.8
      vertex -7.5 3.5 -3.8
    endloop
  endfacet
  facet normal 0 0 -1
    outer loop
      vertex 11.5 5.5 -3.8
      vertex 9.5 -1.5 -3.8
      vertex 9.5 1.5 -3.8
    endloop
  endfacet
  facet normal 0 0 -1
    outer loop
      vertex 11.5 5.5 -3.8
      vertex 8.265366867184639 3.3477590680122375 -3.8
      vertex 7.8901806473731995 3.4615705609321594 -3.8
    endloop
  endfacet
  facet normal 0 0 -1
    outer loop
      vertex 11.5 5.5 -3.8
      vertex 9.347759068012238 2.265366867184639 -3.8
      vertex 9.162939228117466 2.6111404672265053 -3.8
    endloop
  endfacet
  facet normal 0 0 -1
    outer loop
      vertex 11.5 5.5 -3.8
      vertex 9.162939228117466 2.6111404672265053 -3.8
      vertex 8.914213560521603 2.9142135605216026 -3.8
    endloop
  endfacet
  facet normal 0 0 -1
    outer loop
      vertex 11.5 5.5 -3.8
      vertex 8.914213560521603 2.9142135605216026 -3.8
      vertex 8.611140467226505 3.162939228117466 -3.8
    endloop
  endfacet
  facet normal 0 0 -1
    outer loop
      vertex 11.5 5.5 -3.8
      vertex 8.611140467226505 3.162939228117466 -3.8
      vertex 8.265366867184639 3.3477590680122375 -3.8
    endloop
  endfacet
  facet normal 0 0 -1
    outer loop
      vertex 11.5 5.5 -3.8
      vertex 9.5 1.5 -3.8
      vertex 9.46157056093216 1.8901806473731995 -3.8
    endloop
  endfacet
  facet normal 0 0 -1
    outer loop
      vertex 11.5 5.5 -3.8
      vertex 9.46157056093216 1.8901806473731995 -3.8
      vertex 9.347759068012238 2.265366867184639 -3.8
    endloop
  endfacet
  facet normal 0 0 -1
    outer loop
      vertex 11.5 5.5 -3.8
      vertex 7.8901806473731995 3.4615705609321594 -3.8
      vertex 7.5 3.5 -3.8
    endloop
  endfacet
  facet normal 0 1 0
    outer loop
      vertex -11.5 5.5 3.8
      vertex 11.5 5.5 3.8
      vertex 11.5 5.5 -3.8
    endloop
  endfacet
  facet normal 0 0 1
    outer loop
      vertex -11.5 5.5 3.8
      vertex 7.5 3.5 3.8
      vertex 11.5 5.5 3.8
    endloop
  endfacet
  facet normal 1 0 0
    outer loop
      vertex 11.5 -5.5 3.8
      vertex 11.5 5.5 -3.8
      vertex 11.5 5.5 3.8
    endloop
  endfacet
  facet normal 0 0 1
    outer loop
      vertex 11.5 -5.5 3.8
      vertex 11.5 5.5 3.8
      vertex 9.5 1.5 3.8
    endloop
  endfacet
  facet normal 0 0 1
    outer loop
      vertex 11.5 5.5 3.8
      vertex 7.8901806473731995 3.4615705609321594 3.8
      vertex 8.265366867184639 3.3477590680122375 3.8
    endloop
  endfacet
  facet normal 0 0 1
    outer loop
      vertex 11.5 5.5 3.8
      vertex 9.162939228117466 2.6111404672265053 3.8
      vertex 9.347759068012238 2.265366867184639 3.8
    endloop
  endfacet
  facet normal 0 0 1
    outer loop
      vertex 11.5 5.5 3.8
      vertex 8.914213560521603 2.9142135605216026 3.8
      vertex 9.162939228117466 2.6111404672265053 3.8
    endloop
  endfacet
  facet normal 0 0 1
    outer loop
      vertex 11.5 5.5 3.8
      vertex 8.611140467226505 3.162939228117466 3.8
      vertex 8.914213560521603 2.9142135605216026 3.8
    endloop
  endfacet
  facet normal 0 0 1
    outer loop
      vertex 11.5 5.5 3.8
      vertex 8.265366867184639 3.3477590680122375 3.8
      vertex 8.611140467226505 3.162939228117466 3.8
    endloop
  endfacet
  facet normal 0 0 1
    outer loop
      vertex 11.5 5.5 3.8
      vertex 9.46157056093216 1.8901806473731995 3.8
      vertex 9.5 1.5 3.8
    endloop
  endfacet
  facet normal 0 0 1
    outer loop
      vertex 11.5 5.5 3.8
      vertex 9.347759068012238 2.265366867184639 3.8
      vertex 9.46157056093216 1.8901806473731995 3.8
    endloop
  endfacet
  facet normal 0 0 1
    outer loop
      vertex 11.5 5.5 3.8
      vertex 7.5 3.5 3.8
      vertex 7.8901806473731995 3.4615705609321594 3.8
    endloop
  endfacet
  facet normal 0.6343932961394977 0.7730104435344091 0
    outer loop
      vertex -8.914213560521603 -2.9142135605216026 3.8
      vertex -8.611140467226505 -3.162939228117466 -3.8
      vertex -8.914213560521603 -2.9142135605216026 -3.8
    endloop
  endfacet
  facet normal 0.09801713918082347 0.9951847267853375 0
    outer loop
      vertex -7.8901806473731995 -3.4615705609321594 3.8
      vertex -7.5 -3.5 -3.8
      vertex -7.8901806473731995 -3.4615705609321594 -3.8
    endloop
  endfacet
  facet normal 0.47139673713269076 0.8819212641844241 0
    outer loop
      vertex -8.611140467226505 -3.162939228117466 3.8
      vertex -8.265366867184639 -3.3477590680122375 -3.8
      vertex -8.611140467226505 -3.162939228117466 -3.8
    endloop
  endfacet
  facet normal 0.29028467119332607 0.9569403375708344 0
    outer loop
      vertex -8.265366867184639 -3.3477590680122375 3.8
      vertex -7.8901806473731995 -3.4615705609321594 -3.8
      vertex -8.265366867184639 -3.3477590680122375 -3.8
    endloop
  endfacet
  facet normal 0.7730104435344091 0.6343932961394977 0
    outer loop
      vertex -9.162939228117466 -2.6111404672265053 3.8
      vertex -8.914213560521603 -2.9142135605216026 -3.8
      vertex -9.162939228117466 -2.6111404672265053 -3.8
    endloop
  endfacet
  facet normal 0.8819212641844241 0.47139673713269076 0
    outer loop
      vertex -9.347759068012238 -2.265366867184639 3.8
      vertex -9.162939228117466 -2.6111404672265053 -3.8
      vertex -9.347759068012238 -2.265366867184639 -3.8
    endloop
  endfacet
  facet normal 0.9569403375708344 0.29028467119332607 0
    outer loop
      vertex -9.46157056093216 -1.8901806473731995 3.8
      vertex -9.347759068012238 -2.265366867184639 -3.8
      vertex -9.46157056093216 -1.8901806473731995 -3.8
    endloop
  endfacet
  facet normal 0.9951847267853375 0.09801713918082347 0
    outer loop
      vertex -9.5 -1.5 3.8
      vertex -9.46157056093216 -1.8901806473731995 -3.8
      vertex -9.5 -1.5 -3.8
    endloop
  endfacet
  facet normal 0 1 0
    outer loop
      vertex 7.5 -3.5 -3.8
      vertex -7.5 -3.5 -3.8
      vertex -7.5 -3.5 3.8
    endloop
  endfacet
  facet normal 0.7730104435344091 0.6343932961394977 0
    outer loop
      vertex -9.162939228117466 -2.6111404672265053 3.8
      vertex -8.914213560521603 -2.9142135605216026 3.8
      vertex -8.914213560521603 -2.9142135605216026 -3.8
    endloop
  endfacet
  facet normal 0.6343932961394977 0.7730104435344091 0
    outer loop
      vertex -8.914213560521603 -2.9142135605216026 3.8
      vertex -8.611140467226505 -3.162939228117466 3.8
      vertex -8.611140467226505 -3.162939228117466 -3.8
    endloop
  endfacet
  facet normal 0.09801713918082347 0.9951847267853375 0
    outer loop
      vertex -7.8901806473731995 -3.4615705609321594 3.8
      vertex -7.5 -3.5 3.8
      vertex -7.5 -3.5 -3.8
    endloop
  endfacet
  facet normal 0.47139673713269076 0.8819212641844241 0
    outer loop
      vertex -8.611140467226505 -3.162939228117466 3.8
      vertex -8.265366867184639 -3.3477590680122375 3.8
      vertex -8.265366867184639 -3.3477590680122375 -3.8
    endloop
  endfacet
  facet normal 0.29028467119332607 0.9569403375708344 0
    outer loop
      vertex -8.265366867184639 -3.3477590680122375 3.8
      vertex -7.8901806473731995 -3.4615705609321594 3.8
      vertex -7.8901806473731995 -3.4615705609321594 -3.8
    endloop
  endfacet
  facet normal 0.9569403375708344 0.29028467119332607 0
    outer loop
      vertex -9.46157056093216 -1.8901806473731995 3.8
      vertex -9.347759068012238 -2.265366867184639 3.8
      vertex -9.347759068012238 -2.265366867184639 -3.8
    endloop
  endfacet
  facet normal 0.8819212641844241 0.47139673713269076 0
    outer loop
      vertex -9.347759068012238 -2.265366867184639 3.8
      vertex -9.162939228117466 -2.6111404672265053 3.8
      vertex -9.162939228117466 -2.6111404672265053 -3.8
    endloop
  endfacet
  facet normal 0.9951847267853375 0.09801713918082347 0
    outer loop
      vertex -9.5 -1.5 3.8
      vertex -9.46157056093216 -1.8901806473731995 3.8
      vertex -9.46157056093216 -1.8901806473731995 -3.8
    endloop
  endfacet
  facet normal 1 0 0
    outer loop
      vertex -9.5 -1.5 3.8
      vertex -9.5 -1.5 -3.8
      vertex -9.5 1.5 3.8
    endloop
  endfacet
  facet normal 1 0 0
    outer loop
      vertex -9.5 1.5 3.8
      vertex -9.5 -1.5 -3.8
      vertex -9.5 1.5 -3.8
    endloop
  endfacet
  facet normal 0.9951847267853375 -0.09801713918082347 0
    outer loop
      vertex -9.46157056093216 1.8901806473731995 3.8
      vertex -9.5 1.5 -3.8
      vertex -9.46157056093216 1.8901806473731995 -3.8
    endloop
  endfacet
  facet normal 0.9569403375708344 -0.29028467119332607 0
    outer loop
      vertex -9.347759068012238 2.265366867184639 3.8
      vertex -9.46157056093216 1.8901806473731995 -3.8
      vertex -9.347759068012238 2.265366867184639 -3.8
    endloop
  endfacet
  facet normal 0.8819212641844241 -0.47139673713269076 0
    outer loop
      vertex -9.162939228117466 2.6111404672265053 3.8
      vertex -9.347759068012238 2.265366867184639 -3.8
      vertex -9.162939228117466 2.6111404672265053 -3.8
    endloop
  endfacet
  facet normal 0.7730104435344091 -0.6343932961394977 0
    outer loop
      vertex -8.914213560521603 2.9142135605216026 3.8
      vertex -9.162939228117466 2.6111404672265053 -3.8
      vertex -8.914213560521603 2.9142135605216026 -3.8
    endloop
  endfacet
  facet normal 0.6343932961394977 -0.7730104435344091 0
    outer loop
      vertex -8.611140467226505 3.162939228117466 3.8
      vertex -8.914213560521603 2.9142135605216026 -3.8
      vertex -8.611140467226505 3.162939228117466 -3.8
    endloop
  endfacet
  facet normal 0.47139673713269076 -0.8819212641844241 0
    outer loop
      vertex -8.265366867184639 3.3477590680122375 3.8
      vertex -8.611140467226505 3.162939228117466 -3.8
      vertex -8.265366867184639 3.3477590680122375 -3.8
    endloop
  endfacet
  facet normal 0.29028467119332607 -0.9569403375708344 0
    outer loop
      vertex -7.8901806473731995 3.4615705609321594 3.8
      vertex -8.265366867184639 3.3477590680122375 -3.8
      vertex -7.8901806473731995 3.4615705609321594 -3.8
    endloop
  endfacet
  facet normal 0.09801713918082347 -0.9951847267853375 0
    outer loop
      vertex -7.5 3.5 3.8
      vertex -7.8901806473731995 3.4615705609321594 -3.8
      vertex -7.5 3.5 -3.8
    endloop
  endfacet
  facet normal 0.9951847267853375 -0.09801713918082347 0
    outer loop
      vertex -9.46157056093216 1.8901806473731995 3.8
      vertex -9.5 1.5 3.8
      vertex -9.5 1.5 -3.8
    endloop
  endfacet
  facet normal 0.9569403375708344 -0.29028467119332607 0
    outer loop
      vertex -9.347759068012238 2.265366867184639 3.8
      vertex -9.46157056093216 1.8901806473731995 3.8
      vertex -9.46157056093216 1.8901806473731995 -3.8
    endloop
  endfacet
  facet normal 0.8819212641844241 -0.47139673713269076 0
    outer loop
      vertex -9.162939228117466 2.6111404672265053 3.8
      vertex -9.347759068012238 2.265366867184639 3.8
      vertex -9.347759068012238 2.265366867184639 -3.8
    endloop
  endfacet
  facet normal 0.7730104435344091 -0.6343932961394977 0
    outer loop
      vertex -8.914213560521603 2.9142135605216026 3.8
      vertex -9.162939228117466 2.6111404672265053 3.8
      vertex -9.162939228117466 2.6111404672265053 -3.8
    endloop
  endfacet
  facet normal 0.6343932961394977 -0.7730104435344091 0
    outer loop
      vertex -8.611140467226505 3.162939228117466 3.8
      vertex -8.914213560521603 2.9142135605216026 3.8
      vertex -8.914213560521603 2.9142135605216026 -3.8
    endloop
  endfacet
  facet normal 0.47139673713269076 -0.8819212641844241 0
    outer loop
      vertex -8.265366867184639 3.3477590680122375 3.8
      vertex -8.611140467226505 3.162939228117466 3.8
      vertex -8.611140467226505 3.162939228117466 -3.8
    endloop
  endfacet
  facet normal 0.29028467119332607 -0.9569403375708344 0
    outer loop
      vertex -7.8901806473731995 3.4615705609321594 3.8
      vertex -8.265366867184639 3.3477590680122375 3.8
      vertex -8.265366867184639 3.3477590680122375 -3.8
    endloop
  endfacet
  facet normal 0.09801713918082347 -0.9951847267853375 0
    outer loop
      vertex -7.5 3.5 3.8
      vertex -7.8901806473731995 3.4615705609321594 3.8
      vertex -7.8901806473731995 3.4615705609321594 -3.8
    endloop
  endfacet
  facet normal 0 -1 0
    outer loop
      vertex 7.5 3.5 3.8
      vertex -7.5 3.5 3.8
      vertex -7.5 3.5 -3.8
    endloop
  endfacet
  facet normal -0.09801713918082347 0.9951847267853375 0
    outer loop
      vertex 7.8901806473731995 -3.4615705609321594 -3.8
      vertex 7.5 -3.5 -3.8
      vertex 7.5 -3.5 3.8
    endloop
  endfacet
  facet normal -0.29028467119332607 0.9569403375708344 0
    outer loop
      vertex 8.265366867184639 -3.3477590680122375 -3.8
      vertex 7.8901806473731995 -3.4615705609321594 -3.8
      vertex 7.8901806473731995 -3.4615705609321594 3.8
    endloop
  endfacet
  facet normal -0.47139673713269076 0.8819212641844241 0
    outer loop
      vertex 8.611140467226505 -3.162939228117466 -3.8
      vertex 8.265366867184639 -3.3477590680122375 -3.8
      vertex 8.265366867184639 -3.3477590680122375 3.8
    endloop
  endfacet
  facet normal -0.6343932961394977 0.7730104435344091 0
    outer loop
      vertex 8.914213560521603 -2.9142135605216026 -3.8
      vertex 8.611140467226505 -3.162939228117466 -3.8
      vertex 8.611140467226505 -3.162939228117466 3.8
    endloop
  endfacet
  facet normal -0.7730104435344091 0.6343932961394977 0
    outer loop
      vertex 9.162939228117466 -2.6111404672265053 -3.8
      vertex 8.914213560521603 -2.9142135605216026 -3.8
      vertex 8.914213560521603 -2.9142135605216026 3.8
    endloop
  endfacet
  facet normal -0.8819212641844241 0.47139673713269076 0
    outer loop
      vertex 9.347759068012238 -2.265366867184639 -3.8
      vertex 9.162939228117466 -2.6111404672265053 -3.8
      vertex 9.162939228117466 -2.6111404672265053 3.8
    endloop
  endfacet
  facet normal -0.9569403375708344 0.29028467119332607 0
    outer loop
      vertex 9.46157056093216 -1.8901806473731995 -3.8
      vertex 9.347759068012238 -2.265366867184639 -3.8
      vertex 9.347759068012238 -2.265366867184639 3.8
    endloop
  endfacet
  facet normal -0.9951847267853375 0.09801713918082347 0
    outer loop
      vertex 9.5 -1.5 -3.8
      vertex 9.46157056093216 -1.8901806473731995 -3.8
      vertex 9.46157056093216 -1.8901806473731995 3.8
    endloop
  endfacet
  facet normal -1 0 0
    outer loop
      vertex 9.5 -1.5 -3.8
      vertex 9.5 -1.5 3.8
      vertex 9.5 1.5 -3.8
    endloop
  endfacet
  facet normal 0 1 0
    outer loop
      vertex -7.5 -3.5 3.8
      vertex 7.5 -3.5 3.8
      vertex 7.5 -3.5 -3.8
    endloop
  endfacet
  facet normal -0.09801713918082347 0.9951847267853375 0
    outer loop
      vertex 7.8901806473731995 -3.4615705609321594 -3.8
      vertex 7.5 -3.5 3.8
      vertex 7.8901806473731995 -3.4615705609321594 3.8
    endloop
  endfacet
  facet normal -0.29028467119332607 0.9569403375708344 0
    outer loop
      vertex 8.265366867184639 -3.3477590680122375 -3.8
      vertex 7.8901806473731995 -3.4615705609321594 3.8
      vertex 8.265366867184639 -3.3477590680122375 3.8
    endloop
  endfacet
  facet normal -0.47139673713269076 0.8819212641844241 0
    outer loop
      vertex 8.611140467226505 -3.162939228117466 -3.8
      vertex 8.265366867184639 -3.3477590680122375 3.8
      vertex 8.611140467226505 -3.162939228117466 3.8
    endloop
  endfacet
  facet normal -0.6343932961394977 0.7730104435344091 0
    outer loop
      vertex 8.914213560521603 -2.9142135605216026 -3.8
      vertex 8.611140467226505 -3.162939228117466 3.8
      vertex 8.914213560521603 -2.9142135605216026 3.8
    endloop
  endfacet
  facet normal -0.7730104435344091 0.6343932961394977 0
    outer loop
      vertex 9.162939228117466 -2.6111404672265053 -3.8
      vertex 8.914213560521603 -2.9142135605216026 3.8
      vertex 9.162939228117466 -2.6111404672265053 3.8
    endloop
  endfacet
  facet normal -0.8819212641844241 0.47139673713269076 0
    outer loop
      vertex 9.347759068012238 -2.265366867184639 -3.8
      vertex 9.162939228117466 -2.6111404672265053 3.8
      vertex 9.347759068012238 -2.265366867184639 3.8
    endloop
  endfacet
  facet normal -0.9569403375708344 0.29028467119332607 0
    outer loop
      vertex 9.46157056093216 -1.8901806473731995 -3.8
      vertex 9.347759068012238 -2.265366867184639 3.8
      vertex 9.46157056093216 -1.8901806473731995 3.8
    endloop
  endfacet
  facet normal -0.9951847267853375 0.09801713918082347 0
    outer loop
      vertex 9.5 -1.5 -3.8
      vertex 9.46157056093216 -1.8901806473731995 3.8
      vertex 9.5 -1.5 3.8
    endloop
  endfacet
  facet normal 0 -1 0
    outer loop
      vertex -7.5 3.5 -3.8
      vertex 7.5 3.5 -3.8
      vertex 7.5 3.5 3.8
    endloop
  endfacet
  facet normal -0.9951847267853375 -0.09801713918082347 0
    outer loop
      vertex 9.46157056093216 1.8901806473731995 -3.8
      vertex 9.5 1.5 -3.8
      vertex 9.5 1.5 3.8
    endloop
  endfacet
  facet normal -0.9569403375708344 -0.29028467119332607 0
    outer loop
      vertex 9.347759068012238 2.265366867184639 -3.8
      vertex 9.46157056093216 1.8901806473731995 -3.8
      vertex 9.46157056093216 1.8901806473731995 3.8
    endloop
  endfacet
  facet normal -0.8819212641844241 -0.47139673713269076 0
    outer loop
      vertex 9.162939228117466 2.6111404672265053 -3.8
      vertex 9.347759068012238 2.265366867184639 -3.8
      vertex 9.347759068012238 2.265366867184639 3.8
    endloop
  endfacet
  facet normal -0.7730104435344091 -0.6343932961394977 0
    outer loop
      vertex 8.914213560521603 2.9142135605216026 -3.8
      vertex 9.162939228117466 2.6111404672265053 -3.8
      vertex 9.162939228117466 2.6111404672265053 3.8
    endloop
  endfacet
  facet normal -0.29028467119332607 -0.9569403375708344 0
    outer loop
      vertex 7.8901806473731995 3.4615705609321594 -3.8
      vertex 8.265366867184639 3.3477590680122375 -3.8
      vertex 8.265366867184639 3.3477590680122375 3.8
    endloop
  endfacet
  facet normal -0.47139673713269076 -0.8819212641844241 0
    outer loop
      vertex 8.265366867184639 3.3477590680122375 -3.8
      vertex 8.611140467226505 3.162939228117466 -3.8
      vertex 8.611140467226505 3.162939228117466 3.8
    endloop
  endfacet
  facet normal -0.09801713918082347 -0.9951847267853375 0
    outer loop
      vertex 7.5 3.5 -3.8
      vertex 7.8901806473731995 3.4615705609321594 -3.8
      vertex 7.8901806473731995 3.4615705609321594 3.8
    endloop
  endfacet
  facet normal -0.6343932961394977 -0.7730104435344091 0
    outer loop
      vertex 8.611140467226505 3.162939228117466 -3.8
      vertex 8.914213560521603 2.9142135605216026 -3.8
      vertex 8.914213560521603 2.9142135605216026 3.8
    endloop
  endfacet
  facet normal -1 0 0
    outer loop
      vertex 9.5 1.5 3.8
      vertex 9.5 1.5 -3.8
      vertex 9.5 -1.5 3.8
    endloop
  endfacet
  facet normal -0.9951847267853375 -0.09801713918082347 0
    outer loop
      vertex 9.46157056093216 1.8901806473731995 -3.8
      vertex 9.5 1.5 3.8
      vertex 9.46157056093216 1.8901806473731995 3.8
    endloop
  endfacet
  facet normal -0.8819212641844241 -0.47139673713269076 0
    outer loop
      vertex 9.162939228117466 2.6111404672265053 -3.8
      vertex 9.347759068012238 2.265366867184639 3.8
      vertex 9.162939228117466 2.6111404672265053 3.8
    endloop
  endfacet
  facet normal -0.9569403375708344 -0.29028467119332607 0
    outer loop
      vertex 9.347759068012238 2.265366867184639 -3.8
      vertex 9.46157056093216 1.8901806473731995 3.8
      vertex 9.347759068012238 2.265366867184639 3.8
    endloop
  endfacet
  facet normal -0.29028467119332607 -0.9569403375708344 0
    outer loop
      vertex 7.8901806473731995 3.4615705609321594 -3.8
      vertex 8.265366867184639 3.3477590680122375 3.8
      vertex 7.8901806473731995 3.4615705609321594 3.8
    endloop
  endfacet
  facet normal -0.47139673713269076 -0.8819212641844241 0
    outer loop
      vertex 8.265366867184639 3.3477590680122375 -3.8
      vertex 8.611140467226505 3.162939228117466 3.8
      vertex 8.265366867184639 3.3477590680122375 3.8
    endloop
  endfacet
  facet normal -0.09801713918082347 -0.9951847267853375 0
    outer loop
      vertex 7.5 3.5 -3.8
      vertex 7.8901806473731995 3.4615705609321594 3.8
      vertex 7.5 3.5 3.8
    endloop
  endfacet
  facet normal -0.6343932961394977 -0.7730104435344091 0
    outer loop
      vertex 8.611140467226505 3.162939228117466 -3.8
      vertex 8.914213560521603 2.9142135605216026 3.8
      vertex 8.611140467226505 3.162939228117466 3.8
    endloop
  endfacet
  facet normal -0.7730104435344091 -0.6343932961394977 0
    outer loop
      vertex 8.914213560521603 2.9142135605216026 -3.8
      vertex 9.162939228117466 2.6111404672265053 3.8
      vertex 8.914213560521603 2.9142135605216026 3.8
    endloop
  endfacet
endsolid OpenSCAD_Model
