# Blender 4.2.1 LTS
# www.blender.org
mtllib brick.mtl
o brick
v -1.500000 -5.750000 -2.300000
v 0.000000 -4.181818 -2.300000
v 0.000000 -5.750000 -2.300000
v -1.500000 -4.181818 -2.300000
v -1.500000 4.181818 -2.300000
v -1.500000 5.750000 -2.300000
v 0.000000 4.181818 -2.300000
v 0.000000 5.750000 -2.300000
v 10.000000 -5.750000 -2.300000
v 11.500000 -4.181818 -2.300000
v 11.500000 -5.750000 -2.300000
v 10.000000 -4.181818 -2.300000
v -11.500000 4.181818 -2.300000
v -10.000000 5.750000 -2.300000
v -10.000000 4.181818 -2.300000
v -11.500000 5.750000 -2.300000
v 10.000000 4.181818 -2.300000
v 10.000000 5.750000 -2.300000
v 11.500000 4.181818 -2.300000
v 11.500000 5.750000 -2.300000
v -11.500000 -5.750000 -2.300000
v -11.500000 -4.181818 -2.300000
v -10.000000 -5.750000 -2.300000
v -10.000000 -4.181818 -2.300000
v 1.500000 5.750000 -2.300000
v 1.500000 4.181818 -2.300000
v 1.500000 -5.750000 -2.300000
v 1.500000 -4.181818 -2.300000
v 10.000000 -5.750000 3.800000
v 11.500000 -5.750000 3.800000
v 10.000000 -5.750000 5.300000
v 11.500000 -5.750000 5.300000
v 11.500000 -4.181818 5.300000
v 11.500000 -4.181818 3.800000
v 10.000000 -4.181818 5.300000
v -11.500000 4.181818 3.800000
v -11.500000 4.181818 5.300000
v -11.500000 5.750000 3.800000
v -10.000000 4.181818 5.300000
v -10.000000 5.750000 5.300000
v -10.000000 5.750000 3.800000
v -11.500000 5.750000 5.300000
v 11.500000 4.181818 3.800000
v 11.500000 5.750000 3.800000
v 11.500000 4.181818 5.300000
v 10.000000 4.181818 5.300000
v 10.000000 5.750000 5.300000
v 10.000000 5.750000 3.800000
v 11.500000 5.750000 5.300000
v -11.500000 -5.750000 3.800000
v -10.000000 -5.750000 3.800000
v -10.000000 -5.750000 5.300000
v -11.500000 -5.750000 5.300000
v -11.500000 -4.181818 5.300000
v -11.500000 -4.181818 3.800000
v -10.000000 -4.181818 5.300000
v -1.500000 -4.181818 -3.800000
v -1.500000 -3.659091 -3.800000
v -1.500000 -3.659091 -2.800000
v 0.000000 -3.659091 -2.800000
v -3.000000 4.181818 -3.800000
v -1.500000 4.181818 -3.800000
v -3.000000 5.750000 -3.800000
v 10.000000 -4.181818 -3.800000
v 10.000000 -2.613636 -3.800000
v 11.500000 -2.613636 -3.800000
v -11.500000 2.613636 -3.800000
v -10.000000 2.613636 -3.800000
v -10.000000 4.181818 -3.800000
v 8.500000 4.181818 -3.800000
v 10.000000 4.181818 -3.800000
v 8.500000 5.750000 -3.800000
v -8.500000 -5.750000 -3.800000
v -8.500000 -4.181818 -3.800000
v -10.000000 -4.181818 -3.800000
v 1.500000 3.659091 -3.800000
v 1.500000 3.659091 -2.800000
v 1.500000 4.181818 -3.800000
v 0.000000 3.659091 -2.800000
v 3.000000 -5.750000 -3.800000
v 3.000000 -4.181818 -3.800000
v 1.500000 -4.181818 -3.800000
v 10.000000 -4.181818 3.800000
v 10.000000 -2.613636 3.800000
v 11.500000 -2.613636 3.800000
v -11.500000 2.613636 3.800000
v -10.000000 2.613636 3.800000
v -10.000000 4.181818 3.800000
v 8.500000 4.181818 3.800000
v 10.000000 4.181818 3.800000
v 8.500000 5.750000 3.800000
v -8.500000 -5.750000 3.800000
v -8.500000 -4.181818 3.800000
v -10.000000 -4.181818 3.800000
v -3.000000 -5.750000 -3.800000
v -3.000000 -4.181818 -3.800000
v -1.500000 3.659091 -3.800000
v -1.500000 3.659091 -2.800000
v 8.500000 -5.750000 -3.800000
v 8.500000 -4.181818 -3.800000
v -8.500000 4.181818 -3.800000
v -8.500000 5.750000 -3.800000
v 10.000000 2.613636 -3.800000
v 11.500000 2.613636 -3.800000
v -10.000000 -2.613636 -3.800000
v -11.500000 -2.613636 -3.800000
v 3.000000 4.181818 -3.800000
v 3.000000 5.750000 -3.800000
v 1.500000 -3.659091 -2.800000
v 1.500000 -3.659091 -3.800000
v 8.500000 -5.750000 3.800000
v 8.500000 -4.181818 3.800000
v -8.500000 4.181818 3.800000
v -8.500000 5.750000 3.800000
v 10.000000 2.613636 3.800000
v 11.500000 2.613636 3.800000
v -11.500000 -2.613636 3.800000
v -10.000000 -2.613636 3.800000
v -8.611140 -3.306709 -3.800000
v -9.162939 -2.729829 -3.800000
v -8.914213 -3.046678 -3.800000
v -7.500000 -3.659091 -3.800000
v -8.265367 -3.499930 -3.800000
v -7.890181 -3.618914 -3.800000
v -9.347759 -2.368338 -3.800000
v -9.461571 -1.976098 -3.800000
v -9.500000 -1.568182 -3.800000
v -3.000000 -5.750000 3.800000
v -8.914213 -3.046678 3.800000
v -9.162939 -2.729829 3.800000
v -9.461571 -1.976098 3.800000
v -9.347759 -2.368338 3.800000
v -8.611140 -3.306709 3.800000
v -7.500000 -3.659091 3.800000
v -8.265367 -3.499930 3.800000
v -7.890181 -3.618914 3.800000
v -9.500000 -1.568182 3.800000
v -1.500000 -5.750000 3.800000
v 0.000000 -5.750000 3.800000
v 1.500000 -5.750000 3.800000
v 3.000000 -5.750000 3.800000
v -3.000000 -4.181818 3.800000
v -1.500000 -4.181818 3.800000
v 7.500000 -3.659091 3.800000
v -9.500000 1.568182 -3.800000
v -9.461571 1.976098 -3.800000
v -9.347759 2.368338 -3.800000
v -9.162939 2.729829 -3.800000
v -8.914213 3.046678 -3.800000
v -8.611140 3.306709 -3.800000
v -8.265367 3.499930 -3.800000
v -7.890181 3.618914 -3.800000
v -7.500000 3.659091 -3.800000
v -9.500000 1.568182 3.800000
v -9.461571 1.976098 3.800000
v -9.347759 2.368338 3.800000
v -9.162939 2.729829 3.800000
v -8.914213 3.046678 3.800000
v -8.611140 3.306709 3.800000
v -8.265367 3.499930 3.800000
v -7.890181 3.618914 3.800000
v -7.500000 3.659091 3.800000
v -3.000000 5.750000 3.800000
v -3.000000 4.181818 3.800000
v 7.500000 3.659091 3.800000
v 7.500000 -3.659091 -3.800000
v 7.890181 -3.618914 -3.800000
v 8.265367 -3.499930 -3.800000
v 8.611140 -3.306709 -3.800000
v 8.914213 -3.046678 -3.800000
v 9.162939 -2.729829 -3.800000
v 9.347759 -2.368338 -3.800000
v 9.461571 -1.976098 -3.800000
v 9.500000 -1.568182 -3.800000
v 9.500000 1.568182 -3.800000
v 0.000000 -4.181818 3.800000
v 3.000000 -4.181818 3.800000
v 1.500000 -4.181818 3.800000
v 7.890181 -3.618914 3.800000
v 8.265367 -3.499930 3.800000
v 8.611140 -3.306709 3.800000
v 8.914213 -3.046678 3.800000
v 9.162939 -2.729829 3.800000
v 9.347759 -2.368338 3.800000
v 9.461571 -1.976098 3.800000
v 9.500000 -1.568182 3.800000
v 9.500000 1.568182 3.800000
v 7.500000 3.659091 -3.800000
v 9.461571 1.976098 -3.800000
v 9.347759 2.368338 -3.800000
v 9.162939 2.729829 -3.800000
v 8.265367 3.499930 -3.800000
v 7.890181 3.618914 -3.800000
v 8.611140 3.306709 -3.800000
v 8.914213 3.046678 -3.800000
v -1.500000 5.750000 3.800000
v 0.000000 5.750000 3.800000
v 1.500000 5.750000 3.800000
v 3.000000 5.750000 3.800000
v -1.500000 4.181818 3.800000
v 0.000000 4.181818 3.800000
v 1.500000 4.181818 3.800000
v 3.000000 4.181818 3.800000
v 9.461571 1.976098 3.800000
v 9.347759 2.368338 3.800000
v 8.265367 3.499930 3.800000
v 7.890181 3.618914 3.800000
v 8.611140 3.306709 3.800000
v 8.914213 3.046678 3.800000
v 9.162939 2.729829 3.800000
v 0.000000 -5.750000 5.300000
v -1.500000 -5.750000 5.300000
v -1.500000 -4.181818 5.300000
v 0.000000 -4.181818 5.300000
v 0.000000 4.181818 5.300000
v -1.500000 4.181818 5.300000
v -1.500000 5.750000 5.300000
v 0.000000 5.750000 5.300000
v 1.500000 4.181818 5.300000
v 1.500000 5.750000 5.300000
v 1.500000 -5.750000 5.300000
v 1.500000 -4.181818 5.300000
vn -0.0000 -0.0000 -1.0000
vn -0.0000 -1.0000 -0.0000
vn 1.0000 -0.0000 -0.0000
vn -0.0000 -0.0000 1.0000
vn -1.0000 -0.0000 -0.0000
vn -0.0000 1.0000 -0.0000
vn -0.0000 -0.6912 -0.7226
vn 0.7071 -0.0000 -0.7071
vn -0.0000 0.6912 -0.7226
vn -0.7071 -0.0000 -0.7071
vn -0.0000 0.6912 0.7226
vn -0.0000 -0.6912 0.7226
vn -0.7071 -0.0000 0.7071
vn 0.7071 -0.0000 0.7071
vn 0.6512 0.7589 -0.0000
vn 0.1024 0.9947 -0.0000
vn 0.4878 0.8730 -0.0000
vn 0.4878 0.8729 -0.0000
vn 0.3023 0.9532 -0.0000
vn 0.7866 0.6175 -0.0000
vn 0.8904 0.4552 -0.0000
vn 0.9604 0.2787 -0.0000
vn 0.9956 0.0938 -0.0000
vn 0.9956 -0.0938 -0.0000
vn 0.9604 -0.2787 -0.0000
vn 0.8904 -0.4552 -0.0000
vn 0.7866 -0.6175 -0.0000
vn 0.6512 -0.7589 -0.0000
vn 0.4878 -0.8729 -0.0000
vn 0.4878 -0.8730 -0.0000
vn 0.3023 -0.9532 -0.0000
vn 0.1024 -0.9947 -0.0000
vn -0.1024 0.9947 -0.0000
vn -0.3023 0.9532 -0.0000
vn -0.4878 0.8729 -0.0000
vn -0.4878 0.8730 -0.0000
vn -0.6512 0.7589 -0.0000
vn -0.7866 0.6175 -0.0000
vn -0.8904 0.4552 -0.0000
vn -0.9604 0.2787 -0.0000
vn -0.9956 0.0938 -0.0000
vn -0.9956 -0.0938 -0.0000
vn -0.9604 -0.2787 -0.0000
vn -0.8904 -0.4552 -0.0000
vn -0.7866 -0.6175 -0.0000
vn -0.3023 -0.9532 -0.0000
vn -0.4878 -0.8730 -0.0000
vn -0.4878 -0.8729 -0.0000
vn -0.1024 -0.9947 -0.0000
vn -0.6512 -0.7589 -0.0000
vt 0.433395 0.260870
vt 0.498613 0.326087
vt 0.498613 0.260870
vt 0.433395 0.326087
vt 0.433395 0.673913
vt 0.433395 0.739130
vt 0.498613 0.673913
vt 0.498613 0.739130
vt 0.933395 0.260870
vt 0.998613 0.326087
vt 0.998613 0.260870
vt 0.933395 0.326087
vt -0.001387 0.673913
vt 0.063830 0.739130
vt 0.063830 0.673913
vt -0.001387 0.739130
vt 0.933395 0.673913
vt 0.933395 0.739130
vt 0.998613 0.673913
vt 0.998613 0.739130
vt -0.001387 0.260870
vt -0.001387 0.326087
vt 0.063830 0.260870
vt 0.063830 0.326087
vt 0.563830 0.739130
vt 0.563830 0.673913
vt 0.563830 0.260870
vt 0.563830 0.326087
vt 0.933395 0.640554
vt 0.998613 0.640554
vt 0.933395 0.705771
vt 0.998613 0.705771
vt 0.260870 0.640554
vt 0.326087 0.705771
vt 0.260870 0.705771
vt 0.326087 0.640554
vt 0.673913 0.640554
vt 0.673913 0.705771
vt 0.739130 0.640554
vt -0.001387 0.640554
vt 0.063830 0.705771
vt 0.063830 0.640554
vt 0.739130 0.705771
vt -0.001387 0.705771
vt 0.326087 0.310119
vt 0.347826 0.310119
vt 0.347826 0.353597
vt 0.326087 0.375336
vt 0.433395 0.347826
vt 0.498613 0.347826
vt 0.368178 0.310119
vt 0.433395 0.375336
vt 0.433395 0.310119
vt 0.368178 0.673913
vt 0.368178 0.739130
vt 0.391304 0.310119
vt 0.998613 0.391304
vt 0.933395 0.391304
vt -0.001387 0.608696
vt 0.063830 0.608696
vt 0.608696 0.310119
vt 0.673913 0.375336
vt 0.673913 0.310119
vt 0.868178 0.310119
vt 0.933395 0.375336
vt 0.933395 0.310119
vt 0.868178 0.673913
vt 0.868178 0.739130
vt 0.129048 0.260870
vt 0.129048 0.326087
vt 0.063830 0.310119
vt 0.129048 0.310119
vt 0.063830 0.375336
vt 0.652174 0.310119
vt 0.652174 0.353597
vt 0.498613 0.652174
vt 0.563830 0.652174
vt 0.629048 0.260870
vt 0.629048 0.326087
vt 0.563830 0.310119
vt 0.629048 0.310119
vt 0.563830 0.375336
vt 0.391304 0.640554
vt 0.608696 0.640554
vt 0.868178 0.640554
vt 0.129048 0.640554
vt 0.368178 0.260870
vt 0.368178 0.326087
vt 0.433395 0.652174
vt 0.868178 0.260870
vt 0.868178 0.326087
vt 0.129048 0.673913
vt 0.129048 0.739130
vt 0.933395 0.608696
vt 0.998613 0.608696
vt 0.063830 0.391304
vt -0.001387 0.391304
vt 0.629048 0.673913
vt 0.629048 0.739130
vt 0.563830 0.347826
vt 0.124215 0.362481
vt 0.100224 0.386472
vt 0.111038 0.373295
vt 0.172526 0.347826
vt 0.139249 0.354445
vt 0.155561 0.349497
vt -0.001387 0.375336
vt 0.260870 0.375336
vt 0.092188 0.401506
vt 0.087240 0.417818
vt 0.085569 0.434783
vt 0.368178 0.640554
vt 0.433395 0.640554
vt 0.498613 0.640554
vt 0.563830 0.640554
vt 0.629048 0.640554
vt 0.824700 0.347826
vt 0.085569 0.565217
vt 0.087240 0.582182
vt 0.092188 0.598494
vt 0.100224 0.613528
vt 0.111038 0.626705
vt 0.124215 0.637519
vt 0.139249 0.645555
vt 0.155561 0.650503
vt 0.172526 0.652174
vt 0.739130 0.375336
vt 0.498613 0.375336
vt 0.824700 0.652174
vt 0.841664 0.349497
vt 0.857976 0.354445
vt 0.873010 0.362481
vt 0.886187 0.373295
vt 0.897001 0.386472
vt 0.998613 0.375336
vt 0.905037 0.401506
vt 0.909985 0.417818
vt 0.911656 0.434783
vt 0.911656 0.565217
vt 0.909985 0.582182
vt 0.905037 0.598494
vt 0.897001 0.613528
vt 0.857976 0.645555
vt 0.841664 0.650503
vt 0.873010 0.637519
vt 0.886187 0.626705
vt 0.111038 0.310119
vt 0.111038 0.640554
vt 0.124215 0.310119
vt 0.155561 0.310119
vt 0.155561 0.640554
vt 0.172526 0.310119
vt 0.124215 0.640554
vt 0.139249 0.310119
vt 0.139249 0.640554
vt 0.373295 0.310119
vt 0.386472 0.310119
vt 0.386472 0.640554
vt 0.401506 0.310119
vt 0.401506 0.640554
vt 0.417818 0.310119
vt 0.417818 0.640554
vt 0.434783 0.310119
vt 0.434783 0.640554
vt 0.433395 0.353597
vt 0.172526 0.640554
vt 0.498613 0.353597
vt 0.563830 0.353597
vt 0.373295 0.640554
vt 0.565217 0.640554
vt 0.565217 0.310119
vt 0.582182 0.310119
vt 0.582182 0.640554
vt 0.598494 0.310119
vt 0.598494 0.640554
vt 0.613528 0.310119
vt 0.613528 0.640554
vt 0.626705 0.310119
vt 0.626705 0.640554
vt 0.824700 0.640554
vt 0.824700 0.310119
vt 0.841664 0.310119
vt 0.841664 0.640554
vt 0.857976 0.310119
vt 0.857976 0.640554
vt 0.873010 0.310119
vt 0.873010 0.640554
vt 0.886187 0.310119
vt 0.886187 0.640554
vt 0.498613 0.705771
vt 0.433395 0.705771
vt 0.563830 0.705771
s 1
f 1/1/1 2/2/1 3/3/1
f 1/1/1 4/4/1 2/2/1
f 5/5/1 6/6/1 7/7/1
f 6/6/1 8/8/1 7/7/1
f 9/9/1 10/10/1 11/11/1
f 9/9/1 12/12/1 10/10/1
f 13/13/1 14/14/1 15/15/1
f 13/13/1 16/16/1 14/14/1
f 17/17/1 18/18/1 19/19/1
f 19/19/1 18/18/1 20/20/1
f 21/21/1 22/22/1 23/23/1
f 23/23/1 22/22/1 24/24/1
f 7/7/1 25/25/1 26/26/1
f 7/7/1 8/8/1 25/25/1
f 3/3/1 2/2/1 27/27/1
f 27/27/1 2/2/1 28/28/1
f 29/29/2 30/30/2 31/31/2
f 30/30/2 32/32/2 31/31/2
f 30/33/3 33/34/3 32/35/3
f 31/9/4 32/11/4 33/10/4
f 30/33/3 34/36/3 33/34/3
f 31/9/4 33/10/4 35/12/4
f 36/37/5 37/38/5 38/39/5
f 37/13/4 39/15/4 40/14/4
f 38/40/6 40/41/6 41/42/6
f 37/38/5 42/43/5 38/39/5
f 37/13/4 40/14/4 42/16/4
f 38/40/6 42/44/6 40/41/6
f 43/37/3 44/39/3 45/38/3
f 46/17/4 45/19/4 47/18/4
f 48/29/6 47/31/6 44/30/6
f 45/38/3 44/39/3 49/43/3
f 45/19/4 49/20/4 47/18/4
f 44/30/6 47/31/6 49/32/6
f 50/40/2 51/42/2 52/41/2
f 50/40/2 52/41/2 53/44/2
f 50/33/5 53/35/5 54/34/5
f 53/21/4 52/23/4 54/22/4
f 50/33/5 54/34/5 55/36/5
f 52/23/4 56/24/4 54/22/4
f 57/45/3 58/46/3 59/47/3
f 57/45/3 59/47/3 4/48/3
f 59/49/7 60/50/7 4/4/7
f 4/4/7 60/50/7 2/2/7
f 61/51/6 5/52/6 62/53/6
f 61/54/8 63/55/8 5/5/8
f 63/55/8 6/6/8 5/5/8
f 64/45/3 65/56/3 12/48/3
f 12/12/7 66/57/7 10/10/7
f 12/12/7 65/58/7 66/57/7
f 67/59/9 15/15/9 68/60/9
f 67/59/9 13/13/9 15/15/9
f 68/61/5 15/62/5 69/63/5
f 70/64/6 17/65/6 71/66/6
f 70/67/8 72/68/8 17/17/8
f 72/68/8 18/18/8 17/17/8
f 23/23/10 24/24/10 73/69/10
f 24/24/10 74/70/10 73/69/10
f 75/71/2 74/72/2 24/73/2
f 76/74/5 77/75/5 78/63/5
f 78/63/5 77/75/5 26/62/5
f 79/76/9 7/7/9 26/26/9
f 79/76/9 26/26/9 77/77/9
f 27/27/10 28/28/10 80/78/10
f 28/28/10 81/79/10 80/78/10
f 82/80/2 81/81/2 28/82/2
f 83/36/5 35/34/5 84/83/5
f 34/36/3 85/83/3 33/34/3
f 35/31/11 33/32/11 85/30/11
f 35/31/11 85/30/11 84/29/11
f 86/40/12 87/42/12 39/41/12
f 86/84/5 37/38/5 36/37/5
f 86/40/12 39/41/12 37/44/12
f 87/84/3 88/37/3 39/38/3
f 89/85/2 90/29/2 46/31/2
f 89/37/13 46/38/13 91/39/13
f 91/85/6 47/31/6 48/29/6
f 91/39/13 46/38/13 47/43/13
f 51/42/2 92/86/2 52/41/2
f 52/35/14 92/33/14 56/34/14
f 56/34/14 92/33/14 93/36/14
f 94/42/6 56/41/6 93/86/6
f 95/87/8 96/88/8 1/1/8
f 96/88/8 4/4/8 1/1/8
f 96/51/2 57/53/2 4/52/2
f 97/74/3 62/63/3 98/75/3
f 62/63/3 5/62/3 98/75/3
f 98/89/9 5/5/9 7/7/9
f 98/89/9 7/7/9 79/76/9
f 99/90/8 100/91/8 9/9/8
f 100/91/8 12/12/8 9/9/8
f 100/64/2 64/66/2 12/65/2
f 69/71/6 15/73/6 101/72/6
f 15/15/10 14/14/10 101/92/10
f 14/14/10 102/93/10 101/92/10
f 103/61/3 71/63/3 17/62/3
f 103/94/9 19/19/9 104/95/9
f 103/94/9 17/17/9 19/19/9
f 22/22/7 105/96/7 24/24/7
f 22/22/7 106/97/7 105/96/7
f 75/45/5 24/48/5 105/56/5
f 78/80/6 26/82/6 107/81/6
f 26/26/10 25/25/10 107/98/10
f 25/25/10 108/99/10 107/98/10
f 82/45/5 109/47/5 110/46/5
f 82/45/5 28/48/5 109/47/5
f 60/50/7 109/100/7 2/2/7
f 109/100/7 28/28/7 2/2/7
f 111/33/13 31/35/13 112/36/13
f 111/85/2 29/29/2 31/31/2
f 112/36/13 31/35/13 35/34/13
f 112/85/6 35/31/6 83/29/6
f 88/42/2 113/86/2 39/41/2
f 39/38/14 113/37/14 40/43/14
f 41/42/6 40/41/6 114/86/6
f 40/43/14 113/37/14 114/39/14
f 115/84/5 46/38/5 90/37/5
f 115/29/12 116/30/12 45/32/12
f 116/84/3 43/37/3 45/38/3
f 115/29/12 45/32/12 46/31/12
f 55/36/5 54/34/5 117/83/5
f 54/44/11 56/41/11 118/42/11
f 54/44/11 118/42/11 117/40/11
f 94/36/3 118/83/3 56/34/3
f 75/24/1 119/101/1 74/70/1
f 75/24/1 120/102/1 121/103/1
f 75/24/1 105/96/1 120/102/1
f 75/24/1 121/103/1 119/101/1
f 73/69/1 74/70/1 122/104/1
f 73/69/1 122/104/1 95/87/1
f 74/70/1 119/101/1 123/105/1
f 74/70/1 124/106/1 122/104/1
f 74/70/1 123/105/1 124/106/1
f 21/107/2 23/73/2 50/40/2
f 21/108/5 50/33/5 22/48/5
f 105/96/1 125/109/1 120/102/1
f 105/96/1 126/110/1 125/109/1
f 105/96/1 127/111/1 126/110/1
f 22/48/5 67/61/5 106/56/5
f 106/97/1 67/59/1 105/96/1
f 105/96/1 68/60/1 127/111/1
f 73/72/2 95/51/2 1/52/2
f 122/104/1 96/88/1 95/87/1
f 122/104/1 58/49/1 96/88/1
f 96/88/1 58/49/1 57/4/1
f 23/73/2 73/72/2 30/30/2
f 23/73/2 51/42/2 50/40/2
f 22/48/5 50/33/5 55/36/5
f 23/73/2 92/86/2 51/42/2
f 22/48/5 55/36/5 117/83/5
f 23/73/2 128/112/2 92/86/2
f 94/24/4 93/70/4 129/103/4
f 94/24/4 129/103/4 130/102/4
f 94/24/4 131/110/4 118/96/4
f 94/24/4 130/102/4 132/109/4
f 129/103/4 93/70/4 133/101/4
f 92/69/4 128/87/4 93/70/4
f 93/70/4 128/87/4 134/104/4
f 93/70/4 135/105/4 133/101/4
f 93/70/4 134/104/4 136/106/4
f 93/70/4 136/106/4 135/105/4
f 22/48/5 117/83/5 86/84/5
f 117/97/4 118/96/4 137/111/4
f 94/24/4 132/109/4 131/110/4
f 118/96/4 131/110/4 137/111/4
f 117/97/4 137/111/4 86/59/4
f 23/73/2 138/113/2 128/112/2
f 23/73/2 139/114/2 138/113/2
f 23/73/2 140/115/2 139/114/2
f 23/73/2 141/116/2 140/115/2
f 134/104/4 128/87/4 142/88/4
f 134/104/4 142/88/4 143/4/4
f 134/104/4 143/4/4 144/117/4
f 105/96/1 67/59/1 68/60/1
f 22/48/5 13/62/5 67/61/5
f 127/111/1 68/60/1 145/118/1
f 145/118/1 68/60/1 146/119/1
f 146/119/1 68/60/1 147/120/1
f 147/120/1 68/60/1 148/121/1
f 22/48/5 38/39/5 13/62/5
f 68/60/1 69/15/1 148/121/1
f 148/121/1 69/15/1 149/122/1
f 149/122/1 69/15/1 150/123/1
f 69/15/1 101/92/1 150/123/1
f 150/123/1 101/92/1 151/124/1
f 151/124/1 101/92/1 152/125/1
f 101/92/1 153/126/1 152/125/1
f 101/92/1 63/55/1 153/126/1
f 101/92/1 102/93/1 63/55/1
f 14/73/6 6/52/6 102/72/6
f 13/62/5 38/39/5 16/127/5
f 16/107/6 38/40/6 14/73/6
f 14/73/6 38/40/6 6/52/6
f 153/126/1 61/54/1 97/89/1
f 153/126/1 63/55/1 61/54/1
f 102/72/6 6/52/6 63/51/6
f 61/54/1 62/5/1 97/89/1
f 6/52/6 38/40/6 8/128/6
f 38/40/6 25/82/6 8/128/6
f 38/40/6 72/64/6 25/82/6
f 22/48/5 86/84/5 36/37/5
f 22/48/5 36/37/5 38/39/5
f 137/111/4 154/118/4 86/59/4
f 86/59/4 154/118/4 87/60/4
f 154/118/4 155/119/4 87/60/4
f 155/119/4 156/120/4 87/60/4
f 156/120/4 157/121/4 87/60/4
f 87/60/4 157/121/4 158/122/4
f 87/60/4 158/122/4 88/15/4
f 158/122/4 159/123/4 88/15/4
f 88/15/4 159/123/4 160/124/4
f 88/15/4 160/124/4 161/125/4
f 88/15/4 161/125/4 113/92/4
f 113/92/4 161/125/4 162/126/4
f 113/92/4 162/126/4 163/55/4
f 113/92/4 163/55/4 114/93/4
f 38/40/6 41/42/6 18/65/6
f 41/42/6 114/86/6 18/65/6
f 114/86/6 163/112/6 18/65/6
f 162/126/4 164/54/4 163/55/4
f 162/126/4 165/129/4 164/54/4
f 82/28/1 110/100/1 81/79/1
f 27/82/2 80/81/2 99/64/2
f 80/78/1 81/79/1 166/117/1
f 110/100/1 166/117/1 81/79/1
f 73/72/2 1/52/2 30/30/2
f 1/52/2 3/128/2 30/30/2
f 3/128/2 27/82/2 30/30/2
f 80/78/1 100/91/1 99/90/1
f 27/82/2 99/64/2 9/65/2
f 80/78/1 166/117/1 100/91/1
f 166/117/1 167/130/1 100/91/1
f 167/130/1 168/131/1 100/91/1
f 100/91/1 168/131/1 169/132/1
f 100/91/1 169/132/1 64/12/1
f 169/132/1 170/133/1 64/12/1
f 64/12/1 170/133/1 171/134/1
f 64/12/1 171/134/1 65/58/1
f 27/82/2 9/65/2 30/30/2
f 9/65/2 11/135/2 30/30/2
f 11/108/3 10/48/3 30/33/3
f 171/134/1 172/136/1 65/58/1
f 65/58/1 172/136/1 173/137/1
f 65/58/1 173/137/1 174/138/1
f 65/58/1 174/138/1 175/139/1
f 65/58/1 103/94/1 66/57/1
f 10/48/3 66/56/3 19/62/3
f 10/48/3 19/62/3 30/33/3
f 111/85/2 141/116/2 23/73/2
f 23/73/2 29/29/2 111/85/2
f 23/73/2 30/30/2 29/29/2
f 143/4/4 176/2/4 144/117/4
f 112/91/4 177/79/4 141/78/4
f 144/117/4 176/2/4 178/28/4
f 144/117/4 178/28/4 177/79/4
f 111/90/4 112/91/4 141/78/4
f 144/117/4 177/79/4 112/91/4
f 144/117/4 112/91/4 179/130/4
f 179/130/4 112/91/4 83/12/4
f 179/130/4 83/12/4 180/131/4
f 180/131/4 83/12/4 181/132/4
f 181/132/4 83/12/4 182/133/4
f 83/12/4 84/58/4 182/133/4
f 30/33/3 19/62/3 34/36/3
f 34/36/3 19/62/3 85/83/3
f 182/133/4 84/58/4 183/134/4
f 183/134/4 84/58/4 184/136/4
f 84/58/4 185/137/4 184/136/4
f 84/58/4 186/138/4 185/137/4
f 84/58/4 85/57/4 186/138/4
f 186/138/4 85/57/4 187/139/4
f 76/77/1 78/26/1 107/98/1
f 76/77/1 107/98/1 188/129/1
f 107/98/1 108/99/1 188/129/1
f 25/82/6 72/64/6 108/81/6
f 38/40/6 18/65/6 72/64/6
f 65/58/1 175/139/1 103/94/1
f 66/57/1 103/94/1 104/95/1
f 66/56/3 104/61/3 19/62/3
f 175/139/1 189/140/1 103/94/1
f 189/140/1 190/141/1 103/94/1
f 191/142/1 103/94/1 190/141/1
f 192/143/1 193/144/1 70/67/1
f 188/129/1 70/67/1 193/144/1
f 192/143/1 70/67/1 194/145/1
f 108/99/1 72/68/1 188/129/1
f 188/129/1 72/68/1 70/67/1
f 194/145/1 71/17/1 195/146/1
f 191/142/1 71/17/1 103/94/1
f 191/142/1 195/146/1 71/17/1
f 194/145/1 70/67/1 71/17/1
f 19/62/3 20/127/3 44/39/3
f 18/65/6 44/30/6 20/135/6
f 163/112/6 196/113/6 18/65/6
f 196/113/6 197/114/6 18/65/6
f 18/65/6 197/114/6 198/115/6
f 18/65/6 198/115/6 199/116/6
f 164/54/4 165/129/4 200/5/4
f 200/5/4 165/129/4 201/7/4
f 165/129/4 202/26/4 201/7/4
f 165/129/4 203/98/4 202/26/4
f 91/68/4 199/99/4 203/98/4
f 85/83/3 19/62/3 116/84/3
f 85/57/4 116/95/4 187/139/4
f 187/139/4 115/94/4 204/140/4
f 204/140/4 90/17/4 205/141/4
f 187/139/4 116/95/4 115/94/4
f 18/65/6 199/116/6 91/85/6
f 19/62/3 43/37/3 116/84/3
f 18/65/6 91/85/6 48/29/6
f 19/62/3 44/39/3 43/37/3
f 18/65/6 48/29/6 44/30/6
f 165/129/4 89/67/4 203/98/4
f 206/143/4 89/67/4 207/144/4
f 165/129/4 207/144/4 89/67/4
f 206/143/4 208/145/4 89/67/4
f 89/67/4 91/68/4 203/98/4
f 208/145/4 209/146/4 89/67/4
f 210/142/4 205/141/4 90/17/4
f 204/140/4 115/94/4 90/17/4
f 210/142/4 90/17/4 209/146/4
f 89/67/4 209/146/4 90/17/4
f 121/147/15 129/148/15 119/149/15
f 124/150/16 136/151/16 122/152/16
f 119/149/17 133/153/18 123/154/17
f 124/150/19 123/154/19 135/155/19
f 121/156/20 120/157/20 130/158/20
f 125/159/21 132/160/21 120/157/21
f 125/159/22 126/161/22 131/162/22
f 126/161/23 127/163/23 137/164/23
f 122/152/6 59/165/6 58/53/6
f 122/152/6 134/166/6 59/165/6
f 59/165/6 134/166/6 60/167/6
f 134/166/6 109/168/6 60/167/6
f 121/156/20 130/158/20 129/169/20
f 119/149/15 129/148/15 133/153/15
f 122/152/16 136/151/16 134/166/16
f 123/154/17 133/153/18 135/155/18
f 124/150/19 135/155/19 136/151/19
f 125/159/22 131/162/22 132/160/22
f 120/157/21 132/160/21 130/158/21
f 126/161/23 137/164/23 131/162/23
f 127/163/3 154/170/3 137/164/3
f 127/163/3 145/171/3 154/170/3
f 145/171/24 146/172/24 155/173/24
f 146/172/25 147/174/25 156/175/25
f 147/174/26 148/176/26 157/177/26
f 148/176/27 149/178/27 158/179/27
f 149/147/28 150/149/28 159/153/28
f 150/149/29 151/154/29 160/155/30
f 151/154/31 152/150/31 161/151/31
f 152/150/32 153/152/32 162/166/32
f 153/152/2 97/53/2 98/165/2
f 153/152/2 98/165/2 165/180/2
f 145/171/24 155/173/24 154/170/24
f 146/172/25 156/175/25 155/173/25
f 147/174/26 157/177/26 156/175/26
f 148/176/27 158/179/27 157/177/27
f 149/147/28 159/153/28 158/148/28
f 150/149/29 160/155/30 159/153/30
f 151/154/31 161/151/31 160/155/31
f 152/150/32 162/166/32 161/151/32
f 153/152/2 165/180/2 162/166/2
f 110/80/6 109/168/6 166/181/6
f 134/166/6 166/181/6 109/168/6
f 166/181/33 144/180/33 167/182/33
f 167/182/34 179/183/34 168/184/34
f 168/184/35 180/185/36 169/186/35
f 169/186/37 181/187/37 170/188/37
f 170/156/38 182/169/38 171/157/38
f 171/157/39 183/158/39 172/159/39
f 172/159/40 184/160/40 173/161/40
f 173/161/41 185/162/41 174/163/41
f 174/163/5 186/164/5 175/171/5
f 134/166/6 144/180/6 166/181/6
f 167/182/33 144/180/33 179/183/33
f 168/184/34 179/183/34 180/185/34
f 169/186/35 180/185/36 181/187/36
f 170/188/37 181/187/37 182/189/37
f 171/157/38 182/169/38 183/158/38
f 172/159/39 183/158/39 184/160/39
f 173/161/40 184/160/40 185/162/40
f 174/163/41 185/162/41 186/164/41
f 76/80/2 188/181/2 77/168/2
f 98/165/2 79/167/2 165/180/2
f 79/167/2 77/168/2 165/180/2
f 77/168/2 188/181/2 165/180/2
f 175/171/42 187/170/42 189/172/42
f 189/172/43 204/173/43 190/174/43
f 191/176/44 190/174/44 205/175/44
f 191/176/45 210/177/45 195/178/45
f 192/184/46 206/185/46 193/182/46
f 192/184/47 194/186/47 208/187/48
f 188/181/49 193/182/49 207/183/49
f 194/186/50 195/188/50 209/189/50
f 186/164/5 187/170/5 175/171/5
f 189/172/42 187/170/42 204/173/42
f 191/176/44 205/175/44 210/177/44
f 190/174/43 204/173/43 205/175/43
f 193/182/46 206/185/46 207/183/46
f 192/184/47 208/187/48 206/185/48
f 188/181/49 207/183/49 165/180/49
f 194/186/50 209/189/50 208/187/50
f 195/178/45 210/177/45 209/179/45
f 138/113/2 139/114/2 211/190/2
f 138/113/2 211/190/2 212/191/2
f 212/1/4 211/3/4 213/4/4
f 213/4/4 211/3/4 214/2/4
f 143/113/6 213/191/6 176/114/6
f 213/191/6 214/190/6 176/114/6
f 200/113/2 201/114/2 215/190/2
f 200/113/2 215/190/2 216/191/2
f 216/5/4 215/7/4 217/6/4
f 196/113/6 217/191/6 197/114/6
f 217/6/4 215/7/4 218/8/4
f 217/191/6 218/190/6 197/114/6
f 219/192/2 201/114/2 202/115/2
f 219/192/2 215/190/2 201/114/2
f 219/26/4 218/8/4 215/7/4
f 197/114/6 218/190/6 198/115/6
f 219/26/4 220/25/4 218/8/4
f 220/192/6 198/115/6 218/190/6
f 221/192/2 139/114/2 140/115/2
f 221/192/2 211/190/2 139/114/2
f 221/27/4 214/2/4 211/3/4
f 221/27/4 222/28/4 214/2/4
f 176/114/6 214/190/6 178/115/6
f 222/192/6 178/115/6 214/190/6
f 128/33/13 212/35/13 142/36/13
f 128/112/2 138/113/2 212/191/2
f 142/36/13 212/35/13 213/34/13
f 142/112/6 213/191/6 143/113/6
f 164/112/2 200/113/2 216/191/2
f 164/37/13 216/38/13 163/39/13
f 163/112/6 217/191/6 196/113/6
f 163/39/13 216/38/13 217/43/13
f 219/192/2 202/115/2 203/116/2
f 219/38/14 203/37/14 220/43/14
f 220/192/6 199/116/6 198/115/6
f 220/43/14 203/37/14 199/39/14
f 221/192/2 140/115/2 141/116/2
f 221/35/14 141/33/14 222/34/14
f 222/34/14 141/33/14 177/36/14
f 222/192/6 177/116/6 178/115/6
