solid OpenSCAD_Model
  facet normal 0 -1 0
    outer loop
      vertex 5.75 -5.5 3.8
      vertex 4.25 -5.5 5.3
      vertex 4.25 -5.5 3.8
    endloop
  endfacet
  facet normal 0 0 1
    outer loop
      vertex 4.25 -5.5 5.3
      vertex 5.75 -4 5.3
      vertex 4.25 -4 5.3
    endloop
  endfacet
  facet normal 0 -1 0
    outer loop
      vertex 5.75 -5.5 3.8
      vertex 5.75 -5.5 5.3
      vertex 4.25 -5.5 5.3
    endloop
  endfacet
  facet normal 0 0 1
    outer loop
      vertex 4.25 -5.5 5.3
      vertex 5.75 -5.5 5.3
      vertex 5.75 -4 5.3
    endloop
  endfacet
  facet normal 1 0 0
    outer loop
      vertex 5.75 -5.5 3.8
      vertex 5.75 -4 5.3
      vertex 5.75 -5.5 5.3
    endloop
  endfacet
  facet normal 1 0 0
    outer loop
      vertex 5.75 -5.5 3.8
      vertex 5.75 -4 3.8
      vertex 5.75 -4 5.3
    endloop
  endfacet
  facet normal -1 0 0
    outer loop
      vertex -5.75 4 3.8
      vertex -5.75 4 5.3
      vertex -5.75 5.5 3.8
    endloop
  endfacet
  facet normal -1 0 0
    outer loop
      vertex -5.75 5.5 3.8
      vertex -5.75 4 5.3
      vertex -5.75 5.5 5.3
    endloop
  endfacet
  facet normal 0 0 1
    outer loop
      vertex -5.75 4 5.3
      vertex -4.25 5.5 5.3
      vertex -5.75 5.5 5.3
    endloop
  endfacet
  facet normal 0 1 0
    outer loop
      vertex -5.75 5.5 3.8
      vertex -5.75 5.5 5.3
      vertex -4.25 5.5 5.3
    endloop
  endfacet
  facet normal 0 0 1
    outer loop
      vertex -5.75 4 5.3
      vertex -4.25 4 5.3
      vertex -4.25 5.5 5.3
    endloop
  endfacet
  facet normal 0 1 0
    outer loop
      vertex -5.75 5.5 3.8
      vertex -4.25 5.5 5.3
      vertex -4.25 5.5 3.8
    endloop
  endfacet
  facet normal 0 0 1
    outer loop
      vertex 4.25 4 5.3
      vertex 5.75 4 5.3
      vertex 4.25 5.5 5.3
    endloop
  endfacet
  facet normal 0 1 0
    outer loop
      vertex 4.25 5.5 5.3
      vertex 5.75 5.5 3.8
      vertex 4.25 5.5 3.8
    endloop
  endfacet
  facet normal 1 0 0
    outer loop
      vertex 5.75 4 3.8
      vertex 5.75 5.5 3.8
      vertex 5.75 4 5.3
    endloop
  endfacet
  facet normal 0 0 1
    outer loop
      vertex 4.25 5.5 5.3
      vertex 5.75 4 5.3
      vertex 5.75 5.5 5.3
    endloop
  endfacet
  facet normal 0 1 0
    outer loop
      vertex 5.75 5.5 3.8
      vertex 4.25 5.5 5.3
      vertex 5.75 5.5 5.3
    endloop
  endfacet
  facet normal 1 0 0
    outer loop
      vertex 5.75 5.5 3.8
      vertex 5.75 5.5 5.3
      vertex 5.75 4 5.3
    endloop
  endfacet
  facet normal -1 0 0
    outer loop
      vertex -5.75 -5.5 3.8
      vertex -5.75 -5.5 5.3
      vertex -5.75 -4 5.3
    endloop
  endfacet
  facet normal 0 -1 0
    outer loop
      vertex -5.75 -5.5 3.8
      vertex -4.25 -5.5 5.3
      vertex -5.75 -5.5 5.3
    endloop
  endfacet
  facet normal 0 0 1
    outer loop
      vertex -5.75 -5.5 5.3
      vertex -4.25 -5.5 5.3
      vertex -5.75 -4 5.3
    endloop
  endfacet
  facet normal -1 0 0
    outer loop
      vertex -5.75 -5.5 3.8
      vertex -5.75 -4 5.3
      vertex -5.75 -4 3.8
    endloop
  endfacet
  facet normal 0 -1 0
    outer loop
      vertex -4.25 -5.5 5.3
      vertex -5.75 -5.5 3.8
      vertex -4.25 -5.5 3.8
    endloop
  endfacet
  facet normal 0 0 1
    outer loop
      vertex -5.75 -4 5.3
      vertex -4.25 -5.5 5.3
      vertex -4.25 -4 5.3
    endloop
  endfacet
  facet normal 0 0 -1
    outer loop
      vertex 4.25 -5.5 -2.3
      vertex 4.25 -4 -2.3
      vertex 5.75 -4 -2.3
    endloop
  endfacet
  facet normal 0 0 -1
    outer loop
      vertex 4.25 -5.5 -2.3
      vertex 5.75 -4 -2.3
      vertex 5.75 -5.5 -2.3
    endloop
  endfacet
  facet normal 0 0 -1
    outer loop
      vertex -5.75 4 -2.3
      vertex -5.75 5.5 -2.3
      vertex -4.25 5.5 -2.3
    endloop
  endfacet
  facet normal 0 0 -1
    outer loop
      vertex -5.75 4 -2.3
      vertex -4.25 5.5 -2.3
      vertex -4.25 4 -2.3
    endloop
  endfacet
  facet normal 0 0 -1
    outer loop
      vertex 4.25 4 -2.3
      vertex 4.25 5.5 -2.3
      vertex 5.75 4 -2.3
    endloop
  endfacet
  facet normal 0 0 -1
    outer loop
      vertex 4.25 5.5 -2.3
      vertex 5.75 5.5 -2.3
      vertex 5.75 4 -2.3
    endloop
  endfacet
  facet normal 0 0 -1
    outer loop
      vertex -5.75 -5.5 -2.3
      vertex -5.75 -4 -2.3
      vertex -4.25 -5.5 -2.3
    endloop
  endfacet
  facet normal 0 0 -1
    outer loop
      vertex -5.75 -4 -2.3
      vertex -4.25 -4 -2.3
      vertex -4.25 -5.5 -2.3
    endloop
  endfacet
  facet normal -1 0 0
    outer loop
      vertex 4.25 -4 5.3
      vertex 4.25 -2.5 3.8
      vertex 4.25 -4 3.8
    endloop
  endfacet
  facet normal 0 0.7071067811865476 0.7071067811865476
    outer loop
      vertex 4.25 -4 5.3
      vertex 5.75 -2.5 3.8
      vertex 4.25 -2.5 3.8
    endloop
  endfacet
  facet normal 1 0 0
    outer loop
      vertex 5.75 -4 3.8
      vertex 5.75 -2.5 3.8
      vertex 5.75 -4 5.3
    endloop
  endfacet
  facet normal 0 0.7071067811865476 0.7071067811865476
    outer loop
      vertex 4.25 -4 5.3
      vertex 5.75 -4 5.3
      vertex 5.75 -2.5 3.8
    endloop
  endfacet
  facet normal -1 0 0
    outer loop
      vertex -5.75 4 3.8
      vertex -5.75 2.5 3.8
      vertex -5.75 4 5.3
    endloop
  endfacet
  facet normal 0 -0.7071067811865476 0.7071067811865476
    outer loop
      vertex -5.75 4 5.3
      vertex -5.75 2.5 3.8
      vertex -4.25 4 5.3
    endloop
  endfacet
  facet normal 0 -0.7071067811865476 0.7071067811865476
    outer loop
      vertex -4.25 4 5.3
      vertex -5.75 2.5 3.8
      vertex -4.25 2.5 3.8
    endloop
  endfacet
  facet normal 1 0 0
    outer loop
      vertex -4.25 4 5.3
      vertex -4.25 2.5 3.8
      vertex -4.25 4 3.8
    endloop
  endfacet
  facet normal 0 -1 0
    outer loop
      vertex 4.25 4 5.3
      vertex 2.75 4 3.8
      vertex 4.25 4 3.8
    endloop
  endfacet
  facet normal -0.7071067811865476 0 0.7071067811865476
    outer loop
      vertex 4.25 4 5.3
      vertex 2.75 5.5 3.8
      vertex 2.75 4 3.8
    endloop
  endfacet
  facet normal 0 1 0
    outer loop
      vertex 4.25 5.5 5.3
      vertex 4.25 5.5 3.8
      vertex 2.75 5.5 3.8
    endloop
  endfacet
  facet normal -0.7071067811865476 0 0.7071067811865476
    outer loop
      vertex 4.25 4 5.3
      vertex 4.25 5.5 5.3
      vertex 2.75 5.5 3.8
    endloop
  endfacet
  facet normal 0 -1 0
    outer loop
      vertex -4.25 -5.5 5.3
      vertex -4.25 -5.5 3.8
      vertex -2.75 -5.5 3.8
    endloop
  endfacet
  facet normal 0.7071067811865476 0 0.7071067811865476
    outer loop
      vertex -4.25 -5.5 5.3
      vertex -2.75 -5.5 3.8
      vertex -4.25 -4 5.3
    endloop
  endfacet
  facet normal 0.7071067811865476 0 0.7071067811865476
    outer loop
      vertex -4.25 -4 5.3
      vertex -2.75 -5.5 3.8
      vertex -2.75 -4 3.8
    endloop
  endfacet
  facet normal 0 1 0
    outer loop
      vertex -4.25 -4 5.3
      vertex -2.75 -4 3.8
      vertex -4.25 -4 3.8
    endloop
  endfacet
  facet normal 1 0 0
    outer loop
      vertex 4.25 -4 -3.8
      vertex 4.25 -2.5 -3.8
      vertex 4.25 -4 -2.3
    endloop
  endfacet
  facet normal 0 -0.7071067811865476 -0.7071067811865476
    outer loop
      vertex 4.25 -4 -2.3
      vertex 4.25 -2.5 -3.8
      vertex 5.75 -2.5 -3.8
    endloop
  endfacet
  facet normal 0 -0.7071067811865476 -0.7071067811865476
    outer loop
      vertex 4.25 -4 -2.3
      vertex 5.75 -2.5 -3.8
      vertex 5.75 -4 -2.3
    endloop
  endfacet
  facet normal 0 0.7071067811865476 -0.7071067811865476
    outer loop
      vertex -5.75 2.5 -3.8
      vertex -5.75 4 -2.3
      vertex -4.25 4 -2.3
    endloop
  endfacet
  facet normal 0 0.7071067811865476 -0.7071067811865476
    outer loop
      vertex -5.75 2.5 -3.8
      vertex -4.25 4 -2.3
      vertex -4.25 2.5 -3.8
    endloop
  endfacet
  facet normal -1 0 0
    outer loop
      vertex -4.25 2.5 -3.8
      vertex -4.25 4 -2.3
      vertex -4.25 4 -3.8
    endloop
  endfacet
  facet normal 0 1 0
    outer loop
      vertex 2.75 4 -3.8
      vertex 4.25 4 -2.3
      vertex 4.25 4 -3.8
    endloop
  endfacet
  facet normal 0.7071067811865476 0 -0.7071067811865476
    outer loop
      vertex 2.75 4 -3.8
      vertex 2.75 5.5 -3.8
      vertex 4.25 4 -2.3
    endloop
  endfacet
  facet normal 0.7071067811865476 0 -0.7071067811865476
    outer loop
      vertex 2.75 5.5 -3.8
      vertex 4.25 5.5 -2.3
      vertex 4.25 4 -2.3
    endloop
  endfacet
  facet normal -0.7071067811865476 0 -0.7071067811865476
    outer loop
      vertex -4.25 -5.5 -2.3
      vertex -4.25 -4 -2.3
      vertex -2.75 -5.5 -3.8
    endloop
  endfacet
  facet normal -0.7071067811865476 0 -0.7071067811865476
    outer loop
      vertex -4.25 -4 -2.3
      vertex -2.75 -4 -3.8
      vertex -2.75 -5.5 -3.8
    endloop
  endfacet
  facet normal 0 -1 0
    outer loop
      vertex -4.25 -4 -3.8
      vertex -2.75 -4 -3.8
      vertex -4.25 -4 -2.3
    endloop
  endfacet
  facet normal -0.7071067811865476 0 0.7071067811865476
    outer loop
      vertex 4.25 -5.5 5.3
      vertex 2.75 -4 3.8
      vertex 2.75 -5.5 3.8
    endloop
  endfacet
  facet normal 0 -1 0
    outer loop
      vertex 4.25 -5.5 5.3
      vertex 2.75 -5.5 3.8
      vertex 4.25 -5.5 3.8
    endloop
  endfacet
  facet normal -0.7071067811865476 0 0.7071067811865476
    outer loop
      vertex 4.25 -5.5 5.3
      vertex 4.25 -4 5.3
      vertex 2.75 -4 3.8
    endloop
  endfacet
  facet normal 0 1 0
    outer loop
      vertex 4.25 -4 5.3
      vertex 4.25 -4 3.8
      vertex 2.75 -4 3.8
    endloop
  endfacet
  facet normal 0 -1 0
    outer loop
      vertex -4.25 4 5.3
      vertex -4.25 4 3.8
      vertex -2.75 4 3.8
    endloop
  endfacet
  facet normal 0.7071067811865476 0 0.7071067811865476
    outer loop
      vertex -4.25 4 5.3
      vertex -2.75 4 3.8
      vertex -4.25 5.5 5.3
    endloop
  endfacet
  facet normal 0 1 0
    outer loop
      vertex -4.25 5.5 5.3
      vertex -2.75 5.5 3.8
      vertex -4.25 5.5 3.8
    endloop
  endfacet
  facet normal 0.7071067811865476 0 0.7071067811865476
    outer loop
      vertex -4.25 5.5 5.3
      vertex -2.75 4 3.8
      vertex -2.75 5.5 3.8
    endloop
  endfacet
  facet normal -1 0 0
    outer loop
      vertex 4.25 4 5.3
      vertex 4.25 4 3.8
      vertex 4.25 2.5 3.8
    endloop
  endfacet
  facet normal 0 -0.7071067811865476 0.7071067811865476
    outer loop
      vertex 4.25 4 5.3
      vertex 4.25 2.5 3.8
      vertex 5.75 4 5.3
    endloop
  endfacet
  facet normal 0 -0.7071067811865476 0.7071067811865476
    outer loop
      vertex 5.75 4 5.3
      vertex 4.25 2.5 3.8
      vertex 5.75 2.5 3.8
    endloop
  endfacet
  facet normal 1 0 0
    outer loop
      vertex 5.75 4 3.8
      vertex 5.75 4 5.3
      vertex 5.75 2.5 3.8
    endloop
  endfacet
  facet normal -1 0 0
    outer loop
      vertex -5.75 -4 3.8
      vertex -5.75 -4 5.3
      vertex -5.75 -2.5 3.8
    endloop
  endfacet
  facet normal 0 0.7071067811865476 0.7071067811865476
    outer loop
      vertex -5.75 -4 5.3
      vertex -4.25 -2.5 3.8
      vertex -5.75 -2.5 3.8
    endloop
  endfacet
  facet normal 0 0.7071067811865476 0.7071067811865476
    outer loop
      vertex -5.75 -4 5.3
      vertex -4.25 -4 5.3
      vertex -4.25 -2.5 3.8
    endloop
  endfacet
  facet normal 1 0 0
    outer loop
      vertex -4.25 -4 5.3
      vertex -4.25 -4 3.8
      vertex -4.25 -2.5 3.8
    endloop
  endfacet
  facet normal 0.7071067811865476 0 -0.7071067811865476
    outer loop
      vertex 2.75 -5.5 -3.8
      vertex 2.75 -4 -3.8
      vertex 4.25 -5.5 -2.3
    endloop
  endfacet
  facet normal 0.7071067811865476 0 -0.7071067811865476
    outer loop
      vertex 2.75 -4 -3.8
      vertex 4.25 -4 -2.3
      vertex 4.25 -5.5 -2.3
    endloop
  endfacet
  facet normal 0 -1 0
    outer loop
      vertex 2.75 -4 -3.8
      vertex 4.25 -4 -3.8
      vertex 4.25 -4 -2.3
    endloop
  endfacet
  facet normal 0 1 0
    outer loop
      vertex -4.25 4 -3.8
      vertex -4.25 4 -2.3
      vertex -2.75 4 -3.8
    endloop
  endfacet
  facet normal -0.7071067811865476 0 -0.7071067811865476
    outer loop
      vertex -4.25 4 -2.3
      vertex -4.25 5.5 -2.3
      vertex -2.75 4 -3.8
    endloop
  endfacet
  facet normal -0.7071067811865476 0 -0.7071067811865476
    outer loop
      vertex -4.25 5.5 -2.3
      vertex -2.75 5.5 -3.8
      vertex -2.75 4 -3.8
    endloop
  endfacet
  facet normal 1 0 0
    outer loop
      vertex 4.25 2.5 -3.8
      vertex 4.25 4 -3.8
      vertex 4.25 4 -2.3
    endloop
  endfacet
  facet normal 0 0.7071067811865476 -0.7071067811865476
    outer loop
      vertex 4.25 2.5 -3.8
      vertex 4.25 4 -2.3
      vertex 5.75 4 -2.3
    endloop
  endfacet
  facet normal 0 0.7071067811865476 -0.7071067811865476
    outer loop
      vertex 4.25 2.5 -3.8
      vertex 5.75 4 -2.3
      vertex 5.75 2.5 -3.8
    endloop
  endfacet
  facet normal 0 -0.7071067811865476 -0.7071067811865476
    outer loop
      vertex -5.75 -4 -2.3
      vertex -5.75 -2.5 -3.8
      vertex -4.25 -2.5 -3.8
    endloop
  endfacet
  facet normal 0 -0.7071067811865476 -0.7071067811865476
    outer loop
      vertex -5.75 -4 -2.3
      vertex -4.25 -2.5 -3.8
      vertex -4.25 -4 -2.3
    endloop
  endfacet
  facet normal -1 0 0
    outer loop
      vertex -4.25 -4 -3.8
      vertex -4.25 -4 -2.3
      vertex -4.25 -2.5 -3.8
    endloop
  endfacet
  facet normal 0 0 -1
    outer loop
      vertex -4.25 -4 -3.8
      vertex -4.25 -2.5 -3.8
      vertex -3.412939228117466 -2.6111404672265053 -3.8
    endloop
  endfacet
  facet normal 0 0 -1
    outer loop
      vertex -4.25 -4 -3.8
      vertex -3.412939228117466 -2.6111404672265053 -3.8
      vertex -3.1642135605216026 -2.9142135605216026 -3.8
    endloop
  endfacet
  facet normal 0 0 -1
    outer loop
      vertex -4.25 -4 -3.8
      vertex -2.8611404672265053 -3.162939228117466 -3.8
      vertex -2.75 -4 -3.8
    endloop
  endfacet
  facet normal 0 0 -1
    outer loop
      vertex -4.25 -4 -3.8
      vertex -3.1642135605216026 -2.9142135605216026 -3.8
      vertex -2.8611404672265053 -3.162939228117466 -3.8
    endloop
  endfacet
  facet normal -1 0 0
    outer loop
      vertex -5.75 -5.5 -2.3
      vertex -5.75 -5.5 3.8
      vertex -5.75 -4 -2.3
    endloop
  endfacet
  facet normal 0 -1 0
    outer loop
      vertex -5.75 -5.5 -2.3
      vertex -4.25 -5.5 -2.3
      vertex -5.75 -5.5 3.8
    endloop
  endfacet
  facet normal -1 0 0
    outer loop
      vertex -5.75 -4 -2.3
      vertex -5.75 2.5 -3.8
      vertex -5.75 -2.5 -3.8
    endloop
  endfacet
  facet normal 0 0 -1
    outer loop
      vertex -5.75 -2.5 -3.8
      vertex -5.75 2.5 -3.8
      vertex -4.25 -2.5 -3.8
    endloop
  endfacet
  facet normal 0 0 -1
    outer loop
      vertex -4.25 -2.5 -3.8
      vertex -5.75 2.5 -3.8
      vertex -3.7115705609321594 -1.8901806473731995 -3.8
    endloop
  endfacet
  facet normal 0 0 -1
    outer loop
      vertex -3.7115705609321594 -1.8901806473731995 -3.8
      vertex -5.75 2.5 -3.8
      vertex -3.75 -1.5 -3.8
    endloop
  endfacet
  facet normal 0 0 -1
    outer loop
      vertex -4.25 -2.5 -3.8
      vertex -3.5977590680122375 -2.265366867184639 -3.8
      vertex -3.412939228117466 -2.6111404672265053 -3.8
    endloop
  endfacet
  facet normal 0 0 -1
    outer loop
      vertex -4.25 -2.5 -3.8
      vertex -3.7115705609321594 -1.8901806473731995 -3.8
      vertex -3.5977590680122375 -2.265366867184639 -3.8
    endloop
  endfacet
  facet normal 0 0 -1
    outer loop
      vertex -2.75 -4 -3.8
      vertex -2.8611404672265053 -3.162939228117466 -3.8
      vertex -2.515366867184639 -3.3477590680122375 -3.8
    endloop
  endfacet
  facet normal 0 0 -1
    outer loop
      vertex -2.75 -4 -3.8
      vertex -2.515366867184639 -3.3477590680122375 -3.8
      vertex -2.1401806473731995 -3.4615705609321594 -3.8
    endloop
  endfacet
  facet normal 0 0 -1
    outer loop
      vertex -2.75 -5.5 -3.8
      vertex -2.75 -4 -3.8
      vertex 2.75 -4 -3.8
    endloop
  endfacet
  facet normal 0 0 -1
    outer loop
      vertex -2.75 -4 -3.8
      vertex -2.1401806473731995 -3.4615705609321594 -3.8
      vertex 2.75 -4 -3.8
    endloop
  endfacet
  facet normal 0 0 -1
    outer loop
      vertex -2.1401806473731995 -3.4615705609321594 -3.8
      vertex -1.75 -3.5 -3.8
      vertex 2.75 -4 -3.8
    endloop
  endfacet
  facet normal 0 -1 0
    outer loop
      vertex -4.25 -5.5 -2.3
      vertex -2.75 -5.5 -3.8
      vertex 5.75 -5.5 3.8
    endloop
  endfacet
  facet normal -1 0 0
    outer loop
      vertex -5.75 -4 -2.3
      vertex -5.75 -5.5 3.8
      vertex -5.75 -4 3.8
    endloop
  endfacet
  facet normal 0 -1 0
    outer loop
      vertex -4.25 -5.5 -2.3
      vertex -4.25 -5.5 3.8
      vertex -5.75 -5.5 3.8
    endloop
  endfacet
  facet normal -1 0 0
    outer loop
      vertex -5.75 -4 -2.3
      vertex -5.75 -4 3.8
      vertex -5.75 -2.5 3.8
    endloop
  endfacet
  facet normal 0 -1 0
    outer loop
      vertex -4.25 -5.5 -2.3
      vertex -2.75 -5.5 3.8
      vertex -4.25 -5.5 3.8
    endloop
  endfacet
  facet normal 0 0 1
    outer loop
      vertex -3.1642135605216026 -2.9142135605216026 3.8
      vertex -4.25 -2.5 3.8
      vertex -4.25 -4 3.8
    endloop
  endfacet
  facet normal 0 0 1
    outer loop
      vertex -2.1401806473731995 -3.4615705609321594 3.8
      vertex -4.25 -4 3.8
      vertex -2.75 -4 3.8
    endloop
  endfacet
  facet normal 0 0 1
    outer loop
      vertex -2.8611404672265053 -3.162939228117466 3.8
      vertex -4.25 -4 3.8
      vertex -2.515366867184639 -3.3477590680122375 3.8
    endloop
  endfacet
  facet normal 0 0 1
    outer loop
      vertex -2.515366867184639 -3.3477590680122375 3.8
      vertex -4.25 -4 3.8
      vertex -2.1401806473731995 -3.4615705609321594 3.8
    endloop
  endfacet
  facet normal 0 0 1
    outer loop
      vertex -3.1642135605216026 -2.9142135605216026 3.8
      vertex -4.25 -4 3.8
      vertex -2.8611404672265053 -3.162939228117466 3.8
    endloop
  endfacet
  facet normal -1 0 0
    outer loop
      vertex -5.75 -4 -2.3
      vertex -5.75 -2.5 3.8
      vertex -5.75 2.5 3.8
    endloop
  endfacet
  facet normal 0 0 1
    outer loop
      vertex -3.75 -1.5 3.8
      vertex -5.75 -2.5 3.8
      vertex -4.25 -2.5 3.8
    endloop
  endfacet
  facet normal 0 0 1
    outer loop
      vertex -3.75 -1.5 3.8
      vertex -4.25 2.5 3.8
      vertex -5.75 -2.5 3.8
    endloop
  endfacet
  facet normal 0 0 1
    outer loop
      vertex -3.1642135605216026 -2.9142135605216026 3.8
      vertex -3.412939228117466 -2.6111404672265053 3.8
      vertex -4.25 -2.5 3.8
    endloop
  endfacet
  facet normal 0 0 1
    outer loop
      vertex -3.5977590680122375 -2.265366867184639 3.8
      vertex -4.25 -2.5 3.8
      vertex -3.412939228117466 -2.6111404672265053 3.8
    endloop
  endfacet
  facet normal 0 0 1
    outer loop
      vertex -3.5977590680122375 -2.265366867184639 3.8
      vertex -3.7115705609321594 -1.8901806473731995 3.8
      vertex -4.25 -2.5 3.8
    endloop
  endfacet
  facet normal 0 0 1
    outer loop
      vertex -3.7115705609321594 -1.8901806473731995 3.8
      vertex -3.75 -1.5 3.8
      vertex -4.25 -2.5 3.8
    endloop
  endfacet
  facet normal 0 -1 0
    outer loop
      vertex -4.25 -5.5 -2.3
      vertex 2.75 -5.5 3.8
      vertex -2.75 -5.5 3.8
    endloop
  endfacet
  facet normal 0 0 1
    outer loop
      vertex -2.1401806473731995 -3.4615705609321594 3.8
      vertex -2.75 -4 3.8
      vertex -1.75 -3.5 3.8
    endloop
  endfacet
  facet normal 0 0 1
    outer loop
      vertex -2.75 -5.5 3.8
      vertex 2.75 -5.5 3.8
      vertex -2.75 -4 3.8
    endloop
  endfacet
  facet normal 0 0 1
    outer loop
      vertex -1.75 -3.5 3.8
      vertex -2.75 -4 3.8
      vertex 2.75 -5.5 3.8
    endloop
  endfacet
  facet normal -1 0 0
    outer loop
      vertex -5.75 -4 -2.3
      vertex -5.75 4 -2.3
      vertex -5.75 2.5 -3.8
    endloop
  endfacet
  facet normal 0 0 -1
    outer loop
      vertex -3.75 -1.5 -3.8
      vertex -5.75 2.5 -3.8
      vertex -3.75 1.5 -3.8
    endloop
  endfacet
  facet normal 0 0 -1
    outer loop
      vertex -5.75 2.5 -3.8
      vertex -4.25 2.5 -3.8
      vertex -3.75 1.5 -3.8
    endloop
  endfacet
  facet normal 0 0 -1
    outer loop
      vertex -3.75 1.5 -3.8
      vertex -4.25 2.5 -3.8
      vertex -3.7115705609321594 1.8901806473731995 -3.8
    endloop
  endfacet
  facet normal 0 0 -1
    outer loop
      vertex -3.7115705609321594 1.8901806473731995 -3.8
      vertex -4.25 2.5 -3.8
      vertex -3.5977590680122375 2.265366867184639 -3.8
    endloop
  endfacet
  facet normal 0 0 -1
    outer loop
      vertex -4.25 2.5 -3.8
      vertex -3.412939228117466 2.6111404672265053 -3.8
      vertex -3.5977590680122375 2.265366867184639 -3.8
    endloop
  endfacet
  facet normal -1 0 0
    outer loop
      vertex -5.75 -4 -2.3
      vertex -5.75 5.5 3.8
      vertex -5.75 4 -2.3
    endloop
  endfacet
  facet normal 0 0 -1
    outer loop
      vertex -4.25 2.5 -3.8
      vertex -4.25 4 -3.8
      vertex -3.412939228117466 2.6111404672265053 -3.8
    endloop
  endfacet
  facet normal 0 0 -1
    outer loop
      vertex -3.412939228117466 2.6111404672265053 -3.8
      vertex -4.25 4 -3.8
      vertex -3.1642135605216026 2.9142135605216026 -3.8
    endloop
  endfacet
  facet normal 0 0 -1
    outer loop
      vertex -4.25 4 -3.8
      vertex -2.8611404672265053 3.162939228117466 -3.8
      vertex -3.1642135605216026 2.9142135605216026 -3.8
    endloop
  endfacet
  facet normal 0 0 -1
    outer loop
      vertex -4.25 4 -3.8
      vertex -2.75 4 -3.8
      vertex -2.8611404672265053 3.162939228117466 -3.8
    endloop
  endfacet
  facet normal -1 0 0
    outer loop
      vertex -5.75 4 -2.3
      vertex -5.75 5.5 3.8
      vertex -5.75 5.5 -2.3
    endloop
  endfacet
  facet normal 0 1 0
    outer loop
      vertex -5.75 5.5 -2.3
      vertex -5.75 5.5 3.8
      vertex -4.25 5.5 -2.3
    endloop
  endfacet
  facet normal 0 0 -1
    outer loop
      vertex -2.8611404672265053 3.162939228117466 -3.8
      vertex -2.75 4 -3.8
      vertex -2.515366867184639 3.3477590680122375 -3.8
    endloop
  endfacet
  facet normal 0 0 -1
    outer loop
      vertex -2.515366867184639 3.3477590680122375 -3.8
      vertex -2.75 4 -3.8
      vertex -2.1401806473731995 3.4615705609321594 -3.8
    endloop
  endfacet
  facet normal 0 0 -1
    outer loop
      vertex -2.75 4 -3.8
      vertex -1.75 3.5 -3.8
      vertex -2.1401806473731995 3.4615705609321594 -3.8
    endloop
  endfacet
  facet normal 0 0 -1
    outer loop
      vertex -2.75 4 -3.8
      vertex 1.75 3.5 -3.8
      vertex -1.75 3.5 -3.8
    endloop
  endfacet
  facet normal 0 1 0
    outer loop
      vertex -4.25 5.5 -2.3
      vertex 2.75 5.5 -3.8
      vertex -2.75 5.5 -3.8
    endloop
  endfacet
  facet normal 0 0 -1
    outer loop
      vertex -2.75 4 -3.8
      vertex -2.75 5.5 -3.8
      vertex 2.75 5.5 -3.8
    endloop
  endfacet
  facet normal 0 1 0
    outer loop
      vertex -4.25 5.5 -2.3
      vertex -5.75 5.5 3.8
      vertex 2.75 5.5 -3.8
    endloop
  endfacet
  facet normal -1 0 0
    outer loop
      vertex -5.75 -4 -2.3
      vertex -5.75 2.5 3.8
      vertex -5.75 4 3.8
    endloop
  endfacet
  facet normal -1 0 0
    outer loop
      vertex -5.75 -4 -2.3
      vertex -5.75 4 3.8
      vertex -5.75 5.5 3.8
    endloop
  endfacet
  facet normal 0 0 1
    outer loop
      vertex -5.75 -2.5 3.8
      vertex -4.25 2.5 3.8
      vertex -5.75 2.5 3.8
    endloop
  endfacet
  facet normal 0 0 1
    outer loop
      vertex -3.75 -1.5 3.8
      vertex -3.75 1.5 3.8
      vertex -4.25 2.5 3.8
    endloop
  endfacet
  facet normal 0 0 1
    outer loop
      vertex -3.75 1.5 3.8
      vertex -3.7115705609321594 1.8901806473731995 3.8
      vertex -4.25 2.5 3.8
    endloop
  endfacet
  facet normal 0 0 1
    outer loop
      vertex -3.7115705609321594 1.8901806473731995 3.8
      vertex -3.5977590680122375 2.265366867184639 3.8
      vertex -4.25 4 3.8
    endloop
  endfacet
  facet normal 0 0 1
    outer loop
      vertex -3.7115705609321594 1.8901806473731995 3.8
      vertex -4.25 4 3.8
      vertex -4.25 2.5 3.8
    endloop
  endfacet
  facet normal 0 0 1
    outer loop
      vertex -3.5977590680122375 2.265366867184639 3.8
      vertex -3.412939228117466 2.6111404672265053 3.8
      vertex -4.25 4 3.8
    endloop
  endfacet
  facet normal 0 0 1
    outer loop
      vertex -3.412939228117466 2.6111404672265053 3.8
      vertex -3.1642135605216026 2.9142135605216026 3.8
      vertex -4.25 4 3.8
    endloop
  endfacet
  facet normal 0 0 1
    outer loop
      vertex -3.1642135605216026 2.9142135605216026 3.8
      vertex -2.8611404672265053 3.162939228117466 3.8
      vertex -2.75 4 3.8
    endloop
  endfacet
  facet normal 0 0 1
    outer loop
      vertex -3.1642135605216026 2.9142135605216026 3.8
      vertex -2.75 4 3.8
      vertex -4.25 4 3.8
    endloop
  endfacet
  facet normal 0 1 0
    outer loop
      vertex -5.75 5.5 3.8
      vertex -4.25 5.5 3.8
      vertex 4.25 5.5 -2.3
    endloop
  endfacet
  facet normal 0 1 0
    outer loop
      vertex -4.25 5.5 3.8
      vertex -2.75 5.5 3.8
      vertex 4.25 5.5 -2.3
    endloop
  endfacet
  facet normal 0 0 1
    outer loop
      vertex -2.8611404672265053 3.162939228117466 3.8
      vertex -2.515366867184639 3.3477590680122375 3.8
      vertex -2.75 4 3.8
    endloop
  endfacet
  facet normal 0 0 1
    outer loop
      vertex -2.515366867184639 3.3477590680122375 3.8
      vertex -2.1401806473731995 3.4615705609321594 3.8
      vertex -2.75 4 3.8
    endloop
  endfacet
  facet normal 0 0 1
    outer loop
      vertex -2.1401806473731995 3.4615705609321594 3.8
      vertex -1.75 3.5 3.8
      vertex -2.75 4 3.8
    endloop
  endfacet
  facet normal 0 0 1
    outer loop
      vertex -1.75 3.5 3.8
      vertex -2.75 5.5 3.8
      vertex -2.75 4 3.8
    endloop
  endfacet
  facet normal 0 0 1
    outer loop
      vertex -1.75 3.5 3.8
      vertex 1.75 3.5 3.8
      vertex -2.75 5.5 3.8
    endloop
  endfacet
  facet normal 0 0 -1
    outer loop
      vertex -2.75 -5.5 -3.8
      vertex 2.75 -4 -3.8
      vertex 2.75 -5.5 -3.8
    endloop
  endfacet
  facet normal 0 -1 0
    outer loop
      vertex -2.75 -5.5 -3.8
      vertex 2.75 -5.5 -3.8
      vertex 4.25 -5.5 -2.3
    endloop
  endfacet
  facet normal 0 0 -1
    outer loop
      vertex -1.75 -3.5 -3.8
      vertex 1.75 -3.5 -3.8
      vertex 2.75 -4 -3.8
    endloop
  endfacet
  facet normal 0 0 -1
    outer loop
      vertex 1.75 -3.5 -3.8
      vertex 2.1401806473731995 -3.4615705609321594 -3.8
      vertex 2.75 -4 -3.8
    endloop
  endfacet
  facet normal 0 0 -1
    outer loop
      vertex 2.1401806473731995 -3.4615705609321594 -3.8
      vertex 2.515366867184639 -3.3477590680122375 -3.8
      vertex 2.75 -4 -3.8
    endloop
  endfacet
  facet normal 0 0 -1
    outer loop
      vertex 2.75 -4 -3.8
      vertex 2.515366867184639 -3.3477590680122375 -3.8
      vertex 2.8611404672265053 -3.162939228117466 -3.8
    endloop
  endfacet
  facet normal 0 -1 0
    outer loop
      vertex -2.75 -5.5 -3.8
      vertex 4.25 -5.5 -2.3
      vertex 5.75 -5.5 3.8
    endloop
  endfacet
  facet normal 0 0 -1
    outer loop
      vertex 2.75 -4 -3.8
      vertex 2.8611404672265053 -3.162939228117466 -3.8
      vertex 4.25 -4 -3.8
    endloop
  endfacet
  facet normal 0 0 -1
    outer loop
      vertex 2.8611404672265053 -3.162939228117466 -3.8
      vertex 3.1642135605216026 -2.9142135605216026 -3.8
      vertex 4.25 -4 -3.8
    endloop
  endfacet
  facet normal 0 0 -1
    outer loop
      vertex 3.1642135605216026 -2.9142135605216026 -3.8
      vertex 3.412939228117466 -2.6111404672265053 -3.8
      vertex 4.25 -4 -3.8
    endloop
  endfacet
  facet normal 0 0 -1
    outer loop
      vertex 4.25 -4 -3.8
      vertex 3.412939228117466 -2.6111404672265053 -3.8
      vertex 4.25 -2.5 -3.8
    endloop
  endfacet
  facet normal 0 -1 0
    outer loop
      vertex 4.25 -5.5 -2.3
      vertex 5.75 -5.5 -2.3
      vertex 5.75 -5.5 3.8
    endloop
  endfacet
  facet normal 1 0 0
    outer loop
      vertex 5.75 -5.5 -2.3
      vertex 5.75 -4 -2.3
      vertex 5.75 -5.5 3.8
    endloop
  endfacet
  facet normal 0 0 -1
    outer loop
      vertex 3.412939228117466 -2.6111404672265053 -3.8
      vertex 3.5977590680122375 -2.265366867184639 -3.8
      vertex 4.25 -2.5 -3.8
    endloop
  endfacet
  facet normal 0 0 -1
    outer loop
      vertex 3.5977590680122375 -2.265366867184639 -3.8
      vertex 3.7115705609321594 -1.8901806473731995 -3.8
      vertex 4.25 -2.5 -3.8
    endloop
  endfacet
  facet normal 0 0 -1
    outer loop
      vertex 4.25 -2.5 -3.8
      vertex 3.7115705609321594 -1.8901806473731995 -3.8
      vertex 3.75 -1.5 -3.8
    endloop
  endfacet
  facet normal 0 0 -1
    outer loop
      vertex 4.25 -2.5 -3.8
      vertex 3.75 -1.5 -3.8
      vertex 5.75 -2.5 -3.8
    endloop
  endfacet
  facet normal 0 0 -1
    outer loop
      vertex 3.75 -1.5 -3.8
      vertex 3.75 1.5 -3.8
      vertex 5.75 -2.5 -3.8
    endloop
  endfacet
  facet normal 1 0 0
    outer loop
      vertex 5.75 -4 -2.3
      vertex 5.75 -2.5 -3.8
      vertex 5.75 4 -2.3
    endloop
  endfacet
  facet normal 1 0 0
    outer loop
      vertex 5.75 -4 -2.3
      vertex 5.75 4 -2.3
      vertex 5.75 -5.5 3.8
    endloop
  endfacet
  facet normal 0 -1 0
    outer loop
      vertex -4.25 -5.5 -2.3
      vertex 4.25 -5.5 3.8
      vertex 2.75 -5.5 3.8
    endloop
  endfacet
  facet normal 0 -1 0
    outer loop
      vertex -4.25 -5.5 -2.3
      vertex 5.75 -5.5 3.8
      vertex 4.25 -5.5 3.8
    endloop
  endfacet
  facet normal 0 0 1
    outer loop
      vertex -1.75 -3.5 3.8
      vertex 2.75 -5.5 3.8
      vertex 1.75 -3.5 3.8
    endloop
  endfacet
  facet normal 0 0 1
    outer loop
      vertex 1.75 -3.5 3.8
      vertex 2.75 -5.5 3.8
      vertex 2.75 -4 3.8
    endloop
  endfacet
  facet normal 0 0 1
    outer loop
      vertex 1.75 -3.5 3.8
      vertex 2.75 -4 3.8
      vertex 2.1401806473731995 -3.4615705609321594 3.8
    endloop
  endfacet
  facet normal 0 0 1
    outer loop
      vertex 2.1401806473731995 -3.4615705609321594 3.8
      vertex 2.75 -4 3.8
      vertex 2.515366867184639 -3.3477590680122375 3.8
    endloop
  endfacet
  facet normal 0 0 1
    outer loop
      vertex 2.515366867184639 -3.3477590680122375 3.8
      vertex 2.75 -4 3.8
      vertex 2.8611404672265053 -3.162939228117466 3.8
    endloop
  endfacet
  facet normal 0 0 1
    outer loop
      vertex 3.1642135605216026 -2.9142135605216026 3.8
      vertex 2.75 -4 3.8
      vertex 4.25 -4 3.8
    endloop
  endfacet
  facet normal 0 0 1
    outer loop
      vertex 2.8611404672265053 -3.162939228117466 3.8
      vertex 2.75 -4 3.8
      vertex 3.1642135605216026 -2.9142135605216026 3.8
    endloop
  endfacet
  facet normal 0 0 1
    outer loop
      vertex 3.1642135605216026 -2.9142135605216026 3.8
      vertex 4.25 -4 3.8
      vertex 3.412939228117466 -2.6111404672265053 3.8
    endloop
  endfacet
  facet normal 0 0 1
    outer loop
      vertex 3.412939228117466 -2.6111404672265053 3.8
      vertex 4.25 -4 3.8
      vertex 3.5977590680122375 -2.265366867184639 3.8
    endloop
  endfacet
  facet normal 0 0 1
    outer loop
      vertex 3.7115705609321594 -1.8901806473731995 3.8
      vertex 4.25 -4 3.8
      vertex 4.25 -2.5 3.8
    endloop
  endfacet
  facet normal 1 0 0
    outer loop
      vertex 5.75 4 -2.3
      vertex 5.75 -4 3.8
      vertex 5.75 -5.5 3.8
    endloop
  endfacet
  facet normal 1 0 0
    outer loop
      vertex 5.75 4 -2.3
      vertex 5.75 -2.5 3.8
      vertex 5.75 -4 3.8
    endloop
  endfacet
  facet normal 0 0 1
    outer loop
      vertex 3.5977590680122375 -2.265366867184639 3.8
      vertex 4.25 -4 3.8
      vertex 3.7115705609321594 -1.8901806473731995 3.8
    endloop
  endfacet
  facet normal 0 0 1
    outer loop
      vertex 3.7115705609321594 -1.8901806473731995 3.8
      vertex 4.25 -2.5 3.8
      vertex 3.75 -1.5 3.8
    endloop
  endfacet
  facet normal 0 0 1
    outer loop
      vertex 3.75 -1.5 3.8
      vertex 4.25 -2.5 3.8
      vertex 3.75 1.5 3.8
    endloop
  endfacet
  facet normal 0 0 1
    outer loop
      vertex 4.25 -2.5 3.8
      vertex 5.75 -2.5 3.8
      vertex 5.75 2.5 3.8
    endloop
  endfacet
  facet normal 0 0 -1
    outer loop
      vertex -2.75 4 -3.8
      vertex 2.1401806473731995 3.4615705609321594 -3.8
      vertex 1.75 3.5 -3.8
    endloop
  endfacet
  facet normal 0 0 -1
    outer loop
      vertex -2.75 4 -3.8
      vertex 2.75 4 -3.8
      vertex 2.1401806473731995 3.4615705609321594 -3.8
    endloop
  endfacet
  facet normal 0 0 -1
    outer loop
      vertex -2.75 4 -3.8
      vertex 2.75 5.5 -3.8
      vertex 2.75 4 -3.8
    endloop
  endfacet
  facet normal 0 0 -1
    outer loop
      vertex 2.1401806473731995 3.4615705609321594 -3.8
      vertex 2.75 4 -3.8
      vertex 2.515366867184639 3.3477590680122375 -3.8
    endloop
  endfacet
  facet normal 0 0 -1
    outer loop
      vertex 2.515366867184639 3.3477590680122375 -3.8
      vertex 2.75 4 -3.8
      vertex 2.8611404672265053 3.162939228117466 -3.8
    endloop
  endfacet
  facet normal 0 1 0
    outer loop
      vertex 2.75 5.5 -3.8
      vertex -5.75 5.5 3.8
      vertex 4.25 5.5 -2.3
    endloop
  endfacet
  facet normal 0 0 -1
    outer loop
      vertex 3.7115705609321594 1.8901806473731995 -3.8
      vertex 3.5977590680122375 2.265366867184639 -3.8
      vertex 4.25 2.5 -3.8
    endloop
  endfacet
  facet normal 0 0 -1
    outer loop
      vertex 3.412939228117466 2.6111404672265053 -3.8
      vertex 4.25 2.5 -3.8
      vertex 3.5977590680122375 2.265366867184639 -3.8
    endloop
  endfacet
  facet normal 0 0 -1
    outer loop
      vertex 5.75 -2.5 -3.8
      vertex 3.75 1.5 -3.8
      vertex 3.7115705609321594 1.8901806473731995 -3.8
    endloop
  endfacet
  facet normal 0 0 -1
    outer loop
      vertex 5.75 -2.5 -3.8
      vertex 3.7115705609321594 1.8901806473731995 -3.8
      vertex 4.25 2.5 -3.8
    endloop
  endfacet
  facet normal 0 0 -1
    outer loop
      vertex 5.75 -2.5 -3.8
      vertex 4.25 2.5 -3.8
      vertex 5.75 2.5 -3.8
    endloop
  endfacet
  facet normal 1 0 0
    outer loop
      vertex 5.75 -2.5 -3.8
      vertex 5.75 2.5 -3.8
      vertex 5.75 4 -2.3
    endloop
  endfacet
  facet normal 0 0 -1
    outer loop
      vertex 2.8611404672265053 3.162939228117466 -3.8
      vertex 4.25 4 -3.8
      vertex 3.1642135605216026 2.9142135605216026 -3.8
    endloop
  endfacet
  facet normal 0 0 -1
    outer loop
      vertex 2.8611404672265053 3.162939228117466 -3.8
      vertex 2.75 4 -3.8
      vertex 4.25 4 -3.8
    endloop
  endfacet
  facet normal 0 0 -1
    outer loop
      vertex 3.412939228117466 2.6111404672265053 -3.8
      vertex 3.1642135605216026 2.9142135605216026 -3.8
      vertex 4.25 4 -3.8
    endloop
  endfacet
  facet normal 0 0 -1
    outer loop
      vertex 3.412939228117466 2.6111404672265053 -3.8
      vertex 4.25 4 -3.8
      vertex 4.25 2.5 -3.8
    endloop
  endfacet
  facet normal 0 1 0
    outer loop
      vertex 4.25 5.5 -2.3
      vertex 5.75 5.5 3.8
      vertex 5.75 5.5 -2.3
    endloop
  endfacet
  facet normal 1 0 0
    outer loop
      vertex 5.75 4 -2.3
      vertex 5.75 5.5 -2.3
      vertex 5.75 5.5 3.8
    endloop
  endfacet
  facet normal 0 1 0
    outer loop
      vertex 2.75 5.5 3.8
      vertex 4.25 5.5 -2.3
      vertex -2.75 5.5 3.8
    endloop
  endfacet
  facet normal 0 0 1
    outer loop
      vertex 1.75 3.5 3.8
      vertex 2.75 4 3.8
      vertex -2.75 5.5 3.8
    endloop
  endfacet
  facet normal 0 0 1
    outer loop
      vertex -2.75 5.5 3.8
      vertex 2.75 4 3.8
      vertex 2.75 5.5 3.8
    endloop
  endfacet
  facet normal 0 0 1
    outer loop
      vertex 1.75 3.5 3.8
      vertex 2.1401806473731995 3.4615705609321594 3.8
      vertex 2.75 4 3.8
    endloop
  endfacet
  facet normal 1 0 0
    outer loop
      vertex 5.75 4 -2.3
      vertex 5.75 2.5 3.8
      vertex 5.75 -2.5 3.8
    endloop
  endfacet
  facet normal 0 0 1
    outer loop
      vertex 3.75 1.5 3.8
      vertex 4.25 2.5 3.8
      vertex 3.7115705609321594 1.8901806473731995 3.8
    endloop
  endfacet
  facet normal 0 0 1
    outer loop
      vertex 3.7115705609321594 1.8901806473731995 3.8
      vertex 4.25 2.5 3.8
      vertex 3.5977590680122375 2.265366867184639 3.8
    endloop
  endfacet
  facet normal 0 0 1
    outer loop
      vertex 3.412939228117466 2.6111404672265053 3.8
      vertex 3.5977590680122375 2.265366867184639 3.8
      vertex 4.25 2.5 3.8
    endloop
  endfacet
  facet normal 0 0 1
    outer loop
      vertex 3.412939228117466 2.6111404672265053 3.8
      vertex 4.25 2.5 3.8
      vertex 3.1642135605216026 2.9142135605216026 3.8
    endloop
  endfacet
  facet normal 0 0 1
    outer loop
      vertex 3.75 1.5 3.8
      vertex 4.25 -2.5 3.8
      vertex 5.75 2.5 3.8
    endloop
  endfacet
  facet normal 0 0 1
    outer loop
      vertex 3.75 1.5 3.8
      vertex 5.75 2.5 3.8
      vertex 4.25 2.5 3.8
    endloop
  endfacet
  facet normal 0 1 0
    outer loop
      vertex 4.25 5.5 3.8
      vertex 4.25 5.5 -2.3
      vertex 2.75 5.5 3.8
    endloop
  endfacet
  facet normal 1 0 0
    outer loop
      vertex 5.75 4 -2.3
      vertex 5.75 4 3.8
      vertex 5.75 2.5 3.8
    endloop
  endfacet
  facet normal 0 1 0
    outer loop
      vertex 4.25 5.5 -2.3
      vertex 4.25 5.5 3.8
      vertex 5.75 5.5 3.8
    endloop
  endfacet
  facet normal 1 0 0
    outer loop
      vertex 5.75 4 -2.3
      vertex 5.75 5.5 3.8
      vertex 5.75 4 3.8
    endloop
  endfacet
  facet normal 0 0 1
    outer loop
      vertex 2.8611404672265053 3.162939228117466 3.8
      vertex 3.1642135605216026 2.9142135605216026 3.8
      vertex 4.25 4 3.8
    endloop
  endfacet
  facet normal 0 0 1
    outer loop
      vertex 2.1401806473731995 3.4615705609321594 3.8
      vertex 2.515366867184639 3.3477590680122375 3.8
      vertex 4.25 4 3.8
    endloop
  endfacet
  facet normal 0 0 1
    outer loop
      vertex 2.515366867184639 3.3477590680122375 3.8
      vertex 2.8611404672265053 3.162939228117466 3.8
      vertex 4.25 4 3.8
    endloop
  endfacet
  facet normal 0 0 1
    outer loop
      vertex 2.1401806473731995 3.4615705609321594 3.8
      vertex 4.25 4 3.8
      vertex 2.75 4 3.8
    endloop
  endfacet
  facet normal 0 0 1
    outer loop
      vertex 3.1642135605216026 2.9142135605216026 3.8
      vertex 4.25 2.5 3.8
      vertex 4.25 4 3.8
    endloop
  endfacet
  facet normal 0.6343932961394977 0.7730104435344091 0
    outer loop
      vertex -3.1642135605216026 -2.9142135605216026 -3.8
      vertex -3.1642135605216026 -2.9142135605216026 3.8
      vertex -2.8611404672265053 -3.162939228117466 -3.8
    endloop
  endfacet
  facet normal 0.9569403375708344 0.29028467119332607 0
    outer loop
      vertex -3.5977590680122375 -2.265366867184639 -3.8
      vertex -3.7115705609321594 -1.8901806473731995 -3.8
      vertex -3.7115705609321594 -1.8901806473731995 3.8
    endloop
  endfacet
  facet normal 0.9951847267853375 0.09801713918082347 0
    outer loop
      vertex -3.7115705609321594 -1.8901806473731995 -3.8
      vertex -3.75 -1.5 -3.8
      vertex -3.75 -1.5 3.8
    endloop
  endfacet
  facet normal 0.7730104435344091 0.6343932961394977 0
    outer loop
      vertex -3.1642135605216026 -2.9142135605216026 -3.8
      vertex -3.412939228117466 -2.6111404672265053 -3.8
      vertex -3.412939228117466 -2.6111404672265053 3.8
    endloop
  endfacet
  facet normal 0.8819212641844241 0.47139673713269076 0
    outer loop
      vertex -3.5977590680122375 -2.265366867184639 -3.8
      vertex -3.5977590680122375 -2.265366867184639 3.8
      vertex -3.412939228117466 -2.6111404672265053 -3.8
    endloop
  endfacet
  facet normal 0.47139673713269076 0.8819212641844241 0
    outer loop
      vertex -2.8611404672265053 -3.162939228117466 -3.8
      vertex -2.8611404672265053 -3.162939228117466 3.8
      vertex -2.515366867184639 -3.3477590680122375 -3.8
    endloop
  endfacet
  facet normal 0.29028467119332607 0.9569403375708344 0
    outer loop
      vertex -2.515366867184639 -3.3477590680122375 -3.8
      vertex -2.515366867184639 -3.3477590680122375 3.8
      vertex -2.1401806473731995 -3.4615705609321594 -3.8
    endloop
  endfacet
  facet normal 0.09801713918082347 0.9951847267853375 0
    outer loop
      vertex -2.1401806473731995 -3.4615705609321594 -3.8
      vertex -2.1401806473731995 -3.4615705609321594 3.8
      vertex -1.75 -3.5 -3.8
    endloop
  endfacet
  facet normal 0 1 0
    outer loop
      vertex -1.75 -3.5 -3.8
      vertex -1.75 -3.5 3.8
      vertex 1.75 -3.5 -3.8
    endloop
  endfacet
  facet normal 0.7730104435344091 0.6343932961394977 0
    outer loop
      vertex -3.1642135605216026 -2.9142135605216026 -3.8
      vertex -3.412939228117466 -2.6111404672265053 3.8
      vertex -3.1642135605216026 -2.9142135605216026 3.8
    endloop
  endfacet
  facet normal 0.6343932961394977 0.7730104435344091 0
    outer loop
      vertex -2.8611404672265053 -3.162939228117466 -3.8
      vertex -3.1642135605216026 -2.9142135605216026 3.8
      vertex -2.8611404672265053 -3.162939228117466 3.8
    endloop
  endfacet
  facet normal 0.9569403375708344 0.29028467119332607 0
    outer loop
      vertex -3.5977590680122375 -2.265366867184639 -3.8
      vertex -3.7115705609321594 -1.8901806473731995 3.8
      vertex -3.5977590680122375 -2.265366867184639 3.8
    endloop
  endfacet
  facet normal 0.9951847267853375 0.09801713918082347 0
    outer loop
      vertex -3.7115705609321594 -1.8901806473731995 -3.8
      vertex -3.75 -1.5 3.8
      vertex -3.7115705609321594 -1.8901806473731995 3.8
    endloop
  endfacet
  facet normal 0.8819212641844241 0.47139673713269076 0
    outer loop
      vertex -3.412939228117466 -2.6111404672265053 -3.8
      vertex -3.5977590680122375 -2.265366867184639 3.8
      vertex -3.412939228117466 -2.6111404672265053 3.8
    endloop
  endfacet
  facet normal 1 0 0
    outer loop
      vertex -3.75 -1.5 -3.8
      vertex -3.75 1.5 3.8
      vertex -3.75 -1.5 3.8
    endloop
  endfacet
  facet normal 0.47139673713269076 0.8819212641844241 0
    outer loop
      vertex -2.515366867184639 -3.3477590680122375 -3.8
      vertex -2.8611404672265053 -3.162939228117466 3.8
      vertex -2.515366867184639 -3.3477590680122375 3.8
    endloop
  endfacet
  facet normal 0.29028467119332607 0.9569403375708344 0
    outer loop
      vertex -2.1401806473731995 -3.4615705609321594 -3.8
      vertex -2.515366867184639 -3.3477590680122375 3.8
      vertex -2.1401806473731995 -3.4615705609321594 3.8
    endloop
  endfacet
  facet normal 0.09801713918082347 0.9951847267853375 0
    outer loop
      vertex -1.75 -3.5 -3.8
      vertex -2.1401806473731995 -3.4615705609321594 3.8
      vertex -1.75 -3.5 3.8
    endloop
  endfacet
  facet normal 1 0 0
    outer loop
      vertex -3.75 -1.5 -3.8
      vertex -3.75 1.5 -3.8
      vertex -3.75 1.5 3.8
    endloop
  endfacet
  facet normal 0.9951847267853375 -0.09801713918082347 0
    outer loop
      vertex -3.75 1.5 -3.8
      vertex -3.7115705609321594 1.8901806473731995 -3.8
      vertex -3.7115705609321594 1.8901806473731995 3.8
    endloop
  endfacet
  facet normal 0.9569403375708344 -0.29028467119332607 0
    outer loop
      vertex -3.7115705609321594 1.8901806473731995 -3.8
      vertex -3.5977590680122375 2.265366867184639 -3.8
      vertex -3.5977590680122375 2.265366867184639 3.8
    endloop
  endfacet
  facet normal 0.8819212641844241 -0.47139673713269076 0
    outer loop
      vertex -3.5977590680122375 2.265366867184639 -3.8
      vertex -3.412939228117466 2.6111404672265053 -3.8
      vertex -3.412939228117466 2.6111404672265053 3.8
    endloop
  endfacet
  facet normal 0.7730104435344091 -0.6343932961394977 0
    outer loop
      vertex -3.412939228117466 2.6111404672265053 -3.8
      vertex -3.1642135605216026 2.9142135605216026 -3.8
      vertex -3.1642135605216026 2.9142135605216026 3.8
    endloop
  endfacet
  facet normal 0.6343932961394977 -0.7730104435344091 0
    outer loop
      vertex -3.1642135605216026 2.9142135605216026 -3.8
      vertex -2.8611404672265053 3.162939228117466 -3.8
      vertex -2.8611404672265053 3.162939228117466 3.8
    endloop
  endfacet
  facet normal 0.47139673713269076 -0.8819212641844241 0
    outer loop
      vertex -2.8611404672265053 3.162939228117466 -3.8
      vertex -2.515366867184639 3.3477590680122375 -3.8
      vertex -2.515366867184639 3.3477590680122375 3.8
    endloop
  endfacet
  facet normal 0.29028467119332607 -0.9569403375708344 0
    outer loop
      vertex -2.515366867184639 3.3477590680122375 -3.8
      vertex -2.1401806473731995 3.4615705609321594 -3.8
      vertex -2.1401806473731995 3.4615705609321594 3.8
    endloop
  endfacet
  facet normal 0.09801713918082347 -0.9951847267853375 0
    outer loop
      vertex -2.1401806473731995 3.4615705609321594 -3.8
      vertex -1.75 3.5 -3.8
      vertex -1.75 3.5 3.8
    endloop
  endfacet
  facet normal 0.9951847267853375 -0.09801713918082347 0
    outer loop
      vertex -3.75 1.5 -3.8
      vertex -3.7115705609321594 1.8901806473731995 3.8
      vertex -3.75 1.5 3.8
    endloop
  endfacet
  facet normal 0.9569403375708344 -0.29028467119332607 0
    outer loop
      vertex -3.7115705609321594 1.8901806473731995 -3.8
      vertex -3.5977590680122375 2.265366867184639 3.8
      vertex -3.7115705609321594 1.8901806473731995 3.8
    endloop
  endfacet
  facet normal 0.8819212641844241 -0.47139673713269076 0
    outer loop
      vertex -3.5977590680122375 2.265366867184639 -3.8
      vertex -3.412939228117466 2.6111404672265053 3.8
      vertex -3.5977590680122375 2.265366867184639 3.8
    endloop
  endfacet
  facet normal 0.7730104435344091 -0.6343932961394977 0
    outer loop
      vertex -3.412939228117466 2.6111404672265053 -3.8
      vertex -3.1642135605216026 2.9142135605216026 3.8
      vertex -3.412939228117466 2.6111404672265053 3.8
    endloop
  endfacet
  facet normal 0.6343932961394977 -0.7730104435344091 0
    outer loop
      vertex -3.1642135605216026 2.9142135605216026 -3.8
      vertex -2.8611404672265053 3.162939228117466 3.8
      vertex -3.1642135605216026 2.9142135605216026 3.8
    endloop
  endfacet
  facet normal 0.47139673713269076 -0.8819212641844241 0
    outer loop
      vertex -2.8611404672265053 3.162939228117466 -3.8
      vertex -2.515366867184639 3.3477590680122375 3.8
      vertex -2.8611404672265053 3.162939228117466 3.8
    endloop
  endfacet
  facet normal 0.29028467119332607 -0.9569403375708344 0
    outer loop
      vertex -2.515366867184639 3.3477590680122375 -3.8
      vertex -2.1401806473731995 3.4615705609321594 3.8
      vertex -2.515366867184639 3.3477590680122375 3.8
    endloop
  endfacet
  facet normal 0.09801713918082347 -0.9951847267853375 0
    outer loop
      vertex -2.1401806473731995 3.4615705609321594 -3.8
      vertex -1.75 3.5 3.8
      vertex -2.1401806473731995 3.4615705609321594 3.8
    endloop
  endfacet
  facet normal 0 -1 0
    outer loop
      vertex -1.75 3.5 -3.8
      vertex 1.75 3.5 3.8
      vertex -1.75 3.5 3.8
    endloop
  endfacet
  facet normal -0.09801713918082347 0.9951847267853375 0
    outer loop
      vertex 1.75 -3.5 -3.8
      vertex 1.75 -3.5 3.8
      vertex 2.1401806473731995 -3.4615705609321594 -3.8
    endloop
  endfacet
  facet normal -0.29028467119332607 0.9569403375708344 0
    outer loop
      vertex 2.1401806473731995 -3.4615705609321594 -3.8
      vertex 2.1401806473731995 -3.4615705609321594 3.8
      vertex 2.515366867184639 -3.3477590680122375 -3.8
    endloop
  endfacet
  facet normal -0.47139673713269076 0.8819212641844241 0
    outer loop
      vertex 2.515366867184639 -3.3477590680122375 -3.8
      vertex 2.515366867184639 -3.3477590680122375 3.8
      vertex 2.8611404672265053 -3.162939228117466 -3.8
    endloop
  endfacet
  facet normal -0.6343932961394977 0.7730104435344091 0
    outer loop
      vertex 2.8611404672265053 -3.162939228117466 -3.8
      vertex 2.8611404672265053 -3.162939228117466 3.8
      vertex 3.1642135605216026 -2.9142135605216026 -3.8
    endloop
  endfacet
  facet normal -0.7730104435344091 0.6343932961394977 0
    outer loop
      vertex 3.1642135605216026 -2.9142135605216026 -3.8
      vertex 3.1642135605216026 -2.9142135605216026 3.8
      vertex 3.412939228117466 -2.6111404672265053 -3.8
    endloop
  endfacet
  facet normal -0.8819212641844241 0.47139673713269076 0
    outer loop
      vertex 3.412939228117466 -2.6111404672265053 -3.8
      vertex 3.412939228117466 -2.6111404672265053 3.8
      vertex 3.5977590680122375 -2.265366867184639 -3.8
    endloop
  endfacet
  facet normal -0.9569403375708344 0.29028467119332607 0
    outer loop
      vertex 3.5977590680122375 -2.265366867184639 -3.8
      vertex 3.5977590680122375 -2.265366867184639 3.8
      vertex 3.7115705609321594 -1.8901806473731995 -3.8
    endloop
  endfacet
  facet normal -0.9951847267853375 0.09801713918082347 0
    outer loop
      vertex 3.7115705609321594 -1.8901806473731995 -3.8
      vertex 3.7115705609321594 -1.8901806473731995 3.8
      vertex 3.75 -1.5 -3.8
    endloop
  endfacet
  facet normal -1 0 0
    outer loop
      vertex 3.75 -1.5 -3.8
      vertex 3.75 -1.5 3.8
      vertex 3.75 1.5 -3.8
    endloop
  endfacet
  facet normal 0 1 0
    outer loop
      vertex -1.75 -3.5 3.8
      vertex 1.75 -3.5 3.8
      vertex 1.75 -3.5 -3.8
    endloop
  endfacet
  facet normal -0.09801713918082347 0.9951847267853375 0
    outer loop
      vertex 2.1401806473731995 -3.4615705609321594 -3.8
      vertex 1.75 -3.5 3.8
      vertex 2.1401806473731995 -3.4615705609321594 3.8
    endloop
  endfacet
  facet normal -0.29028467119332607 0.9569403375708344 0
    outer loop
      vertex 2.515366867184639 -3.3477590680122375 -3.8
      vertex 2.1401806473731995 -3.4615705609321594 3.8
      vertex 2.515366867184639 -3.3477590680122375 3.8
    endloop
  endfacet
  facet normal -0.47139673713269076 0.8819212641844241 0
    outer loop
      vertex 2.8611404672265053 -3.162939228117466 -3.8
      vertex 2.515366867184639 -3.3477590680122375 3.8
      vertex 2.8611404672265053 -3.162939228117466 3.8
    endloop
  endfacet
  facet normal -0.6343932961394977 0.7730104435344091 0
    outer loop
      vertex 3.1642135605216026 -2.9142135605216026 -3.8
      vertex 2.8611404672265053 -3.162939228117466 3.8
      vertex 3.1642135605216026 -2.9142135605216026 3.8
    endloop
  endfacet
  facet normal -0.7730104435344091 0.6343932961394977 0
    outer loop
      vertex 3.412939228117466 -2.6111404672265053 -3.8
      vertex 3.1642135605216026 -2.9142135605216026 3.8
      vertex 3.412939228117466 -2.6111404672265053 3.8
    endloop
  endfacet
  facet normal -0.8819212641844241 0.47139673713269076 0
    outer loop
      vertex 3.5977590680122375 -2.265366867184639 -3.8
      vertex 3.412939228117466 -2.6111404672265053 3.8
      vertex 3.5977590680122375 -2.265366867184639 3.8
    endloop
  endfacet
  facet normal -0.9569403375708344 0.29028467119332607 0
    outer loop
      vertex 3.7115705609321594 -1.8901806473731995 -3.8
      vertex 3.5977590680122375 -2.265366867184639 3.8
      vertex 3.7115705609321594 -1.8901806473731995 3.8
    endloop
  endfacet
  facet normal -0.9951847267853375 0.09801713918082347 0
    outer loop
      vertex 3.75 -1.5 -3.8
      vertex 3.7115705609321594 -1.8901806473731995 3.8
      vertex 3.75 -1.5 3.8
    endloop
  endfacet
  facet normal 0 -1 0
    outer loop
      vertex -1.75 3.5 -3.8
      vertex 1.75 3.5 -3.8
      vertex 1.75 3.5 3.8
    endloop
  endfacet
  facet normal -0.09801713918082347 -0.9951847267853375 0
    outer loop
      vertex 1.75 3.5 -3.8
      vertex 2.1401806473731995 3.4615705609321594 -3.8
      vertex 2.1401806473731995 3.4615705609321594 3.8
    endloop
  endfacet
  facet normal -0.29028467119332607 -0.9569403375708344 0
    outer loop
      vertex 2.1401806473731995 3.4615705609321594 -3.8
      vertex 2.515366867184639 3.3477590680122375 -3.8
      vertex 2.515366867184639 3.3477590680122375 3.8
    endloop
  endfacet
  facet normal -0.47139673713269076 -0.8819212641844241 0
    outer loop
      vertex 2.515366867184639 3.3477590680122375 -3.8
      vertex 2.8611404672265053 3.162939228117466 -3.8
      vertex 2.8611404672265053 3.162939228117466 3.8
    endloop
  endfacet
  facet normal -0.8819212641844241 -0.47139673713269076 0
    outer loop
      vertex 3.412939228117466 2.6111404672265053 -3.8
      vertex 3.5977590680122375 2.265366867184639 -3.8
      vertex 3.5977590680122375 2.265366867184639 3.8
    endloop
  endfacet
  facet normal -0.7730104435344091 -0.6343932961394977 0
    outer loop
      vertex 3.412939228117466 2.6111404672265053 -3.8
      vertex 3.412939228117466 2.6111404672265053 3.8
      vertex 3.1642135605216026 2.9142135605216026 -3.8
    endloop
  endfacet
  facet normal -0.9951847267853375 -0.09801713918082347 0
    outer loop
      vertex 3.75 1.5 -3.8
      vertex 3.75 1.5 3.8
      vertex 3.7115705609321594 1.8901806473731995 -3.8
    endloop
  endfacet
  facet normal -0.9569403375708344 -0.29028467119332607 0
    outer loop
      vertex 3.7115705609321594 1.8901806473731995 -3.8
      vertex 3.7115705609321594 1.8901806473731995 3.8
      vertex 3.5977590680122375 2.265366867184639 -3.8
    endloop
  endfacet
  facet normal -0.6343932961394977 -0.7730104435344091 0
    outer loop
      vertex 2.8611404672265053 3.162939228117466 -3.8
      vertex 3.1642135605216026 2.9142135605216026 -3.8
      vertex 3.1642135605216026 2.9142135605216026 3.8
    endloop
  endfacet
  facet normal -0.09801713918082347 -0.9951847267853375 0
    outer loop
      vertex 1.75 3.5 -3.8
      vertex 2.1401806473731995 3.4615705609321594 3.8
      vertex 1.75 3.5 3.8
    endloop
  endfacet
  facet normal -0.29028467119332607 -0.9569403375708344 0
    outer loop
      vertex 2.1401806473731995 3.4615705609321594 -3.8
      vertex 2.515366867184639 3.3477590680122375 3.8
      vertex 2.1401806473731995 3.4615705609321594 3.8
    endloop
  endfacet
  facet normal -0.47139673713269076 -0.8819212641844241 0
    outer loop
      vertex 2.515366867184639 3.3477590680122375 -3.8
      vertex 2.8611404672265053 3.162939228117466 3.8
      vertex 2.515366867184639 3.3477590680122375 3.8
    endloop
  endfacet
  facet normal -1 0 0
    outer loop
      vertex 3.75 -1.5 3.8
      vertex 3.75 1.5 3.8
      vertex 3.75 1.5 -3.8
    endloop
  endfacet
  facet normal -0.8819212641844241 -0.47139673713269076 0
    outer loop
      vertex 3.412939228117466 2.6111404672265053 -3.8
      vertex 3.5977590680122375 2.265366867184639 3.8
      vertex 3.412939228117466 2.6111404672265053 3.8
    endloop
  endfacet
  facet normal -0.9951847267853375 -0.09801713918082347 0
    outer loop
      vertex 3.7115705609321594 1.8901806473731995 -3.8
      vertex 3.75 1.5 3.8
      vertex 3.7115705609321594 1.8901806473731995 3.8
    endloop
  endfacet
  facet normal -0.9569403375708344 -0.29028467119332607 0
    outer loop
      vertex 3.5977590680122375 2.265366867184639 -3.8
      vertex 3.7115705609321594 1.8901806473731995 3.8
      vertex 3.5977590680122375 2.265366867184639 3.8
    endloop
  endfacet
  facet normal -0.6343932961394977 -0.7730104435344091 0
    outer loop
      vertex 2.8611404672265053 3.162939228117466 -3.8
      vertex 3.1642135605216026 2.9142135605216026 3.8
      vertex 2.8611404672265053 3.162939228117466 3.8
    endloop
  endfacet
  facet normal -0.7730104435344091 -0.6343932961394977 0
    outer loop
      vertex 3.1642135605216026 2.9142135605216026 -3.8
      vertex 3.412939228117466 2.6111404672265053 3.8
      vertex 3.1642135605216026 2.9142135605216026 3.8
    endloop
  endfacet
endsolid OpenSCAD_Model
